<?xml version="1.0" encoding="utf-8"?>
<!-- Generator: Adobe Illustrator 23.0.0, SVG Export Plug-In . SVG Version: 6.00 Build 0)  -->
<svg version="1.1" id="Capa_1" xmlns="http://www.w3.org/2000/svg" xmlns:xlink="http://www.w3.org/1999/xlink" x="0px" y="0px"
	 viewBox="0 0 600 600" style="enable-background:new 0 0 600 600;" xml:space="preserve">
<style type="text/css">
	.st0{fill:#0088F8;}
</style>
<g>
	<circle cx="300" cy="286.4" r="35.8"/>
	<g>
		<path class="st0" d="M353,298.1h23.8c-5.6,37.3-37.9,66-76.8,66c-42.9,0-77.7-34.8-77.7-77.7s34.8-77.7,77.7-77.7
			c38.9,0,71.2,28.7,76.8,66H353c-5.4-24.3-27.1-42.5-53-42.5c-30,0-54.3,24.3-54.3,54.3s24.3,54.3,54.3,54.3
			C325.9,340.6,347.6,322.4,353,298.1z"/>
	</g>
	<path d="M300,168.7c-65,0-117.7,52.7-117.7,117.7c0,65,52.7,117.7,117.7,117.7s117.7-52.7,117.7-117.7
		C417.7,221.4,365,168.7,300,168.7z M300,382.6c-53.1,0-96.2-43.1-96.2-96.2s43.1-96.2,96.2-96.2s96.2,43.1,96.2,96.2
		S353.1,382.6,300,382.6z"/>
</g>
<g>
	<path d="M156.8,427.7h12.1v13.7h13.2v-13.7h12.1v39.1h-12.1V451h-13.2v15.8h-12.1V427.7z"/>
	<path d="M199.6,427.7h36.8v9.7H224v29.5h-12.1v-29.5h-12.3V427.7z"/>
	<path d="M239,427.7h36.8v9.7h-12.3v29.5h-12.1v-29.5H239V427.7z"/>
	<path d="M281.2,427.7h20.1c4.4,0,7.7,1,9.8,3.1c2.2,2.1,3.3,5,3.3,8.9c0,4-1.2,7-3.6,9.3c-2.4,2.2-6,3.3-10.9,3.3h-6.6v14.5h-12.1
		V427.7z M293.3,444.3h3c2.3,0,4-0.4,4.9-1.2c0.9-0.8,1.4-1.8,1.4-3.1c0-1.2-0.4-2.3-1.2-3.1c-0.8-0.9-2.4-1.3-4.6-1.3h-3.4V444.3z"
		/>
	<path d="M355.9,459.5h-19.8v-8.9l19.8-23.5h9.5v24h4.9v8.4h-4.9v7.3h-9.5V459.5z M355.9,451v-12.3L345.4,451H355.9z"/>
	<path d="M373.6,447.1c0-7.4,1.3-12.6,4-15.6c2.7-3,6.8-4.5,12.2-4.5c2.6,0,4.8,0.3,6.5,1s3.1,1.5,4.1,2.5c1.1,1,1.9,2.1,2.5,3.3
		c0.6,1.1,1.1,2.5,1.5,4c0.7,2.9,1.1,6,1.1,9.1c0,7.1-1.2,12.3-3.6,15.6c-2.4,3.3-6.5,4.9-12.4,4.9c-3.3,0-6-0.5-8-1.6
		s-3.7-2.6-5-4.6c-0.9-1.4-1.7-3.4-2.2-5.9C373.9,452.9,373.6,450.1,373.6,447.1z M384.4,447.1c0,5,0.4,8.4,1.3,10.2
		c0.9,1.8,2.2,2.7,3.8,2.7c1.1,0,2.1-0.4,2.9-1.2c0.8-0.8,1.4-2,1.8-3.7c0.4-1.7,0.6-4.3,0.6-7.8c0-5.2-0.4-8.7-1.3-10.5
		c-0.9-1.8-2.2-2.7-4-2.7c-1.8,0-3.1,0.9-3.9,2.7C384.8,438.8,384.4,442.2,384.4,447.1z"/>
	<path d="M428.8,459.5H409v-8.9l19.8-23.5h9.5v24h4.9v8.4h-4.9v7.3h-9.5V459.5z M428.8,451v-12.3L418.3,451H428.8z"/>
</g>
<g>
	<path d="M257.8,102.2h12.1v23.3c0,2.3-0.4,4.5-1.1,6.5s-1.9,3.8-3.4,5.4s-3.2,2.6-4.8,3.2c-2.3,0.9-5.2,1.3-8.5,1.3
		c-1.9,0-4-0.1-6.2-0.4c-2.3-0.3-4.1-0.8-5.6-1.6c-1.5-0.8-2.9-1.9-4.1-3.4c-1.3-1.5-2.1-3-2.6-4.5c-0.7-2.5-1.1-4.7-1.1-6.6v-23.3
		h12.1v23.9c0,2.1,0.6,3.8,1.8,5c1.2,1.2,2.8,1.8,4.9,1.8c2.1,0,3.7-0.6,4.9-1.8c1.2-1.2,1.8-2.9,1.8-5V102.2z"/>
	<path d="M277.8,102.2h20.1c4.4,0,7.7,1,9.8,3.1c2.2,2.1,3.3,5,3.3,8.9c0,4-1.2,7-3.6,9.3c-2.4,2.2-6,3.3-10.9,3.3h-6.6v14.5h-12.1
		V102.2z M289.9,118.9h3c2.3,0,4-0.4,4.9-1.2s1.4-1.8,1.4-3.1c0-1.2-0.4-2.3-1.2-3.1c-0.8-0.9-2.4-1.3-4.6-1.3h-3.4V118.9z"/>
	<path d="M315.2,128.4l11.5-0.7c0.2,1.9,0.8,3.3,1.5,4.3c1.2,1.6,3,2.4,5.3,2.4c1.7,0,3.1-0.4,4-1.2c0.9-0.8,1.4-1.7,1.4-2.8
		c0-1-0.4-1.9-1.3-2.7c-0.9-0.8-3-1.6-6.2-2.3c-5.3-1.2-9.1-2.8-11.3-4.8c-2.3-2-3.4-4.5-3.4-7.6c0-2,0.6-3.9,1.7-5.7
		c1.2-1.8,2.9-3.2,5.3-4.2c2.3-1,5.5-1.5,9.6-1.5c5,0,8.8,0.9,11.4,2.8c2.6,1.9,4.2,4.8,4.7,8.9l-11.4,0.7c-0.3-1.8-0.9-3-1.9-3.8
		c-1-0.8-2.3-1.2-4-1.2c-1.4,0-2.5,0.3-3.2,0.9c-0.7,0.6-1.1,1.3-1.1,2.2c0,0.6,0.3,1.2,0.9,1.7c0.6,0.5,1.9,1,4.1,1.4
		c5.3,1.1,9.1,2.3,11.4,3.5c2.3,1.2,3.9,2.6,5,4.3s1.6,3.7,1.6,5.8c0,2.5-0.7,4.8-2.1,6.9c-1.4,2.1-3.3,3.7-5.8,4.8
		c-2.5,1.1-5.6,1.6-9.4,1.6c-6.7,0-11.3-1.3-13.8-3.8C317,135.6,315.5,132.4,315.2,128.4z"/>
	<path d="M356.1,102.2h11.6v8.9l-2.2,17.9h-7.2l-2.2-17.9V102.2z M356.5,131.8h10.8v9.6h-10.8V131.8z"/>
</g>
<g>
	<path class="st0" d="M214.4,510.5v-2.7h8.3v2.7H214.4z"/>
	<path class="st0" d="M234.6,517.1V495h3l11.6,17.3V495h2.8v22.1h-3l-11.6-17.4v17.4H234.6z"/>
	<path class="st0" d="M255.5,509.1c0-3,0.8-5.2,2.5-6.6c1.4-1.2,3.1-1.8,5-1.8c2.2,0,4,0.7,5.4,2.2c1.4,1.4,2.1,3.4,2.1,6
		c0,2.1-0.3,3.7-0.9,4.9c-0.6,1.2-1.5,2.1-2.7,2.7c-1.2,0.7-2.5,1-3.9,1c-2.2,0-4.1-0.7-5.4-2.2
		C256.2,513.9,255.5,511.8,255.5,509.1z M258.3,509.1c0,2,0.4,3.6,1.3,4.6s2,1.5,3.4,1.5c1.3,0,2.5-0.5,3.4-1.5s1.3-2.6,1.3-4.7
		c0-2-0.4-3.5-1.3-4.5c-0.9-1-2-1.5-3.4-1.5c-1.4,0-2.5,0.5-3.4,1.5S258.3,507,258.3,509.1z"/>
	<path class="st0" d="M279.6,514.7l0.4,2.4c-0.8,0.2-1.4,0.2-2,0.2c-1,0-1.7-0.2-2.3-0.5c-0.5-0.3-0.9-0.7-1.1-1.2
		c-0.2-0.5-0.3-1.6-0.3-3.2v-9.2h-2v-2.1h2v-4l2.7-1.6v5.6h2.7v2.1h-2.7v9.4c0,0.8,0,1.3,0.1,1.5c0.1,0.2,0.3,0.4,0.5,0.5
		c0.2,0.1,0.5,0.2,0.9,0.2C278.7,514.8,279.1,514.7,279.6,514.7z"/>
	<path class="st0" d="M282.8,517.1V495h14.9v2.6h-12v6.8h10.4v2.6h-10.4v10H282.8z"/>
	<path class="st0" d="M300.1,509.1c0-3,0.8-5.2,2.5-6.6c1.4-1.2,3.1-1.8,5-1.8c2.2,0,4,0.7,5.4,2.2s2.1,3.4,2.1,6
		c0,2.1-0.3,3.7-0.9,4.9c-0.6,1.2-1.5,2.1-2.7,2.7c-1.2,0.7-2.5,1-3.9,1c-2.2,0-4.1-0.7-5.4-2.2S300.1,511.8,300.1,509.1z
		 M302.9,509.1c0,2,0.4,3.6,1.3,4.6c0.9,1,2,1.5,3.4,1.5c1.3,0,2.5-0.5,3.4-1.5s1.3-2.6,1.3-4.7c0-2-0.4-3.5-1.3-4.5
		c-0.9-1-2-1.5-3.4-1.5c-1.4,0-2.5,0.5-3.4,1.5C303.4,505.5,302.9,507,302.9,509.1z"/>
	<path class="st0" d="M328.8,517.1v-2.4c-1.2,1.8-2.9,2.7-5.1,2.7c-0.9,0-1.8-0.2-2.6-0.5c-0.8-0.4-1.4-0.8-1.8-1.4
		c-0.4-0.5-0.7-1.2-0.8-2c-0.1-0.5-0.2-1.4-0.2-2.5v-9.9h2.7v8.9c0,1.4,0.1,2.4,0.2,2.9c0.2,0.7,0.5,1.3,1.1,1.7s1.2,0.6,2,0.6
		s1.6-0.2,2.3-0.6c0.7-0.4,1.2-1,1.5-1.7c0.3-0.7,0.4-1.8,0.4-3.1v-8.6h2.7v16H328.8z"/>
	<path class="st0" d="M335.5,517.1v-16h2.4v2.3c1.2-1.8,2.9-2.6,5.1-2.6c1,0,1.9,0.2,2.7,0.5s1.4,0.8,1.8,1.4c0.4,0.6,0.7,1.2,0.8,2
		c0.1,0.5,0.2,1.4,0.2,2.6v9.8h-2.7v-9.7c0-1.1-0.1-1.9-0.3-2.5c-0.2-0.5-0.6-1-1.1-1.3s-1.2-0.5-1.9-0.5c-1.2,0-2.2,0.4-3,1.1
		s-1.3,2.1-1.3,4.2v8.7H335.5z"/>
	<path class="st0" d="M363,517.1v-2c-1,1.6-2.5,2.4-4.5,2.4c-1.3,0-2.4-0.4-3.5-1.1c-1.1-0.7-1.9-1.7-2.5-2.9
		c-0.6-1.3-0.9-2.7-0.9-4.3c0-1.6,0.3-3,0.8-4.3c0.5-1.3,1.3-2.3,2.4-3c1.1-0.7,2.3-1,3.6-1c1,0,1.8,0.2,2.6,0.6
		c0.8,0.4,1.4,0.9,1.8,1.6V495h2.7v22.1H363z M354.4,509.1c0,2,0.4,3.6,1.3,4.6s1.9,1.5,3.1,1.5c1.2,0,2.2-0.5,3-1.5
		c0.8-1,1.2-2.4,1.2-4.4c0-2.2-0.4-3.8-1.3-4.8s-1.9-1.5-3.1-1.5c-1.2,0-2.2,0.5-3,1.5S354.4,507,354.4,509.1z"/>
	<path class="st0" d="M377.3,510.5v-2.7h8.3v2.7H377.3z"/>
</g>
</svg>
