<?xml version="1.0" encoding="utf-8"?>
<!-- Generator: Adobe Illustrator 24.3.0, SVG Export Plug-In . SVG Version: 6.00 Build 0)  -->
<svg version="1.1" id="Capa_1" xmlns="http://www.w3.org/2000/svg" xmlns:xlink="http://www.w3.org/1999/xlink" x="0px" y="0px"
	 viewBox="0 0 300 300" style="enable-background:new 0 0 300 300;" xml:space="preserve">
<g>
	<path d="M104.1,231.8c-27.9,0-55.8,0-83.7,0c-0.4,0-0.5-0.1-0.5-0.5c0-54.2,0-108.5,0-162.7c0-0.4,0.1-0.5,0.5-0.5
		c27.6,0,55.2,0,82.8,0c0,0,0,0.1-0.1,0.1l0,0c0.2,0,0.3,0.1,0.5,0.1c4.5,0.2,8.9,0.8,13.3,1.6c5.5,1,10.8,2.8,15.7,5.6
		c7.6,4.4,12.6,10.9,15,19.3c2,7.2,2.3,14.6,1.1,22c-1.2,6.9-4.3,12.8-9.3,17.7c-3.4,3.3-7.3,5.8-11.5,7.9c-0.2,0.1-0.4,0.2-0.6,0.4
		c0.2,0.1,0.4,0.1,0.5,0.2c3.8,1.2,7.5,2.7,10.9,4.7c4.4,2.7,8.2,6.1,11.1,10.4c4.2,6.1,6.4,13,7.1,20.3c0.4,4.2,0.4,8.3-0.1,12.5
		c-0.4,3.5-1.2,7-2.4,10.3c-3.6,9.3-9.9,16.4-18.4,21.5c-7.9,4.6-16.5,7-25.4,8.2c-2,0.3-3.9,0.5-5.9,0.6
		C104.4,231.7,104.1,231.5,104.1,231.8z M56,181.4c0,7.3,0,14.5,0,21.8c0,0.7-0.1,0.7,0.7,0.7c12.4,0,24.8,0,37.1,0
		c2.9,0,5.8-0.2,8.7-0.6c3.4-0.5,6.6-1.5,9.5-3.2c4.4-2.5,7.2-6.3,8.3-11.2c1.1-4.8,0.9-9.6-0.2-14.4c-0.7-3-2-5.8-4.1-8.1
		c-2.3-2.5-5.2-4.1-8.4-5.3c-4.2-1.6-8.5-2-12.9-2c-12.7,0-25.5,0-38.2,0c-0.6,0-0.6,0.2-0.6,0.7C56,166.9,56,174.1,56,181.4z
		 M75.8,134.4c5.8,0,11.6,0,17.4,0c4,0,7.8-0.8,11.5-2.5c4.4-2.1,7.5-5.3,8.8-10c1-3.5,1.1-7,0.7-10.6c-0.4-3.3-1.7-6.2-3.8-8.6
		c-2-2.3-4.5-3.7-7.3-4.7c-3.9-1.4-7.9-1.8-12-1.8c-11.5-0.1-23,0-34.5,0c-0.5,0-0.5,0.2-0.5,0.6c0,12.4,0,24.7,0,37.1
		c0,0.5,0.1,0.6,0.6,0.6C63,134.4,69.4,134.4,75.8,134.4z"/>
	<path d="M280,167.1c0,3,0,6,0,9.1c0,0-0.1,0-0.1-0.1l0,0c-0.1,0.2-0.1,0.4-0.1,0.7c0,0.7,0,0.7-0.7,0.7c-28,0-56,0-83.9,0
		c-0.1,0-0.3,0-0.4,0c-0.3,0-0.4,0.1-0.4,0.4c0.1,1.5,0.2,3,0.4,4.5c0.5,3.9,1.3,7.7,3,11.3c2,4.4,5.1,7.8,9.3,10.2
		c3,1.6,6.1,2.6,9.5,3.1c3.9,0.6,7.8,0.7,11.7,0.2c6.2-0.8,11.5-3.4,16-7.6c2.2-2,3.9-4.3,4.9-7.1c0.1-0.4,0.4-0.3,0.6-0.3
		c9.2,0,18.4,0,27.7,0c0.4,0,0.5,0.1,0.4,0.5c-1.7,5.1-3.8,10-6.5,14.6c-3,5-6.6,9.5-11.2,13.1c-7.7,6-16.5,9.2-26,10.7
		c-2,0.3-3.9,0.5-5.9,0.7c-0.1,0-0.4-0.1-0.3,0.2c-3.5,0-6.9,0-10.4,0l0,0l0,0c-0.1-0.1-0.3-0.1-0.5-0.1c-3.5-0.2-7-0.7-10.5-1.5
		c-6.2-1.4-12-3.6-17.4-6.8c-9.3-5.6-16.1-13.4-20.7-23.2c-3.4-7.1-5.3-14.6-6.1-22.4c-0.6-6.6-0.5-13.2,0.5-19.7
		c1.1-6.9,3.2-13.6,6.5-19.8c3.4-6.6,7.9-12.3,13.6-17.1c9.2-7.7,19.7-12.2,31.6-13.5c6.1-0.7,12.1-0.6,18.1,0.3
		c6.1,0.9,11.9,2.7,17.2,5.7c6.1,3.4,11.4,7.7,15.8,13.2c4.6,5.8,8,12.2,10.4,19.2c1.7,5.1,2.8,10.3,3.5,15.7c0.2,1.7,0.3,3.3,0.4,5
		C279.9,166.9,279.8,167.1,280,167.1z M220.7,156.9c8.5,0,17,0,25.5,0c0.1,0,0.3,0,0.4,0c0.4,0.1,0.6-0.1,0.5-0.5
		c-0.1-0.5-0.2-0.9-0.3-1.4c-0.9-4.2-2.3-8.3-4.3-12.1c-3.2-5.9-8-9.5-14.6-10.6c-2.9-0.5-5.9-0.6-8.9-0.5
		c-4.6,0.2-8.9,1.4-12.9,3.9c-4.2,2.6-7.3,6.2-9.3,10.7c-1.4,3.1-2.1,6.5-2.5,9.9c-0.1,0.7-0.1,0.7,0.6,0.7
		C203.5,156.9,212.1,156.9,220.7,156.9z"/>
	<path d="M221.8,76.5c10.8,0,21.6,0,32.4,0c0.5,0,0.6,0.1,0.6,0.6c0,5.7,0,11.4,0,17.2c0,0.5-0.1,0.6-0.6,0.6c-21.7,0-43.3,0-65,0
		c-0.5,0-0.6-0.1-0.6-0.6c0-5.7,0-11.5,0-17.2c0-0.5,0.1-0.6,0.6-0.6C200.2,76.5,211,76.5,221.8,76.5z"/>
</g>
</svg>
