<?xml version="1.0" encoding="utf-8"?>
<!-- Generator: Adobe Illustrator 24.3.0, SVG Export Plug-In . SVG Version: 6.00 Build 0)  -->
<svg version="1.1" id="Capa_1" xmlns="http://www.w3.org/2000/svg" xmlns:xlink="http://www.w3.org/1999/xlink" x="0px" y="0px"
	 viewBox="0 0 300 300" style="enable-background:new 0 0 300 300;" xml:space="preserve">
<g>
	<path d="M153,115.7v20.7h7.1v-7.8h3.3c7.1,0,10.5-1.8,10.5-5.1v-2.7c0-3.3-3.5-5.1-10.5-5.1H153L153,115.7z M166.9,120.6v3.1
		c0,1.5-1.2,2-3.5,2h-3.3v-7h3.3C165.7,118.6,166.9,119.1,166.9,120.6z"/>
	<path d="M168.4,93.3c-0.6-1-1.7-1.6-2.9-1.4l-15.7,2.7l-4.1,0.7l4.1-0.2l15-0.7c1-0.1,1.8,0.4,2.4,1.2l10,14.3L168.4,93.3z"/>
	<path d="M120.3,231.7h2.2l0.5-3.2h2.2l0.5,3.2h2.2l-2.3-13.9h-2.9L120.3,231.7z M124.1,221l0.8,5.5h-1.6L124.1,221z"/>
	<path d="M109.4,143c-3.8,0-5.7,0.1-9.5,0.1c-0.1,17.3-0.2,34.6-0.2,51.8c0,4.9-2.1,6.7-5.2,7.1c-3.2,0.4-5.2-1-5.2-6
		c0.1-17.6,0.2-35.3,0.2-52.9c-4,0.1-6,0.1-10.1,0.2c-0.1,17.8-0.2,35.5-0.2,53.3c-0.6,9.2,5.5,16.5,14.9,15.3
		c9.2-1.2,15.3-9.2,15.1-18.4C109.2,176.6,109.3,159.8,109.4,143z"/>
	<path d="M106,222.5v-1.6c0-1-0.3-1.7-1-2.4c-0.6-0.6-1.4-1-2.4-1s-1.7,0.3-2.4,1c-0.6,0.6-1,1.4-1,2.4v7.6c0,1,0.3,1.7,1,2.4
		c0.6,0.6,1.4,1,2.4,1c0.9,0,1.7-0.3,2.3-1c0.6-0.6,1-1.4,1-2.4v-4.8h-3.3v2.1h1.2v2.7c0,0.3-0.1,0.6-0.3,0.9
		c-0.2,0.2-0.6,0.3-0.9,0.3s-0.6-0.1-0.9-0.3c-0.2-0.2-0.3-0.6-0.3-0.9v-7.6c0-0.3,0.1-0.6,0.3-0.9c0.2-0.2,0.5-0.3,0.9-0.3
		c0.3,0,0.6,0.1,0.9,0.3c0.2,0.2,0.3,0.6,0.3,0.9v1.7L106,222.5L106,222.5z"/>
	<path d="M120.1,73.7l-10.2,2.5c-1.3,0.3-2.4,1.4-2.7,2.8l-5.2,23.1c-0.2,1.2,0.1,2.5,1,3.4l5.1,5.2c1.3-0.2,2.9-0.3,4.7-0.3
		c6.4,0,10.2,1.5,12.4,3.4c2.3-1.9,6.1-3.4,12.6-3.4c1.1,0,2.1,0.1,3,0.1l1.8-12.7c0.2-1.2-0.2-2.5-1.2-3.3
		c-5.9-5.3-11.7-11.8-17.4-19.5C123.1,74,121.5,73.4,120.1,73.7z"/>
	<path d="M123.2,131.4v-2.8h-6.7v2.9c0,1.5-1.4,2-3.6,2s-3.6-0.6-3.6-2v-11.2c0-1.5,1.4-2.1,3.6-2.1s3.6,0.6,3.6,2.1v2.2h6.7v-1.9
		c0-3.3-3.6-5.2-10.5-5.2c-7,0-10.5,1.9-10.5,5.2v10.8c0,3.3,3.6,5.2,10.5,5.2C119.5,136.6,123.2,134.7,123.2,131.4z"/>
	<path d="M148.4,120.7c0-3.3-3.8-5.2-10.8-5.2s-10.8,1.9-10.8,5.2v10.8c0,3.3,3.8,5.2,10.8,5.2s10.8-1.9,10.8-5.2V120.7z
		 M141.3,131.6c0,1.5-1.4,2.1-3.6,2.1s-3.6-0.6-3.6-2.1v-11.2c0-1.5,1.4-2.1,3.6-2.1s3.6,0.6,3.6,2.1V131.6z"/>
	<path d="M144.6,229.8c-0.3,0-0.6-0.1-0.9-0.4c-0.3-0.4-0.6-1-0.6-1.7l-2,0.2c0.1,0.7,0.2,1.4,0.5,2c0.2,0.6,0.6,1,1,1.3
		c0.6,0.4,1.2,0.6,2.1,0.6c0.5,0,0.9-0.1,1.2-0.2c0.6-0.2,1.1-0.6,1.4-1c0.6-0.7,0.8-1.5,0.8-2.5c0-0.4-0.1-0.9-0.3-1.3
		c-0.1-0.2-0.2-0.4-0.3-0.6c-0.3-0.5-0.7-1-1.2-1.5c-0.2-0.2-0.5-0.5-1-0.9c-0.4-0.3-0.7-0.6-1-0.9c-0.6-0.6-0.8-1.3-0.8-2
		c0-0.4,0.1-0.7,0.2-1c0.2-0.3,0.5-0.5,0.9-0.5s0.6,0.1,0.8,0.3c0.2,0.3,0.4,0.8,0.5,1.3l2-0.4c-0.1-0.6-0.2-1.1-0.5-1.6
		c-0.2-0.5-0.6-0.8-1-1.1c-0.6-0.3-1.2-0.5-1.9-0.5c-0.8,0-1.4,0.2-2,0.6c-0.9,0.6-1.3,1.6-1.3,2.9c0,0.7,0.2,1.3,0.5,2
		c0.3,0.6,0.8,1.1,1.5,1.8c0.8,0.8,1.4,1.3,1.8,1.7c0.6,0.6,0.8,1.1,0.8,1.7c0,0.4-0.1,0.7-0.2,1C145.4,229.6,145,229.8,144.6,229.8
		z"/>
	<path d="M177.1,63c0.2-1.4-0.2-2.9-1.1-3.9l-4.2-4.4l-8-8.5l-0.6-0.6c-1-1-2.4-1.5-3.8-1.3c-2.5,0.4-5.4,0.9-8.6,1.6
		c-4.9,1-10.3,2.4-15.4,4c-1.3,0.4-2.3,1.3-2.8,2.6l-0.7,1.9l-3.3,8.6l-2.1,5.8c-0.6,1.4-0.3,2.9,0.6,4.1
		c5.2,6.9,10.4,12.9,15.7,17.8c1,1,2.4,1.3,3.7,1.1l3.3-0.5l15.6-2.7c1.3-0.2,2.5-1.1,3.2-2.3c4-7.8,6.7-15.2,8.2-22.7
		C177,63.4,177,63.2,177.1,63z"/>
	<path d="M162.9,218.5c-0.6,0.6-1,1.4-1,2.4v7.6c0,1,0.3,1.7,1,2.4c0.6,0.6,1.4,1,2.4,1s1.7-0.3,2.4-1c0.6-0.6,1-1.4,1-2.4v-7.6
		c0-1-0.3-1.7-1-2.4c-0.6-0.6-1.4-1-2.4-1C164.3,217.5,163.5,217.9,162.9,218.5z M166.4,220.9v7.6c0,0.3-0.1,0.6-0.3,0.9
		c-0.2,0.2-0.5,0.3-0.9,0.3c-0.3,0-0.6-0.1-0.9-0.3c-0.2-0.2-0.3-0.6-0.3-0.9v-7.6c0-0.3,0.1-0.6,0.3-0.9c0.2-0.2,0.6-0.3,0.9-0.3
		s0.6,0.1,0.9,0.3C166.2,220.2,166.4,220.5,166.4,220.9z"/>
	<path d="M204.6,136c4.6,0.6,8.6,2.5,11.9,5.9c0.8,0.8,1.5,1.7,2.1,2.6c0.6-0.8,1.2-1.5,1.8-2.2c1.9-2.1,4.1-3.6,6.7-4.8
		c0.6-0.2,1.1-0.5,1.7-0.7c2.1-0.7,4.4-1.2,6.7-1.3V72.4l-1.8-1c-0.6-0.4-8.2-4.8-22.1-9c1.1,3.1,2,6.3,2.6,9.6
		c0.8,4,1.2,8.1,1.2,12.3c0,15.5-5.4,29.7-14.4,40.9L204.6,136z M216.4,72.8c0.1,0,0.2,0.1,0.2,0.1c4.8,1.8,8.3,3.4,10.4,4.4v57.6
		c-0.3,0.2-0.6,0.2-1,0.4c-2.8,1.3-5.2,3.1-7.4,5.3l-0.1,0.1c-0.2-0.2-0.3-0.4-0.5-0.6c-3.1-3.2-7-5.3-11.3-6.2l-3.1-8.8l-0.2-0.4
		c8.6-11.3,13.7-25.4,13.7-40.7C217.3,80.2,217,76.4,216.4,72.8z"/>
	<path d="M195.5,229.8c-0.3,0-0.6-0.1-0.9-0.4c-0.3-0.4-0.6-1-0.6-1.7l-2,0.2c0.1,0.7,0.2,1.4,0.5,2c0.2,0.6,0.6,1,1.1,1.3
		c0.6,0.4,1.2,0.6,2.1,0.6c0.5,0,0.8-0.1,1.2-0.2c0.6-0.2,1.1-0.6,1.4-1c0.5-0.7,0.8-1.5,0.8-2.5c0-0.4-0.1-0.9-0.3-1.3
		c-0.1-0.2-0.2-0.4-0.3-0.6c-0.2-0.5-0.7-1-1.2-1.5c-0.2-0.2-0.5-0.5-1-0.9c-0.4-0.3-0.7-0.6-1-0.9c-0.6-0.6-0.8-1.3-0.8-2
		c0-0.4,0.1-0.7,0.2-1c0.2-0.3,0.5-0.5,0.9-0.5s0.6,0.1,0.8,0.3c0.2,0.3,0.4,0.8,0.5,1.3l2-0.4c-0.1-0.6-0.2-1.1-0.5-1.6
		c-0.2-0.5-0.6-0.8-1-1.1c-0.6-0.3-1.2-0.5-1.9-0.5c-0.8,0-1.4,0.2-2,0.6c-0.9,0.6-1.3,1.6-1.3,2.9c0,0.7,0.2,1.3,0.5,2
		c0.3,0.6,0.8,1.1,1.5,1.8c0.8,0.8,1.4,1.3,1.9,1.7c0.6,0.6,0.8,1.1,0.8,1.7c0,0.4-0.1,0.7-0.2,1
		C196.3,229.6,195.9,229.8,195.5,229.8z"/>
	<path d="M205.7,192c0,4.3,0,6.4,0.1,10.6c0,1.3,0.1,2.5,0.1,3.4c0.1,1.7,0.2,2.9,0.5,3.7c0.1,0.4,0.2,0.8,0.4,1.3
		c4.1,0.6,6.2,0.9,10.2,1.5c-1-2.9-1.1-5.1-1.1-8.6c0-4.3,0-6.4-0.1-10.7c0.2-5.7-1.2-12.4-6.7-15.3c5.2-2.3,6.7-8.3,6.5-13.5
		c0-2.1,0-3.3,0-5.5c0.2-9.2-5.2-16.7-15-16.1c-6.1-0.1-9.1-0.1-15.2-0.2c0.1,22,0.2,43.9,0.2,65.9c4,0.3,6.1,0.6,10.1,1
		c-0.1-9-0.1-18.1-0.2-27.2c1.4,0.1,2.1,0.2,3.5,0.2C203.7,183.2,205.7,185.8,205.7,192z M195.5,173.1c0-6.8-0.1-13.6-0.1-20.5
		c2,0.1,2.9,0.1,4.8,0.2c3.6,0.1,5.2,2.1,5.2,7.1c0,2.7,0,4,0,6.7c0,5.4-2.2,7-6,6.8C197.9,173.2,197.1,173.1,195.5,173.1z"/>
	<path d="M111.8,226.4h1.4l1.3,5.2h2.3l-1.6-6.1c0.7-0.7,1.1-1.5,1.1-2.5v-2c0-1-0.2-1.8-0.7-2.4c-0.6-0.6-1.4-1-2.5-1h-3.3v13.9
		h2.1v-5.1H111.8z M111.8,219.8h1.3c0.8,0,1.2,0.4,1.2,1.2v2.1c0,0.3-0.1,0.6-0.3,0.9c-0.2,0.2-0.6,0.3-0.9,0.3h-1.3
		C111.8,224.3,111.8,219.8,111.8,219.8z"/>
	<path d="M144.4,142.9c-10.4,0-20.8,0.1-31.2,0.2c0,3.8,0,5.6-0.1,9.4c4.2-0.1,6.3-0.1,10.5-0.2c-0.1,18.6-0.2,37.3-0.2,56
		c4-0.2,6.1-0.4,10.1-0.5c0-18.6,0.1-37,0.1-55.6c4.2,0,6.3-0.1,10.5-0.1C144.4,148.3,144.4,146.5,144.4,142.9z"/>
	<polygon points="186.4,231.7 186.4,219.8 188.6,219.8 188.6,217.7 182.1,217.7 182.1,219.8 184.4,219.8 184.4,231.7 	"/>
	<path d="M134.3,229.8c-0.3,0-0.6-0.1-0.9-0.4c-0.3-0.4-0.6-1-0.6-1.7l-2,0.2c0.1,0.7,0.2,1.4,0.5,2c0.2,0.6,0.6,1,1,1.3
		c0.6,0.4,1.2,0.6,2.1,0.6c0.5,0,0.9-0.1,1.2-0.2c0.6-0.2,1.1-0.6,1.4-1c0.6-0.7,0.8-1.5,0.8-2.5c0-0.4-0.1-0.9-0.3-1.3
		c-0.1-0.2-0.2-0.4-0.3-0.6c-0.3-0.5-0.7-1-1.2-1.5c-0.2-0.2-0.5-0.5-1-0.9c-0.4-0.3-0.7-0.6-1-0.9c-0.6-0.6-0.8-1.3-0.8-2
		c0-0.4,0.1-0.7,0.2-1c0.2-0.3,0.5-0.5,0.9-0.5s0.6,0.1,0.8,0.3c0.2,0.3,0.4,0.8,0.5,1.3l2-0.4c-0.1-0.6-0.2-1.1-0.5-1.6
		c-0.2-0.5-0.6-0.8-1-1.1c-0.6-0.3-1.2-0.5-1.9-0.5c-0.8,0-1.4,0.2-2,0.6c-0.9,0.6-1.3,1.6-1.3,2.9c0,0.7,0.2,1.3,0.5,2
		c0.3,0.6,0.8,1.1,1.5,1.8c0.8,0.8,1.4,1.3,1.8,1.7c0.6,0.6,0.8,1.1,0.8,1.7c0,0.4-0.1,0.7-0.2,1
		C135.1,229.6,134.8,229.8,134.3,229.8z"/>
	<polygon points="152.6,243.5 150,235.8 147.6,243.5 139.5,243.5 146.1,248.2 143.5,255.9 150,251.2 156.6,255.9 154.1,248.2 
		160.7,243.5 	"/>
	<path d="M178.6,192.7c-0.1-16.6-0.1-33.2-0.2-49.8c-3.8,0-5.7,0-9.5-0.1c0.1,16.6,0.1,33.4,0.1,50c0,4.8-2,6.2-5.2,6.1
		c-3.3-0.1-5.2-1.7-5.2-6.4c0-16.6,0-33.2-0.1-49.9c-4,0-6,0-10.1,0c0,16.4,0,32.7,0,49.2c-0.6,9.3,6.3,15.9,15.1,16.4
		C172.6,208.9,178.9,201.7,178.6,192.7z"/>
	<path d="M174,33.1l14.1,6.9c-0.4-0.3-0.8-0.7-1.2-1c-0.3-0.3-0.7-0.6-1-0.9c-0.1,0-0.1-0.1-0.2-0.1c-0.2-0.1-0.3-0.2-0.4-0.3
		c-0.3-0.2-0.6-0.5-1-0.7c-0.4-0.3-0.9-0.6-1.3-1c-0.3-0.2-0.7-0.5-1.1-0.7c-0.7-0.5-1.4-1-2.2-1.3c-0.4-0.2-0.7-0.5-1.1-0.6
		c-0.4-0.2-0.8-0.4-1.1-0.6c-0.4-0.2-0.8-0.4-1.1-0.6c-0.4-0.2-0.8-0.4-1.2-0.6c-0.8-0.4-1.6-0.7-2.4-1.1l0,0
		c-0.8-0.3-1.6-0.6-2.5-1l1.4,1.8C172.4,32.1,173.1,32.7,174,33.1z"/>
	<path d="M97.7,103.5l6.7-29.6l-1.8-6.7l-1.3-5.1L95,64.9c-0.6,1.5-1,3-1.4,4.6c-1.2,4.7-1.8,9.6-1.8,14.7c0,7.1,1.3,13.9,3.6,20.2
		L97.7,103.5z M100.1,63.7l2.9,10.5l-4.4,20.6l2.8-20.8L100.1,63.7z"/>
	<path d="M263,201.4l-0.1-39.2c0.2-13.2-5.8-23.7-15.8-28.2V65.7l-7.6-4.4c-1.1-0.6-11.3-6.5-29.7-11.6
		c-12.3-21.3-35-34.5-59.8-34.5s-47.4,13.2-59.7,34.5c-18.5,5.1-28.6,10.9-29.8,11.6L53,65.7v68c-8.2,3.4-14,10.9-15.6,20.2
		l-0.1,0.4l-0.3,5.5l0.2,36.5v0.2c0,2.1,0.2,4.3,0.6,6.3c0.2,7.5,2.9,14.3,7.5,19.1c4.1,4.3,9.4,6.5,15.3,6.6H62h0
		c1.3-0.1,2.6-0.2,4-0.6c5.2,7.1,12.2,13.6,21.6,20.3c20.2,14.5,59.1,34.7,60.7,35.5l1.7,1l1.7-0.9c1.7-0.9,40.5-21,60.7-35.5
		c9.5-6.8,16.5-13.3,21.7-20.5c2,0.5,3.9,0.7,5.8,0.7c5.9,0,11.3-2.3,15.5-6.6C260.5,217,263.2,209.3,263,201.4z M252.9,219.4
		c-3.4,3.6-7.8,5.4-12.8,5.4c-1.7,0-3.3-0.2-5-0.6c-0.8-0.2-1.6-0.4-2.3-0.7c-5.5,8.2-13.2,15.1-22.4,21.7
		c-20.2,14.5-60.2,35.3-60.2,35.3s-40-20.8-60.2-35.3c-9.2-6.6-16.8-13.6-22.4-21.6c-0.6,0.2-1.2,0.4-1.8,0.6
		c-1.7,0.4-3.4,0.6-5,0.6c-4.9,0-9.3-1.9-12.8-5.4c-4-4.1-6.3-10.3-6.3-16.8c-0.4-1.9-0.6-3.9-0.6-5.9v-0.2l-0.2-36.3l0.2-5.1
		l0.1-0.4c1.4-8.2,6.6-14.7,13.9-17.5l1.2-0.5h0.6V67.9l5.7-3.3C63.2,64.1,73.7,58,92.9,53c11.1-20.2,32.5-34,57.2-34
		s46.1,13.7,57.2,33.9c19.1,5.2,29.6,11.2,30.4,11.6l5.7,3.3v68.7c9.7,3.2,15.9,12.8,15.8,25.5l0.1,39.2
		C259.4,208.3,257,215.1,252.9,219.4z"/>
	<path d="M251.9,162.1c0.2-9.7-4.7-19.1-15.3-19.3c-9.7-0.2-15.8,8.1-15.2,17.4c0.1,12.1,0.2,24.3,0.2,36.4
		c-0.1,9.9,5.8,18.2,15.3,20.5c10,2.5,15.4-6.7,15.1-15.5C251.9,188.4,251.9,175.3,251.9,162.1z M236.8,206.8
		c-3.2-0.6-5.2-2.8-5.2-8c-0.1-12.9-0.1-25.8-0.2-38.7c0-5.2,2-7,5.2-6.8s5.2,2.1,5.2,7.5c0.1,13.2,0.1,26.5,0.2,39.8
		C242,205.8,240,207.3,236.8,206.8z"/>
	<path d="M200.3,67.9c-1.9-2.9-3.8-4.8-5.2-6.2c-0.6-0.6-1.3-0.8-2.2-0.8l-9.4,0.6c-1.3,0.1-2.5,1-2.7,2.4c0,0.1,0,0.2-0.1,0.2
		c-1.7,8-4.6,16.1-9,24.6c-0.5,0.9-0.5,1.9,0,2.8l7.5,13.8c0.6,1.1,1.8,1.7,3.1,1.5c6.1-1,12.5-2.3,17.9-4.2c0.9-0.3,1.5-1,1.8-1.8
		l5-13.8c0.2-0.5,0.2-1,0.2-1.5C205.7,77.7,203,71.9,200.3,67.9z"/>
	<path d="M195.5,55.7c0.3,1.1,1,2.1,1.9,3c0.1,0.1,0.1,0.1,0.2,0.2c2.3,2.1,5.4,5.4,8.1,10.5c0.6,1,1,2.1,1.5,3.2
		c-0.2-1-0.4-2-0.7-2.9c-0.9-3.3-2-6.5-3.4-9.5c-1.5-3.3-3.3-6.4-5.4-9.4c-0.3-0.4-0.6-0.9-1-1.3c-0.1-0.1-0.1-0.2-0.2-0.2
		c-0.2-0.4-0.5-0.7-0.7-1.1c-0.2-0.3-0.5-0.6-0.7-0.9c-0.2-0.2-0.5-0.6-0.7-0.8c-0.5-0.6-1-1.1-1.5-1.7c-0.5-0.5-1-1-1.4-1.5
		l2.1,6.7L195.5,55.7z"/>
	<path d="M104.5,55.8l6.3-6.7l3.3-3.5c0.5-0.6,1-1.2,1.3-1.8c1.5-2.9,4.4-7.2,8-11.4c-8.4,4.4-15.5,10.6-20.9,18.3
		c-2.1,2.9-3.8,5.9-5.3,9.2l4.6-2C102.7,57.4,103.7,56.7,104.5,55.8z"/>
	<path d="M122.4,42.5l6.9,4.2l0.7,0.4c0.4,0.2,0.8,0.2,1.3,0.1c0.9-0.3,1.7-0.6,2.6-0.9c7-2.3,14.1-3.9,18.4-4.8
		c3.4-0.6,7.2-1.3,10.3-1.7c0.4-0.1,0.7-0.2,1-0.6l4.2-5.4c0.4-0.6,0.4-1.3,0-1.8l-3.3-4.3c-0.2-0.1-0.5-0.2-0.7-0.3
		s-0.6-0.2-0.8-0.2c0.2,0.1,0.5,0.1,0.6,0.2c-1.6-0.4-3.3-0.7-4.8-1c-0.1,0-0.2,0-0.3-0.1c-0.4-0.1-0.8-0.1-1.2-0.2
		c-0.2,0-0.5-0.1-0.7-0.1s-0.6-0.1-0.9-0.1c-0.2,0-0.5-0.1-0.8-0.1c-0.4,0-0.7-0.1-1.1-0.1c-0.2,0-0.2,0-0.4,0c-0.5,0-1-0.1-1.4-0.1
		c-0.6,0-1.3,0-2,0c-0.5,0-1,0-1.5,0s-1,0-1.5,0.1c-0.5,0-1,0.1-1.4,0.1h-0.1c-0.5,0-1,0.1-1.5,0.2s-1,0.1-1.4,0.2
		c-0.5,0.1-0.9,0.1-1.3,0.2c-0.6,0.1-1.1,0.2-1.7,0.3c-0.3,0.1-0.6,0.1-1,0.2c-1.3,0.2-2.7,0.6-4,1c-0.2,0.1-0.4,0.1-0.6,0.2
		c-0.3,0.1-0.7,0.2-1,0.3l0,0c-0.2,0.1-0.3,0.2-0.5,0.2c-4,3.4-7.7,8-10.3,11.7C121.4,41.2,121.7,42.1,122.4,42.5z"/>
	<path d="M163.6,27.4L163.6,27.4c1.3,0.2,2.4,0.6,3.5,1C165.9,28.1,164.8,27.8,163.6,27.4z"/>
	<path d="M198.1,117.3c0.5-0.7,1-1.4,1.4-2.1c0.2-0.2,0.2-0.5,0.2-0.7l0.5-5.5c0.1-1.1-1-2-2.1-1.7c-5,1.4-10.5,2.5-15.8,3.3h13.4
		L198.1,117.3z"/>
	<path d="M57.6,143.8c-5,1.9-8.4,6.5-9.4,12l-0.2,4.4c0.1,12,0.1,24.1,0.2,36.2v0.2c-0.1,7.8,3.6,14.7,9.9,18.3
		c0-8.8,0.1-17.6,0.1-26.4c0-0.5,0-1,0-1.5c4.2-0.6,6.7-1,10.4-1.3c0.8-0.1,1.7-0.2,2.5-0.3c0-4,0-6.1,0.1-10.1
		c-1,0.1-1.8,0.2-2.6,0.2c-3.6,0.3-6.1,0.6-10.3,1c0-6.3,0-12.8,0.1-19.1c0-1,0-2.1,0-3.1c0.6,0,1-0.1,1.6-0.1c2-0.1,4-0.2,6-0.2
		c3-0.2,5.9-0.2,9-0.4c0-1.8,0-3.3,0-4.7c0-1.7,0-3.3,0-5.4c-2.4,0.1-4.7,0.1-7.1,0.2C64.4,143.7,61,143.7,57.6,143.8z"/>
	<path d="M215.5,219.2c-0.1,0.1-0.2,0.2-0.2,0.2c-0.1,0.1-0.2,0.2-0.2,0.2c-3.7,4.1-8.4,8.2-14.2,12.3c-14,10-39,23.8-50.8,30
		c-0.1,0-0.1-0.1-0.2-0.1c-11.8-6.3-36.7-20-50.6-30c-5.7-4.1-10.3-8.1-14-12.1c-3.2,0.4-6.5,1-9.6,1.6c4.6,5.9,10.8,11.7,18.7,17.4
		c16,11.5,45.4,27.4,55.7,32.7c10.2-5.4,39.6-21.2,55.7-32.7c8.1-5.8,14.3-11.5,18.9-17.6c0.1-0.1,0.2-0.2,0.2-0.2
		c0.1-0.1,0.2-0.2,0.2-0.2l-9.1-1.4C215.8,219.2,215.7,219.2,215.5,219.2z"/>
	<path d="M158.2,221c0-1-0.2-1.8-0.7-2.4c-0.6-0.6-1.4-1-2.5-1h-3.3v13.9h2.1v-5.2h1.4l1.3,5.2h2.3l-1.6-6.1
		c0.7-0.7,1.1-1.5,1.1-2.5C158.2,222.9,158.2,221,158.2,221z M156.1,223.1c0,0.3-0.1,0.6-0.3,0.9c-0.2,0.2-0.6,0.3-0.9,0.3h-1.3
		v-4.4h1.3c0.8,0,1.2,0.4,1.2,1.2V223.1z"/>
	<path d="M73.1,136.2l9.1-0.2l0,0c2.3,0,4.2-0.1,7.1-0.1l7.4-0.1l0,0h1.5c-1-1.7-1.2-3.3-1.2-4.4v-9.3c-7.5-10.7-12-23.8-12-38
		c0-4.2,0.4-8.3,1.2-12.3c0.6-3.3,1.5-6.5,2.6-9.6c-14,4.4-21.6,8.7-22.2,9l-1.8,1v64c1,0,2.1-0.1,3-0.1L73.1,136.2z M73.1,77.3
		c2.1-1,5.5-2.6,10.4-4.4h0.1c-0.6,3.6-1,7.4-1,11.2c0,14,4.3,27,11.6,37.7v9.6c0,0.4,0,1.2,0.2,2.1l-5.2,0.1
		c-1.8,0-3.3,0.1-4.7,0.1l0,0L73,133.9L73.1,77.3L73.1,77.3z"/>
	<path d="M175.5,231.8c1,0,1.7-0.3,2.4-1c0.6-0.6,1-1.4,1-2.4v-7.6c0-1-0.3-1.7-1-2.4c-0.6-0.6-1.4-1-2.4-1c-0.9,0-1.7,0.3-2.3,1
		c-0.6,0.6-1,1.4-1,2.4v7.6c0,1,0.3,1.7,1,2.4C173.8,231.5,174.5,231.8,175.5,231.8z M174.2,220.9c0-0.3,0.1-0.6,0.4-0.9
		c0.2-0.2,0.6-0.3,0.9-0.3s0.6,0.1,0.9,0.3c0.2,0.2,0.3,0.6,0.3,0.9v7.6c0,0.3-0.1,0.6-0.3,0.9c-0.2,0.2-0.6,0.3-0.9,0.3
		s-0.6-0.1-0.9-0.3c-0.2-0.2-0.4-0.6-0.4-0.9V220.9z"/>
	<path d="M182.3,132.6h8.7l1.2,3.7h7.1l-7.2-20.7h-10.4l-7.2,20.7h6.5L182.3,132.6z M186.6,119.3h0.2l3.3,10.5h-6.8L186.6,119.3z"/>
	<path d="M56.8,136.8L56.8,136.8c0.1,0,0.1,0,0.2,0H56.8z"/>
</g>
</svg>
