<?xml version="1.0" encoding="utf-8"?>
<!-- Generator: Adobe Illustrator 24.3.0, SVG Export Plug-In . SVG Version: 6.00 Build 0)  -->
<svg version="1.1" id="Capa_1" xmlns="http://www.w3.org/2000/svg" xmlns:xlink="http://www.w3.org/1999/xlink" x="0px" y="0px"
	 viewBox="0 0 658 658" style="enable-background:new 0 0 658 658;" xml:space="preserve">
<style type="text/css">
	.st0{fill:#FFFFFF;}
</style>
<path class="st0" d="M394.5,651.1c-8.6,0-16.2-6-18.1-14.7c-2.2-10,4.2-19.9,14.2-22c106.4-22.9,193-105.7,220.7-210.9
	c2.6-9.9,12.7-15.8,22.7-13.2c9.9,2.6,15.8,12.7,13.2,22.7c-15.4,58.5-46.7,111.7-90.7,153.8c-44.1,42.2-98.7,71.2-158.1,84
	C397.1,650.9,395.8,651.1,394.5,651.1z M263.5,651.1c-1.3,0-2.6-0.1-3.9-0.4c-59.3-12.8-114-41.8-158.1-84
	c-43.9-42.1-75.3-95.3-90.7-153.8c-2.6-9.9,3.3-20.1,13.2-22.7s20.1,3.3,22.7,13.2c27.6,105.3,114.3,188.1,220.6,211
	c10,2.2,16.4,12,14.2,22C279.7,645.1,272,651.1,263.5,651.1z M629.2,268.4c-8.2,0-15.7-5.5-17.9-13.8
	C583.7,149.3,497,66.5,390.7,43.6c-10-2.2-16.4-12-14.2-22c2.2-10,12-16.4,22-14.2c59.3,12.8,114,41.8,158.1,84
	c43.9,42.1,75.3,95.3,90.7,153.8c2.6,9.9-3.3,20.1-13.2,22.7C632.4,268.2,630.8,268.4,629.2,268.4z M28.8,268.4
	c-1.6,0-3.1-0.2-4.7-0.6c-9.9-2.6-15.8-12.7-13.2-22.7c15.4-58.5,46.7-111.7,90.7-153.8c44.1-42.2,98.7-71.2,158.1-84
	c10-2.2,19.9,4.2,22,14.2c2.2,10-4.2,19.9-14.2,22C161,66.5,74.3,149.3,46.7,254.6C44.5,262.9,37,268.4,28.8,268.4z M329,658
	c-4.8,0-9.6-0.1-14.4-0.3c-10.2-0.5-18.2-9.1-17.7-19.4c0.5-10.2,9.2-18.2,19.4-17.7c8.5,0.4,17.1,0.4,25.5,0
	c10.2-0.5,18.9,7.5,19.4,17.7s-7.5,18.9-17.7,19.4C338.6,657.9,333.8,658,329,658z M639.2,361.2c-0.3,0-0.6,0-0.8,0
	c-10.2-0.5-18.2-9.1-17.7-19.4c0.4-8.5,0.4-17.1,0-25.5c-0.5-10.2,7.5-18.9,17.7-19.4s18.9,7.5,19.4,17.7c0.4,9.6,0.4,19.3,0,28.9
	C657.2,353.4,649,361.2,639.2,361.2z M18.8,361.2c-9.9,0-18.1-7.8-18.5-17.7c-0.4-9.6-0.4-19.3,0-28.9c0.5-10.2,9.1-18.2,19.4-17.7
	c10.2,0.5,18.2,9.1,17.7,19.4c-0.4,8.5-0.4,17.1,0,25.5c0.5,10.2-7.5,18.9-17.7,19.4C19.4,361.2,19.1,361.2,18.8,361.2z M342.6,37.4
	c-0.3,0-0.6,0-0.8,0c-8.5-0.4-17.1-0.4-25.5,0c-10.2,0.5-18.9-7.5-19.4-17.7s7.5-18.9,17.7-19.4c9.6-0.4,19.3-0.4,28.9,0
	c10.2,0.5,18.2,9.1,17.7,19.4C360.7,29.6,352.5,37.4,342.6,37.4z"/>
</svg>
