<?xml version="1.0" encoding="utf-8"?>
<!-- Generator: Adobe Illustrator 23.0.0, SVG Export Plug-In . SVG Version: 6.00 Build 0)  -->
<svg version="1.1" id="Capa_1" xmlns="http://www.w3.org/2000/svg" xmlns:xlink="http://www.w3.org/1999/xlink" x="0px" y="0px"
	 viewBox="0 0 1920 559.5" style="enable-background:new 0 0 1920 559.5;" xml:space="preserve">
<style type="text/css">
	.st0{clip-path:url(#SVGID_2_);}
	.st1{fill:none;}
	.st2{clip-path:url(#SVGID_4_);}
	.st3{fill:#FFA000;}
	.st4{opacity:0.12;fill:url(#SVGID_5_);enable-background:new    ;}
	.st5{fill:#F57C00;}
	.st6{opacity:0.2;fill:url(#SVGID_6_);enable-background:new    ;}
	.st7{fill:#FFCA28;}
	.st8{fill:#FFFFFF;fill-opacity:0.2;}
	.st9{opacity:0.2;fill:#A52714;enable-background:new    ;}
	.st10{fill:url(#SVGID_7_);}
	.st11{fill:#FFFFFF;}
	.st12{fill:#3CA160;}
	.st13{fill:url(#SVGID_8_);}
	.st14{fill:#31C5F0;}
	.st15{fill:#CF659A;}
	.st16{fill:#00D8FF;}
	.st17{opacity:0.5;fill-rule:evenodd;clip-rule:evenodd;fill:#FFFFFF;}
	.st18{fill-rule:evenodd;clip-rule:evenodd;fill:#FFFFFF;}
	.st19{fill-rule:evenodd;clip-rule:evenodd;fill:#A6A385;}
	.st20{fill-rule:evenodd;clip-rule:evenodd;fill:#499D4A;}
	.st21{fill-rule:evenodd;clip-rule:evenodd;fill:#58AA50;}
	.st22{fill:#8448C1;}
	.st23{fill:#37C4D3;}
	.st24{fill:#FF9B00;}
	.st25{fill:#261300;}
	.st26{fill:#FF7C00;}
	.st27{fill:url(#SVGID_9_);}
</style>
<g>
	<rect y="-0.5" width="1920" height="560"/>
</g>
<g>
	<defs>
		<rect id="SVGID_1_" y="-0.5" width="1920" height="560"/>
	</defs>
	<clipPath id="SVGID_2_">
		<use xlink:href="#SVGID_1_"  style="overflow:visible;"/>
	</clipPath>
	<g id="Layer_1_1_" class="st0">
		<g>
			<g id="XMLID_1_">
				
					<rect id="XMLID_2_" x="59.5" y="422.7" transform="matrix(0.8856 -0.4645 0.4645 0.8856 -213.4569 115.5845)" class="st1" width="136.7" height="136.7"/>
				<g>
					<g>
						<defs>
							<path id="SVGID_3_" d="M141.7,444.7c-1-1.3-2.7-1.5-4-0.6c-0.5,0.3-0.8,0.8-1,1.4l-6.2,20l-20.6-14.2c-1.3-0.9-3-0.6-4,0.7
								c-0.3,0.5-0.5,1.1-0.5,1.6l0,13.7l-28-19c-1.3-0.9-3.1-0.5-3.9,0.8c-0.5,0.7-0.6,1.7-0.4,2.5l32.2,94.6l47.3,1.3
								c2.9,0.1,5.8-1.4,7.4-3.9l26.1-39.8L141.7,444.7z"/>
						</defs>
						<clipPath id="SVGID_4_">
							<use xlink:href="#SVGID_3_"  style="overflow:visible;"/>
						</clipPath>
						<g class="st2">
							<path class="st3" d="M105.4,546.3l-32.2-94.6c-0.5-1.5,0.3-3.1,1.8-3.6c0.8-0.3,1.8-0.1,2.5,0.4l28,19l0-13.7
								c0-1.6,1.3-2.8,2.8-2.9c0.6,0,1.2,0.2,1.6,0.5l76.1,52.5L105.4,546.3z"/>
							
								<linearGradient id="SVGID_5_" gradientUnits="userSpaceOnUse" x1="54.5877" y1="875.0439" x2="48.8906" y2="872.0671" gradientTransform="matrix(0.8856 -0.4645 0.4645 0.8856 -349.4271 -241.4745)">
								<stop  offset="0" style="stop-color:#A52714"/>
								<stop  offset="0.4" style="stop-color:#A52714;stop-opacity:0.5"/>
								<stop  offset="0.8" style="stop-color:#A52714;stop-opacity:0"/>
							</linearGradient>
							<path class="st4" d="M105.4,432.9l-69.8,29.4l63.5,121.1l6.3-37.1L105.4,432.9z"/>
							<path class="st5" d="M134.7,487.4l-29.3-20.1l-0.1,78.9L134.7,487.4z"/>
							
								<linearGradient id="SVGID_6_" gradientUnits="userSpaceOnUse" x1="78.8018" y1="866.7729" x2="76.2523" y2="864.2234" gradientTransform="matrix(0.8856 -0.4645 0.4645 0.8856 -349.4271 -241.4745)">
								<stop  offset="0" style="stop-color:#A52714;stop-opacity:0.8"/>
								<stop  offset="0.5" style="stop-color:#A52714;stop-opacity:0.21"/>
								<stop  offset="1" style="stop-color:#A52714;stop-opacity:0"/>
							</linearGradient>
							<path class="st6" d="M35.6,462.2l121.1-63.5l63.5,121.1L99.1,583.3L35.6,462.2z"/>
							<path class="st7" d="M186.1,503.9l-44.4-59.3c-1-1.3-2.7-1.5-4-0.6c-0.5,0.3-0.8,0.8-1,1.4l-31.3,100.8l47.3,1.3
								c2.9,0.1,5.8-1.4,7.4-3.9L186.1,503.9z"/>
							<path class="st8" d="M141.7,444.7c-1-1.3-2.7-1.5-4-0.6c-0.5,0.3-0.8,0.8-1,1.4l-6.2,20l-20.6-14.2c-1.3-0.9-3-0.6-4,0.7
								c-0.3,0.5-0.5,1.1-0.5,1.6l0,13.7l-28-19c-1.3-0.9-3.1-0.5-3.9,0.8c-0.5,0.7-0.6,1.7-0.4,2.5l32.2,94.6l-0.1,0l0.1,0l0.5,0
								l24.9-80.2l6.2-20c0.5-1.5,2.1-2.4,3.6-1.9c0.6,0.2,1.1,0.5,1.4,1l44,58.7l0.1-0.1L141.7,444.7z M105.4,546.1l-31.9-93.8
								c-0.5-1.5,0.3-3.1,1.8-3.6c0.8-0.3,1.8-0.1,2.5,0.4l28,19l0-13.7c0-1.6,1.3-2.8,2.8-2.9c0.6,0,1.2,0.2,1.6,0.5l20.1,13.9
								L105.4,546.1z"/>
							<path class="st9" d="M159.7,543.1c-1.6,2.5-4.4,3.9-7.4,3.9l-47.2-1.3l0.2,0.6l47.3,1.3c2.9,0.1,5.8-1.4,7.4-3.9l26.1-39.8
								l-0.4-0.5L159.7,543.1z"/>
							
								<linearGradient id="SVGID_7_" gradientUnits="userSpaceOnUse" x1="-197.6605" y1="-476.6011" x2="-162.0037" y2="-512.2579" gradientTransform="matrix(2.3645 -1.2403 -1.2403 -2.3645 -57.2864 -894.6758)">
								<stop  offset="0" style="stop-color:#FFFFFF;stop-opacity:0.1"/>
								<stop  offset="1" style="stop-color:#FFFFFF;stop-opacity:0"/>
							</linearGradient>
							<path class="st10" d="M141.7,444.7c-1-1.3-2.7-1.5-4-0.6c-0.5,0.3-0.8,0.8-1,1.4l-6.2,20l-20.6-14.2c-1.3-0.9-3-0.6-4,0.7
								c-0.3,0.5-0.5,1.1-0.5,1.6l0,13.7l-28-19c-1.3-0.9-3.1-0.5-3.9,0.8c-0.5,0.7-0.6,1.7-0.4,2.5l32.2,94.6l47.3,1.3
								c2.9,0.1,5.8-1.4,7.4-3.9l26.1-39.8L141.7,444.7z"/>
						</g>
					</g>
				</g>
			</g>
			<g>
				<path class="st11" d="M225.1,480.2l-7.4,3.9l-30.3-57.8l33.7-17.7l3.7,7.1l-26.3,13.8l10,19l23.8-12.5l3.6,6.9l-23.7,12.4
					L225.1,480.2L225.1,480.2z"/>
				<path class="st11" d="M238.3,410.3c-0.5,1.5-1.5,2.7-2.9,3.5s-3,0.9-4.5,0.4s-2.7-1.5-3.5-2.9s-0.9-3-0.4-4.5s1.5-2.7,2.9-3.5
					s3-0.9,4.5-0.4c1.5,0.5,2.7,1.5,3.5,2.9C238.6,407.2,238.7,408.7,238.3,410.3z M264.2,459.7l-7.4,3.9L236,424.1l7.4-3.9
					L264.2,459.7z"/>
				<path class="st11" d="M279.7,451.6l-7.4,3.9l-20.7-39.5l7.1-3.7l3.4,6.4l0.3-0.2c-0.4-2.5,0.2-5.1,1.9-7.7
					c1.6-2.6,3.5-4.5,5.7-5.7s4.2-1.8,6-2l0.8,8.4c-1.1,0.1-2.6,0.6-4.3,1.5c-2.7,1.4-4.5,3.7-5.4,7c-1,3.2-0.5,6.5,1.3,9.9
					L279.7,451.6z"/>
				<path class="st11" d="M315.4,434.6c-6,3.1-11.9,3.7-17.7,1.7c-5.8-2-10.3-6.1-13.5-12.1c-3-5.7-3.8-11.7-2.4-17.7
					c1.5-6.1,5-10.6,10.7-13.6c5.9-3.1,11.5-3.6,17.1-1.6c5.5,2,10,6.2,13.3,12.5l0.7,1.4l-31.2,16.4c2.3,3.9,5.3,6.3,8.9,7.4
					c3.7,1,7.1,0.7,10.4-1c5.3-2.8,7.8-7,7.3-12.5l8.1-0.7c0.4,3.8-0.5,7.4-2.3,11C322.8,429.3,319.7,432.3,315.4,434.6z
					 M312.5,403.1c-1.4-2.2-3.5-3.8-6.5-4.8c-3-1-6.4-0.6-10.1,1.4c-2.8,1.5-4.6,3.6-5.8,6.3c-1.1,2.8-1.3,5.8-0.5,9.1L312.5,403.1
					L312.5,403.1z"/>
				<path class="st11" d="M360,411.1c-3,1.6-6.1,2.4-9.2,2.3c-3.1,0-5.7-0.7-7.9-2l-0.3,0.2l2.9,5.5l-7.1,3.7L308.1,363l7.4-3.9
					l9.6,18.2l2.6,5.7l0.3-0.2c0.2-2.6,1.1-5.1,2.8-7.7c1.7-2.5,4.1-4.6,7.1-6.2c5.1-2.7,10.6-3,16.4-0.9s10.3,6.1,13.4,12.1
					c3.1,6,3.9,11.9,2.3,17.9C368.5,404.1,365.1,408.5,360,411.1z M355.2,405c3.5-1.8,5.7-4.7,6.8-8.6c1.1-3.9,0.5-8-1.7-12.3
					c-2.2-4.3-5.3-7.1-9.1-8.4c-3.8-1.3-7.5-1.1-10.9,0.8s-5.8,4.7-6.9,8.5c-1,3.8-0.5,8,1.8,12.3c2.3,4.4,5.3,7.2,9.1,8.5
					C348.1,407.1,351.7,406.8,355.2,405z"/>
				<path class="st11" d="M397.3,391.6c-4.2,2.2-8.3,2.8-12.5,1.9c-4.1-0.9-7.2-3.4-9.3-7.4c-2.2-4.3-2.4-8.6-0.3-12.8
					c2.1-4.2,5.5-7.6,10.4-10.1c4.4-2.3,8.4-3.3,12-3.2l-0.6-1.1c-1.5-2.9-3.8-4.7-6.6-5.4c-2.9-0.7-5.8-0.3-8.7,1.2
					c-2.1,1.1-3.8,2.7-5.1,4.6c-1.2,1.9-1.7,4-1.4,6.1l-8.3,0.7c-0.3-2.9,0.3-6,2-9.4c1.7-3.4,4.7-6.3,9.1-8.6
					c5-2.6,10-3.4,14.9-2.2c4.9,1.2,8.7,4.5,11.5,9.9l12.6,24l-7.1,3.7l-2.9-5.5l-0.3,0.2C406.1,384.1,403,388.6,397.3,391.6z
					 M394.9,384.2c3.1-1.6,5.3-4.2,6.5-7.8c1.3-3.6,1.2-7-0.5-10.1c-3-0.6-6.6,0.2-10.8,2.4c-3.6,1.9-5.9,4.1-6.9,6.6
					c-1,2.5-1,4.9,0.1,6.9c1,2,2.6,3,4.9,3.3C390.6,385.7,392.8,385.3,394.9,384.2z"/>
				<path class="st11" d="M438.3,370.1c-4.4,2.3-8.6,3.2-12.6,2.5c-4-0.6-7.5-2.2-10.5-4.8l5.2-6.2c4.7,3.9,9.6,4.5,14.6,1.8
					c2.3-1.2,4-2.7,4.9-4.5c0.9-1.8,1-3.6,0.1-5.2c-1.4-2.6-4.1-3.4-8.2-2.4l-9,2.2c-2.9,0.7-5.9,0.7-9.1,0.1
					c-3.2-0.6-5.6-2.4-7.2-5.5c-1.8-3.5-1.7-7.1,0.2-11c1.9-3.8,5-6.8,9.3-9.1c3.5-1.8,7.1-2.7,10.6-2.5c3.6,0.1,6.7,1.4,9.4,3.7
					l-5,6c-3.3-2.7-7.2-2.9-11.8-0.5c-2.2,1.2-3.8,2.6-4.8,4.3c-1,1.7-1.1,3.3-0.3,4.9c1.2,2.3,3.8,2.9,7.6,1.9l8.8-2.3
					c4.2-1.1,7.7-1,10.6,0.1c2.9,1.2,5,3.1,6.4,5.7c1.9,3.5,2,7.3,0.3,11.2C446.1,364.6,443,367.6,438.3,370.1z"/>
				<path class="st11" d="M477.1,349.7c-6,3.1-11.9,3.7-17.7,1.7c-5.8-2-10.3-6.1-13.5-12.1c-3-5.7-3.8-11.7-2.4-17.7
					c1.5-6.1,5-10.6,10.7-13.6c5.9-3.1,11.5-3.6,17.1-1.6s10,6.2,13.3,12.5l0.7,1.4L454,336.7c2.3,3.9,5.3,6.3,8.9,7.4
					c3.7,1,7.1,0.7,10.4-1c5.3-2.8,7.8-7,7.3-12.5l8.1-0.7c0.4,3.8-0.5,7.4-2.3,11S481.4,347.5,477.1,349.7z M474.2,318.3
					c-1.4-2.2-3.5-3.8-6.5-4.8c-3-1-6.4-0.6-10.1,1.4c-2.8,1.5-4.6,3.6-5.8,6.3c-1.1,2.8-1.3,5.8-0.5,9.1L474.2,318.3L474.2,318.3z"
					/>
			</g>
		</g>
	</g>
	<g class="st0">
		<path class="st11" d="M1846.1,70.6c9.8,10.2,19.7,20.5,29.8,30.8c2.6,2.7,3.6,5.7,2.4,9.5c-17.5,57.5-35.1,115-52.6,172.5
			c-1.1,3.5-3.2,5.5-6.9,6.3c-23.4,5.4-46.7,10.9-69.6,16.1c-3.3,0.9-6.1,0-8.4-2.5c-16.4-17.6-32.7-35.1-49.1-52.7
			c-2.3-2.6-3-5.1-2.1-8.2c7-23,14-46,21-69c1-3.1,3.1-5.1,6.4-6c23.4-5.4,47.1-10.8,70.4-16.2c3.3-0.9,6,0.3,8,2.4
			c3.7,4.2,7.8,8.1,11.5,12.3c2.3,2.6,4.3,2.1,5.4-1.4c9.2-30.3,18.5-60.6,27.7-90.9c0.6-2.1,1.5-3.7,3.9-4.1
			C1844.4,70,1845.4,70.4,1846.1,70.6z M1790.1,235.5c1.2-3.8,2.3-7.7,3.5-11.5c0.3-1,0.3-2.2-0.6-2.9c-5.5-5.9-10.9-11.7-16.4-17.6
			c-0.6-0.6-2-1-2.8-0.8c-7.8,1.8-15.6,3.6-23.4,5.4c-1.3,0.4-1.8,1-2.2,2.4c-2.3,7.7-4.6,15-6.9,22.6c-0.2,0.7,0.1,2.3,0.6,2.9
			c5.5,5.9,10.9,11.7,16.4,17.6c0.8,1,1.5,1.2,2.8,0.8c7.8-1.8,15.2-3.7,22.9-5.2c1.3-0.4,2.2-0.9,2.2-2.4
			C1787.9,242.8,1788.9,239.4,1790.1,235.5z"/>
		<path class="st11" d="M1380.3,68.3c1.9-2.5,4.4-3.2,6.9-4c22.5-5,45-10.3,67.6-15.6c4.1-1,7.3-0.1,10.1,3.1
			c16.1,17.1,32.1,34.5,48.2,51.6c2.6,2.7,3.3,5.6,2.2,9c-8.6,28.2-17.3,56.8-25.9,85c-0.8,2.8-1.6,5.2-2.4,8c-1,3.1-4.3,4-6.5,1.4
			c-10.1-10.7-19.9-20.9-29.6-31.5c-1.7-2-2.5-4.2-1.7-7c0.2-0.7,0.5-1.7,0.7-2.4c4.1-13.6,8.4-27.5,12.5-41.1
			c1.1-3.5,0.4-6.3-2.2-9c-4-4.3-7.7-8.4-11.7-12.7c-2.4-2.2-4.8-3-8-2.4c-5.7,1.3-11.5,2.6-17.2,3.9c-3.2,0.5-5.3,2.6-6.3,5.7
			c-4.4,14.3-8.6,28.2-13,42.5c-1.1,3.5-3.2,5.5-6.9,6.3c-13.5,3.1-27,6.2-40.4,9c-3.7,0.8-5.2-0.4-6-4.1
			C1360.8,132.4,1370.6,100.3,1380.3,68.3z"/>
		<path class="st11" d="M2006.4,283.2c-1.9,2.5-4.8,3.1-7.6,3.8c-13.1,2.9-25.9,6.2-38.9,9.1c-0.8,0.1-2.1,0.5-3.1,0.2
			c-2.1-0.6-3-2.8-2.3-4.9c1.6-5.2,3.3-10.8,4.9-16c0.6-2.1,0.4-3.7-1.3-5.7c-5-4.9-9.8-10.2-14.3-15.4c-1.4-1.6-2.8-2-4.9-1.5
			c-7,1.7-14,3.4-20.9,4.7c-2.1,0.5-3.1,1.3-3.7,3.4c-2.1,7-4.2,13.9-6.4,20.9c-0.6,2.1,0.1,3.5,1.2,4.9
			c15.2,16.4,30.8,32.6,46,49.1c1.2,1.1,2.6,2.7,3.8,3.8c2.3,2.6,1.3,5.7-2,6.6c-14.2,2.9-28.2,6.3-42.4,9.2
			c-3.2,0.5-5.5-0.5-7.6-2.7c-12.1-12.8-24.2-25.6-36-38c-4.3-4.7-8.6-9.1-12.9-13.8c-2.4-2.2-3-5.1-2.1-8.2c7-23,14-46,21.1-69.3
			c1-3.1,3.1-5.1,6.3-5.7c23.4-5.4,47.1-10.8,70.4-16.2c3.3-0.9,6,0.3,8,2.4c16.4,17.6,32.7,35.1,49.1,52.7c1.4,1.6,2.3,3.7,2.5,5.7
			C2010.7,268.9,2008.5,276.2,2006.4,283.2z"/>
		<path class="st12" d="M1669.8,198.1c-3.4,11.1-6.8,22.3-10.2,33.4c-1.2,3.8-3.4,6.2-7.4,6.9c-22.9,5.2-45.5,10.5-68.4,15.7
			c-3.7,0.8-6.8-0.2-9.4-2.9c-16.1-17.1-32.1-34.5-48.2-51.6c-2.6-2.7-2.9-5.5-1.8-8.9c6.9-22.6,13.8-45.3,20.7-67.9
			c1.1-3.5,3.2-5.5,6.9-6.3c20.5-4.8,41.4-9.5,61.9-14.3c2.5-0.8,4.9-1.2,7.4-1.9c3.3-0.9,6,0.3,8,2.4
			c16.4,17.6,32.7,35.1,49.1,52.7c2.3,2.6,2.6,5.3,1.6,8.5C1676.8,175.1,1673.3,186.6,1669.8,198.1z"/>
		<path class="st12" d="M1947.3,281.9c-0.6,2.1-1.3,4.2-1.9,6.3c-0.2,0.7-1.1,1.2-1.6,1.4c-4.1,1-8.2,2.1-12.7,3
			c-0.8,0.1-1.8-0.2-2.4-0.7c-2.8-3.2-6-6.4-8.9-9.6c-0.6-0.6-0.6-1.7-0.5-2.1c1.3-4.2,2.5-8.4,3.8-12.5c0.2-0.7,1.2-1.5,1.7-1.8
			c4.1-1,8.2-2.1,12.3-2.7c0.8-0.1,2.2,0.3,2.8,0.8c3,2.8,5.8,6,8.6,9.1c0.8,1,1.1,1.5,0.6,2.9C1948.1,278,1948,279.8,1947.3,281.9z
			"/>
		<g>
			<path class="st12" d="M1611.9,423c-6.1-4.9-10.7-11.2-16.2-16.8c-1.2-1.1-2.3-2.6-3.4-3.7c-0.2-0.5-0.4-1.3-0.6-1.7
				c0.5-0.2,0.9-0.5,1.7-0.6c3.2-0.5,6-0.8,9.1-1c0.8-0.1,1.8,0.2,2.4,0.7c3.8,3.8,7.5,8,10.8,12.1c0.8,1,1.9,1.3,3.5,1.1
				c21.8-5.2,43.9-10.2,65.5-15.1c1.6-0.3,1.9-1.3,2.3-2.7c6.3-20.6,12.5-41.1,18.8-61.7c0.2-0.7,0.4-1.4,0.6-2.1
				c0.3-1,0.3-2.2-0.5-3.2c-15.5-16.5-30.7-33-46.2-49.5c-0.8-1-1.6-0.9-2.8-0.8c-21.8,5.2-43.9,10.2-65.6,15.4
				c-1.3,0.4-1.8,1-2.1,2c-6.6,21.6-13.2,43.2-19.7,64.5c-0.4,1.4-0.3,2.2,0.7,2.9c4,4.3,8.1,8.5,12.1,12.8c1.4,1.6,3.3,2.9,5.4,3.5
				c4.8,1.8,9.2-0.2,10.7-5.1c3.5-11.5,7-23,10.6-34.8c2.9-9.4,5.8-19.2,8.7-28.6c0.8-2.8,1.3-3,4.1-2.2c1.7,0.5,3.5,1.1,5.2,1.6
				c2.1,0.6,2.3,1.1,1.7,3.2c-1.5,4.9-3,9.8-4.4,14.3c-5.1,16.7-10.2,33.4-15.2,49.8c-1,3.1-2.6,6.1-4.5,8.5
				c-4.4,5.5-10.7,6.3-17.4,4.6c-5.3-1.2-9.3-4.4-13.1-8.2c-3.8-3.8-7.8-8.1-11.5-12.3c-3.4-3.7-4.8-7.9-3.3-12.8
				c6.7-22,13.3-43.6,20-65.5c1.5-4.9,4.6-7.7,9.6-8.9c22.1-5.1,44.2-10.1,66.4-15.5c4.9-1.2,9.5,0.2,12.9,3.9
				c15.5,16.5,31.3,33.5,46.8,50.1c3.4,3.7,4.1,7.7,2.6,12.6c-6.7,22-13.4,43.9-20.1,65.9c-1.4,4.5-4.5,7.4-9.1,8.6
				c-22.6,5.3-44.7,10.4-67.2,15.7c-1.3,0.4-3.1,0.2-4.4,0.6C1614.6,423.8,1613.2,423.4,1611.9,423z"/>
			<path class="st12" d="M1645.5,383.7c-7.2-2.6-13.7-4.9-19-10c-5.6-5.5-7-12-5.1-19.5c0.5-1.7,1.1-2.3,3.2-1.7
				c2.1,0.6,4.2,1.3,6.3,1.9c1,0.3,2,1,1.6,2.4c-1.3,6.8,1.9,11.2,8,13.9s12.2,4.9,19,5c4.5,0.2,7.8-1.8,8.9-5.3
				c1-3.1,0.7-4.7-1.8-6.6c-3.2-2.1-6.4-3.9-9.7-5.6c-5.6-2.9-11.7-5.5-17.3-8.3c-1.3-0.8-2.9-1.7-4.1-2.8
				c-8.4-7.5-6.9-21.1,3.2-26.8c5-2.7,10.4-2.9,16-2.4c8,1.3,15.6,3.6,22.2,8.3c7.2,5.2,10.1,13,8.3,21.6c-0.5,1.7-1.1,2.3-2.8,1.8
				c-2.1-0.6-4.2-1.3-6.6-2c-1-0.3-1.6-0.9-1.7-2c0.5-6.7-2.7-11.1-8.5-13.3c-4.8-1.8-9.5-3.7-14.5-3.7c-3.3-0.3-6.2,0.4-8.1,4
				c-1.7,2.9-1.1,5,1.7,7c3.2,2.1,6.8,4,10.4,5.8c5.6,2.9,11.2,5.7,16.5,8.4c0.3,0.1,0.7,0.2,0.9,0.7c7.5,5.3,9.8,10.2,8.3,17.8
				c-1.7,8.2-7.5,13.3-15.9,14.6c-5.6,1-11.1,0.1-16.7-1.3C1647,383.8,1645.9,383.8,1645.5,383.7z"/>
			<path class="st12" d="M1734.5,346.9c-6.3-1.9-9.7-8.3-7.9-14.2c1.9-6.3,8.3-9.7,14.5-7.7s9.7,8.3,7.9,14.2
				C1747.1,345.4,1740.7,348.8,1734.5,346.9z M1728.7,333.3c-1.6,5.2,1.4,10.3,6.3,11.8c5.2,1.6,10.7-1.3,11.9-6.6
				c1.5-4.9-1.4-10.3-6.6-11.9C1735.6,325.5,1730.3,328.1,1728.7,333.3z"/>
			<path class="st12" d="M1741.3,336.8c0,2.7-0.2,4.5-0.5,6.7c-1-0.3-1.7-0.5-2.8-0.8c0.2-0.7,0.5-1.7,0.4-2.5
				c0.5-2.9,0.5-2.9-2.7-3.5c-0.4,1.4-1,3.1-1.4,4.5c-1-0.3-1.7-0.5-2.4-0.7c1.3-4.2,2.4-8,3.7-12.2c2.1,0.6,3.9,0.8,5.9,1.8
				c1,0.3,1.8,1.7,1.9,2.5C1743.5,334.8,1742.6,336.4,1741.3,336.8z M1736.1,335.2c1.6-0.3,2.7,0,3.9-0.3c0.5-0.2,0.9-1.6,0.5-1.7
				c-0.9-0.7-1.9-1.3-2.9-1.7C1737,332.4,1736.6,333.5,1736.1,335.2z"/>
		</g>
	</g>
	<g class="st0">
		
			<radialGradient id="SVGID_8_" cx="-182.5257" cy="752.1816" r="6.323059e-02" gradientTransform="matrix(2291.6716 0 0 -2218.7549 419525.4063 1669301.5)" gradientUnits="userSpaceOnUse">
			<stop  offset="0" style="stop-color:#34364E;stop-opacity:0.98"/>
			<stop  offset="1" style="stop-color:#0C0824"/>
		</radialGradient>
		<path class="st13" d="M1173.7,353.3h190.7v185.5h-190.7V353.3z"/>
		<path class="st14" d="M1173.7,353.3h190.7v185.5h-190.7V353.3z M1165,547.4h208V344.6h-208V547.4z M1305.2,427.8
			c-6.8,0-9.2,3.5-9.2,6.3c0,3.1,1.6,5.3,10.7,10.1c13.6,6.6,17.9,12.9,17.9,22.2c0,13.9-10.6,21.3-24.9,21.3
			c-7.5,0-14-1.6-17.8-3.7c-0.6-0.3-0.7-0.7-0.7-1.4v-12.7c0-0.9,0.4-1.1,1-0.7c5.5,3.6,11.7,5.1,17.4,5.1c6.8,0,9.7-2.9,9.7-6.8
			c0-3.1-2-5.9-10.7-10.4c-12.3-5.9-17.4-11.9-17.4-21.8c0-11.2,8.8-20.5,23.9-20.5c7.5,0,12.7,1.1,15.5,2.4
			c0.7,0.4,0.9,1.1,0.9,1.7v11.9c0,0.7-0.4,1.1-1.3,0.9C1316.5,429.3,1310.9,427.8,1305.2,427.8L1305.2,427.8z M1230.7,438.1
			c2,0.2,3.6,0.2,7,0.2c10.1,0,19.7-3.6,19.7-17.3c0-11-6.8-16.6-18.4-16.6c-3.5,0-6.8,0.2-8.3,0.3V438.1z M1215.3,392.1
			c0-0.6,1.2-1,1.9-1c5.5-0.3,13.8-0.4,22.4-0.4c24,0,33.4,13.2,33.4,30c0,22-15.9,31.5-35.5,31.5c-3.3,0-4.4-0.2-6.8-0.2v33.3
			c0,0.7-0.3,1-1,1h-13.3c-0.7,0-1-0.3-1-1L1215.3,392.1L1215.3,392.1z"/>
	</g>
	<g class="st0">
		<path class="st15" d="M1762.7,389.9c4.8-0.2,9-2.8,13.6-3.9c27.8-6.4,46.9,6.8,49.7,35.4c2.7,28.1-8.6,50.8-28.7,69.7
			c-9.6,9-20.3,16.5-32.9,20.6c-8.5,2.7-17,2.6-25-2.3c-1.4-0.8-2.7-2.1-2.3-3.9c0.3-1,1.6-1.1,2.6-0.8c13.4,3.5,24.4-2,34.5-9.9
			c19.2-15,32.1-34,35.8-58.6c0.9-5.8,0.6-11.6-0.8-17.3c-3.3-13.3-12.3-18.8-25.7-15.9c-10.5,2.3-19.8,7.3-27.8,13.8
			c-28.7,23.3-47.8,53.2-58.3,88.6c-1.2,4-1.8,8.3-2,12.5c-1.1,19,8.2,32,26.5,37.1c12,3.4,24.6,4,36.8,6c12.6,2.1,12.6,2,19.1-8.8
			c5.5-9.2,11.8-18,13.5-29.2c0.9-6.2,4.3-12.1,8.9-16.8c6.2-6.4,12.6-5.8,17.4,1.5c1.4,2.2,2.6,4.4,3.9,6.7
			c7.2-5.9,11.1-3.8,12.8,4c2,9.2,4.4,18.3,8,27.1c0.9,2.1,1.7,4.5,4.8,6.7c-0.3-5.3-0.4-9.8-0.9-14.3c-1.8-17.4-3.7-34.7-5.7-52
			c-0.2-1.8-0.6-3.6-1-5.3c-2.1-9.5-0.4-12.7,8.5-16.5c4.4-1.9,6.6-1.2,7.4,3.8c1.9,11.2,7.3,20.2,18,26.7
			c0.9-10.4,0.2-20.2-0.2-30.1c-0.2-5.9-1.7-11.5-3.1-17.1c-1.4-5.5,8.7-14.9,14.2-13.4c2.9,0.8,2.5,3.4,2.9,5.4
			c2.3,11.4,8.1,20.3,18.3,26.3c2.8,1.7,4.1,1.8,6.2-1c6.9-9.4,16-16.4,26.8-20.6c16.2-6.3,31.4-5.1,44.4,7.6
			c1.6,2.8,3.2,5.6,4.9,8.3c0,7.9,0,15.7-7.7,21.2c-1.4-2.9,0.4-4.5,1-6.3c3.1-8.8,0.4-16.4-7.7-21.1c-4.6-2.7-9.7-3.9-15-3.5
			c-15.5,1.2-28.3,7.9-39.2,18.9c-2.7,2.7-2,4.5,0.5,6.9c7.6,7.2,8.8,15.7,5,25.4c-1.9,5-4.8,9.3-8,13.3c-2.4,3-5.1,6-9.6,5
			c-4.5-1-6.2-4.6-7.3-8.7c-2.6-8.9-1-17.5,1.3-26.1c0.5-1.7,2.4-3.7-0.3-5.3c-6.6-3.8-11.9-9.3-18-15.6c0.3,12.2,0.6,23.2-0.2,34.1
			c-0.2,2.5,1.5,3.5,3.1,4.8c3.3,2.9,6.4,6.1,8.2,10.2c5.4,12.2-0.7,27.7-14.1,36.1c-3,1.9-6.1,4.7-9.9,2.1
			c-3.4-2.4-2.3-6.2-1.8-9.5c1.3-8.9,2.8-17.8,4.2-26.8c0.2-1.5,1.1-3.3-0.7-4.4c-7.3-4.5-13.8-9.8-19.9-16
			c2.3,19.9,4,39.5,4.2,59.1c0,3.8-0.1,7.6-1.2,11.3c-2.5,8.3-8,9.7-14.4,4c-3.6-3.3-5.1-8-8.5-12.2c0.3,8.4,2,16.1,1.2,23.8
			c-1,9-8.6,13.3-16.6,9.2c-9.6-4.9-16.5-12.6-20.7-22.6c-2.1-5.1-3.8-10.4-6.1-16.4c-2.8,4.9-5,9.2-7.7,13.2
			c-1.9,2.8-1.1,4.1,1.2,6.3c12.6,11.8,18.6,26.4,17.2,43.7c-1.1,14.1-8.1,25.2-17.7,35c-4.5,2.6-9,5.3-13.6,7.9
			c-14.8,0.5-24.2-7.2-26.9-22.2c-1.3-7.5-0.1-14.8,2.3-21.9c4-11.7,9.8-22.4,16.3-32.8c3.5-5.5,3.5-5.6-3.3-6.2
			c-6.4-0.6-12.8-1.1-19.2-1.6c-20.3-1.7-40.3-4.2-56.9-17.8c-2.2-3.8-4.5-7.6-6.7-11.5c0.1-0.8,0.3-1.5,0.2-2.2
			c-3.3-15.2-1.4-30,3.3-44.5c10.7-32.9,29.5-60.8,53.8-85.1c3.2-3.2,7.5-5.2,9.9-9.2C1748.8,398,1755.8,393.9,1762.7,389.9z
			 M1780.2,584.9c-0.5-0.8-1.3-2.1-2.2-3.4c-3.6-5.2-4.2-5.2-7.3,0.5c-4.2,7.5-7.9,15.3-10.6,23.5c-2.2,6.6-3.4,13.3-1.9,20.1
			c1,4.5,2.1,9.5,7.5,10.6c4.9,1,8.2-2.5,11.2-5.8C1787.3,618.6,1788.8,599.7,1780.2,584.9z M1811.2,563.8c1.3,1.5,3.1,4.2,5.4,6.4
			c2.5,2.4,4.8,2.3,5.2-1.8c0.2-2,0.2-4,0-6c-1.4-13.8-3.7-27.4-7.2-40.8c-0.8-2.9-0.7-7.7-4.3-7.7c-4,0-4.7,4.8-6,8
			c-0.2,0.6-0.3,1.2-0.4,1.8C1801.9,537.4,1804.2,550.5,1811.2,563.8z M1913.1,488.2c-0.8-1.4-1.6-3-3.3-3.3
			c-1.2-0.2-1.4,1.2-1.6,2.1c-1.4,6.1-1.6,12.3,0.1,18.4c0.2,0.9,1.1,1.5,1.7,2.3c0.7-0.6,1.7-1.1,2.2-1.8
			C1915.9,500.1,1916,494.2,1913.1,488.2z M1880.7,516.3c-1.5,8.4-2.9,15.6-4.2,22.9C1881.7,532.6,1884.7,525.6,1880.7,516.3z"/>
	</g>
	<g class="st0">
		<g>
			<g>
				<path class="st16" d="M137.5,21.1c0.9,0,1.5,0.3,2.4,0.3c5.5,0.9,9.7,3.9,12.7,8.5c2.7,3.9,3.9,8.2,5.1,12.7
					c1.2,6.4,1.5,12.7,1.2,19.1c-0.3,7.3-1.5,14.2-3.3,21.5c0,0.3,0,0.6,0,0.9c0.9,0.3,1.8,0.6,2.7,0.9c8.8,2.7,17.3,6.1,25.1,10.9
					c4.5,2.7,8.8,6.1,12.7,10c1.5,1.8,3,3.6,4.2,5.8c3.9,6.7,3.9,13.3,0,20.3c-2.4,4.5-6.1,8.2-10,11.2c-5.1,4.2-10.9,7.6-17,10.3
					c-5.5,2.4-10.9,4.5-16.4,6.4c-0.3,0-0.6,0.3-1.2,0.3c0.3,1.5,0.6,3.3,0.9,4.8c1.5,7.6,2.4,15.4,2.4,23.3
					c0,6.1-0.6,11.8-2.7,17.6c-1.5,4.5-3.3,8.5-7,11.8c-3,3-6.7,4.5-10.9,5.1c-1.2,0.3-2.4,0.3-3.3,0.6c-0.3,0-0.3,0-0.6,0
					c-0.3,0-0.9-0.3-1.2-0.3c-1.8-0.3-3.9-0.6-5.8-0.9c-6.1-1.2-11.5-3.9-17-7.3c-7.3-4.2-13.9-9.7-20.3-15.4
					c-0.3-0.3-0.6-0.6-1.2-0.9c-0.3,0.3-0.6,0.6-1.2,0.9c-6.7,6.1-13.6,11.8-21.5,16.1c-5.8,3.3-11.5,5.8-17.9,7
					c-3.3,0.6-6.7,0.9-10.3,0.3c-6.1-0.9-10.6-4.2-13.9-9.7c-2.1-3.3-3.3-7-4.2-10.6c-1.2-6.1-1.5-12.1-1.2-18.2
					c0.3-7,1.5-13.9,3-20.9c0.3-0.9,0.3-1.8,0.6-2.7c-0.3-0.3-0.9-0.3-1.2-0.3c-4.5-1.2-9.1-3-13.6-4.8c-7-3-13.3-6.4-19.4-11.2
					c-3.9-3-7.6-6.7-10-10.9c-3.9-6.7-4.8-13.6-1.2-20.6c1.8-3.6,4.5-6.7,7.3-9.4c4.8-4.5,10.3-7.9,16.1-10.6
					c6.7-3.3,13.9-6.1,21.2-8.2c0.3,0,0.6-0.3,0.9-0.3c0-0.3,0-0.6-0.3-0.9c-1.5-6.7-2.7-13.6-3.3-20.6c-0.6-6.7-0.3-13,0.9-19.7
					c0.9-4.2,2.1-8.2,4.2-11.8c2.7-4.8,7-7.9,12.4-9.4c4.2-0.9,8.5-0.6,12.7,0.3c5.5,1.2,10.6,3.6,15.7,6.4
					c8.5,4.5,15.7,10.6,22.7,17c0.3,0.3,0.6,0.6,0.9,0.9c0.3-0.3,0.6-0.6,0.9-0.6c2.1-1.8,4.2-3.9,6.4-5.8c6.4-5.5,13-10,20.6-13.6
					c4.5-2.1,9.1-3.9,14.2-4.5c0.9,0,1.5-0.3,2.4-0.3C135.1,21.1,136.3,21.1,137.5,21.1z M90,158.9c6.1-0.3,12.7-0.6,19.7-0.9
					c0.6,0,0.9-0.3,1.5-0.9c7.3-10.9,13.9-22.4,19.7-34.2c0.3-0.6,0.3-1.2,0-2.1c-1.8-3.6-3.6-7-5.5-10.6c-4.2-7.9-9.1-15.4-13.9-23
					c-0.6-0.9-1.2-1.2-2.1-1.2c-3.6-0.3-7.3-0.3-10.9-0.6c-4.5,0-8.8,0-13.3,0c-4.8,0-9.4,0.3-14.2,0.6c-1.8,0-1.8,0-2.7,1.5
					c-7,10.6-13.3,21.5-19.1,33c-0.6,1.2-0.6,1.8,0,3c5.8,11.5,11.8,22.4,19.1,33c1.2,1.8,1.2,1.8,3,1.8
					C76.9,158.6,83,158.6,90,158.9z M26.4,151.3c0-0.3,0.3-0.6,0.3-0.9c3-9.4,6.4-18.2,10.3-27c0.3-0.9,0.3-1.5,0-2.4
					c-3.9-8.5-7.3-17.3-10.3-26.3c0-0.3-0.3-0.6-0.3-1.2c-0.3,0-0.6,0-0.6,0c-7.9,2.4-15.7,5.1-23,9.1c-4.2,2.4-8.5,5.1-11.8,8.8
					c-1.8,1.8-3.6,4.2-4.5,6.7c-0.9,2.4-0.9,4.8,0,7.3c0.9,2.1,2.1,3.9,3.3,5.8c3.3,3.9,7.3,7,11.5,9.4c7.3,4.5,15.4,7.9,23.6,10.3
					C25.1,151,25.7,151,26.4,151.3z M33,162.8c-0.6,3-1.2,5.8-1.8,8.8c-0.9,4.5-1.2,9.1-1.5,13.6c-0.3,5.5,0,11.2,1.5,16.4
					c0.6,2.7,1.8,5.1,3.3,7.6c1.8,2.4,3.9,3.6,7,4.2c2.4,0.3,5.1,0,7.6-0.3c4.2-0.9,8.5-2.7,12.4-4.8c7.9-4.2,14.8-9.7,21.5-16.1
					c0.3-0.3,0.3-0.6,0.6-0.6c-0.3-0.3-0.3-0.3-0.3-0.6c-6.7-7.3-12.7-14.8-18.2-22.7c-0.6-0.6-1.2-0.9-1.8-1.2
					c-3.3-0.3-6.4-0.6-9.7-0.9c-5.1-0.6-10-1.5-15.1-2.4C36.3,163.4,34.8,163.1,33,162.8z M96.6,191.3c0.3,0.3,0.6,0.6,0.9,0.9
					c3.6,3.3,7.3,6.7,11.5,9.7c5.1,3.6,10.3,7,16.1,9.4c3.6,1.5,7.6,2.4,11.5,2.4c3,0,5.8-1.2,7.9-3.9c1.2-1.5,2.1-3.3,3-5.5
					c1.5-4.2,2.1-8.5,2.4-12.7c0.3-3.9,0-7.9-0.3-12.1c-0.6-5.5-1.5-10.6-2.7-16.1c0-0.3-0.3-0.6-0.3-0.9c-0.3,0-0.9,0-1.2,0.3
					c-3,0.6-6.1,1.2-9.1,1.8c-6.4,1.2-12.7,1.8-19.1,2.4c-1.2,0-1.8,0.6-2.4,1.5c-5.1,7.6-10.6,14.5-16.7,21.5
					C97.5,190.4,97.2,190.7,96.6,191.3z M83,52.9c-0.3-0.3-0.6-0.6-0.9-0.6c-4.2-3.9-8.5-7.6-13.3-10.9c-5.1-3.6-10.6-6.7-16.4-8.8
					c-3.3-1.2-6.7-1.8-10-1.8c-3.6,0-6.7,1.5-8.5,4.8c-0.9,1.5-1.8,3.3-2.1,4.8c-1.8,5.1-2.1,10.9-2.1,16.4c0,6.7,0.9,13,2.4,19.4
					c0.3,1.8,0.9,3.6,1.2,5.5c0.3,0,0.3,0,0.6,0c4.2-0.9,8.5-1.8,12.7-2.4c5.1-0.9,10.3-1.5,15.7-2.1c1.2,0,1.8-0.6,2.4-1.2
					C70.3,68.3,76,61,82.4,54.1C82.4,53.5,82.7,53.2,83,52.9z M96.3,52.9c0.3,0.3,0.6,0.6,0.6,0.9c3.3,3.9,6.7,7.6,9.7,11.5
					c3,3.6,5.5,7.3,8.2,11.2c0.3,0.6,0.6,0.9,1.2,0.9c3.3,0.3,6.7,0.6,10,1.2c6.1,0.6,11.8,1.8,17.9,3c0.6,0,1.2,0.3,1.8,0.3
					c0.3-0.9,0.3-1.5,0.6-2.4c1.8-8.2,3-16.4,2.7-24.5c0-3.9-0.6-7.9-1.5-11.8c-0.9-3-1.8-5.8-3.6-8.5c-1.5-2.1-3.3-3.3-6.1-3.6
					c-2.1-0.3-3.9-0.3-6.1,0c-4.2,0.6-8.2,2.4-12.1,4.2c-7,3.6-13,8.2-18.8,13C99.6,49.8,98.1,51.3,96.3,52.9z M153,93.4
					c0,0.3-0.3,0.6-0.3,0.9c-2.7,9.1-6.4,18.2-10.6,26.7c-0.3,0.6-0.3,1.2,0,1.8c4.2,8.8,7.9,17.9,10.9,27c0,0.3,0.3,0.6,0.3,0.9
					c0.6-0.3,1.5-0.3,2.1-0.6c7.9-2.4,15.4-5.5,22.4-10c3.6-2.1,7.3-4.8,10.3-7.9c1.8-1.8,3.3-3.9,4.5-6.4c1.2-2.7,1.2-5.8,0-8.5
					c-0.9-1.5-1.5-2.7-2.7-4.2c-3-3.9-7-6.7-11.2-9.1c-7.3-4.2-14.8-7.6-22.7-10C154.8,94,153.9,93.7,153,93.4z M143.9,153.1
					c-0.6-3-6.4-18.5-7.6-19.7c-4.5,7.9-8.8,15.4-13.3,23.3C129.9,155.8,136.9,154.6,143.9,153.1z M56.3,156.7
					c-4.8-7.6-9.1-15.1-13.3-23.3c-2.7,6.7-5.5,13.3-7.3,20.3C42.7,155.2,49.4,156.1,56.3,156.7z M103.3,167.9c-0.6,0-0.9,0-1.5,0
					c-2.7,0-5.5,0.3-8.2,0.3c-5.5,0-10.6,0-16.1-0.3c-0.3,0-0.9,0-1.5,0c4.5,5.8,8.8,11.2,13.6,16.4C94.8,179.2,99,174,103.3,167.9z
					 M89.7,59.8c-2.1,1.8-12.7,14.5-13.3,16.1c8.8-0.3,17.6-0.3,26.7,0C98.7,70.4,94.5,65,89.7,59.8z M123,87.7
					c4.5,7.3,8.8,14.8,12.7,22.4c0,0.3,0.3,0.3,0.3,0.6l0,0c0,0,0,0,0.3,0c2.7-6.4,5.1-12.7,7.3-19.4
					C136.6,89.5,129.9,88.3,123,87.7z M35.7,91c2.1,6.7,4.5,13.3,7.3,19.7c2.1-3.9,4.2-7.9,6.4-11.8c2.1-3.9,4.5-7.6,7-11.5
					C49.4,88.3,42.7,89.5,35.7,91z"/>
				<path class="st16" d="M89.7,101.6c10.3-0.3,20.3,8.2,20.3,20.3c0,11.8-9.4,20.3-20.3,20.3c-10.6,0-20.3-8.5-20.3-20.3
					C69.4,109.8,79.1,101.3,89.7,101.6z"/>
			</g>
			<g>
				<path class="st16" d="M-16.4,281.3v27.2h-8.5v-62.7h21.5c6.9,0,12.1,1.5,15.7,4.6s5.4,7.5,5.4,13.3c0,3.2-0.8,6-2.5,8.4
					c-1.7,2.4-4.1,4.3-7.3,5.7c3.4,1.1,5.9,2.9,7.4,5.5s2.3,5.6,2.3,9.3v5.9c0,2,0.2,3.7,0.6,5.3c0.4,1.6,1.2,2.8,2.2,3.8v1h-8.7
					c-1.1-1-1.8-2.4-2.2-4.3c-0.3-1.9-0.5-3.8-0.5-5.9v-5.7c0-3.4-1-6.1-3-8.2c-2-2.1-4.6-3.1-8-3.1H-16.4z M-16.4,274.6h12.1
					c4.8,0,8.3-0.9,10.4-2.7c2.1-1.8,3.2-4.6,3.2-8.3c0-3.5-1-6.3-3.1-8.2c-2.1-1.9-5.3-2.9-9.6-2.9h-13V274.6z"/>
				<path class="st16" d="M49.4,309.4c-6.7,0-11.9-2.1-15.7-6.4c-3.7-4.3-5.6-9.9-5.6-16.9v-1.9c0-6.7,1.9-12.2,5.8-16.6
					c3.9-4.4,8.6-6.6,14.2-6.6c6.2,0,10.9,1.9,14,5.8c3.1,3.9,4.7,9,4.7,15.5v4.5H36.9l-0.1,0.2c0,4.7,1,8.5,3.1,11.4
					c2.1,2.9,5.2,4.4,9.5,4.4c2.9,0,5.4-0.4,7.6-1.2c2.2-0.8,4-1.9,5.6-3.4l3.3,5.5c-1.7,1.6-3.9,3-6.6,4.1
					C56.5,308.8,53.3,309.4,49.4,309.4z M48.1,267.7c-3,0-5.4,1.1-7.3,3.4c-1.9,2.3-3.1,5.2-3.6,8.8l0.1,0.2h21v-0.7
					c0-3.4-0.8-6.2-2.5-8.4C54.1,268.8,51.5,267.7,48.1,267.7z"/>
				<path class="st16" d="M104.9,308.5c-0.3-1.4-0.5-2.6-0.7-3.7c-0.2-1.1-0.3-2.2-0.3-3.3c-1.6,2.2-3.6,4.1-6.2,5.6
					c-2.5,1.5-5.3,2.3-8.2,2.3c-4.9,0-8.6-1.2-11.1-3.7c-2.5-2.5-3.8-5.9-3.8-10.3c0-4.5,1.8-7.9,5.4-10.4c3.6-2.5,8.5-3.8,14.7-3.8
					h9.2v-4.6c0-2.7-0.8-4.9-2.5-6.5c-1.7-1.6-4-2.4-7.1-2.4c-2.8,0-5,0.7-6.7,2.1c-1.7,1.4-2.5,3-2.5,5l-8.1,0.1l-0.1-0.3
					c-0.2-3.4,1.4-6.5,4.8-9.3c3.4-2.8,7.7-4.2,13.1-4.2c5.3,0,9.5,1.3,12.8,4c3.2,2.7,4.8,6.6,4.8,11.6v22.5c0,1.7,0.1,3.3,0.3,4.8
					c0.2,1.6,0.5,3.1,0.9,4.6H104.9z M90.9,302.3c3.1,0,5.8-0.8,8.3-2.4c2.5-1.6,4.1-3.4,4.8-5.4v-7.6h-9.5c-3.4,0-6.2,0.9-8.2,2.6
					c-2.1,1.7-3.1,3.7-3.1,6.1c0,2.1,0.6,3.7,1.9,4.9C86.4,301.7,88.3,302.3,90.9,302.3z"/>
				<path class="st16" d="M143.3,302.7c2.6,0,4.9-0.9,6.9-2.6c2-1.7,2.9-3.9,2.9-6.4h7.7l0.1,0.3c0.1,4-1.6,7.6-5.2,10.7
					c-3.6,3.1-7.7,4.7-12.4,4.7c-6.6,0-11.6-2.2-15.2-6.7c-3.6-4.5-5.3-10-5.3-16.6v-1.8c0-6.6,1.8-12.1,5.4-16.6
					c3.6-4.5,8.6-6.7,15.1-6.7c5.2,0,9.5,1.6,12.8,4.8c3.3,3.2,4.9,7.2,4.8,11.8l-0.1,0.3h-7.7c0-2.8-0.9-5.3-2.8-7.3
					c-1.9-2-4.2-3-7-3c-4.2,0-7.2,1.6-9.1,4.8c-1.9,3.2-2.9,7.1-2.9,11.7v1.8c0,4.7,0.9,8.6,2.8,11.8
					C136.1,301.1,139.1,302.7,143.3,302.7z"/>
				<path class="st16" d="M182.8,250.6v11.2h8.8v6.3h-8.8v28.3c0,2.2,0.5,3.7,1.4,4.6c0.9,0.9,2.1,1.3,3.6,1.3c0.5,0,1-0.1,1.6-0.2
					c0.6-0.1,1.1-0.3,1.5-0.4l1.2,5.8c-0.6,0.5-1.6,0.9-2.8,1.3c-1.2,0.3-2.5,0.5-3.7,0.5c-3.4,0-6.2-1-8.2-3.1
					c-2-2.1-3.1-5.4-3.1-9.8v-28.3h-7.4v-6.3h7.4v-11.2H182.8z"/>
			</g>
		</g>
	</g>
	<g class="st0">
		<path class="st17" d="M468.6,211.7c-0.2,0-0.4,0.5-0.4,0.8c0,1.8-0.1,6.5-0.1,9.7c0,0.1,0.1,0.3,0.3,0.3c0.7,0,2.3,0.1,3.7,0.1
			c1.9,0,3-0.3,3.7-0.5c1.6-0.8,2.4-2.5,2.4-4.5c0-4.3-3-6-7.6-6C470.2,211.6,469.3,211.6,468.6,211.7L468.6,211.7z M480.1,231.7
			c0-4.4-3.3-6.9-9.2-6.9c-0.3,0-2.1,0-2.6,0c-0.1,0-0.3,0.1-0.3,0.3c0,3.2,0,8.2,0.1,10.2c0.1,0.8,0.7,2.1,1.5,2.4
			c0.8,0.4,2.6,0.5,3.9,0.5C477.1,238.2,480.1,236.3,480.1,231.7L480.1,231.7z M459.5,209.2c0.4,0,1.8,0.1,5.2,0.1
			c3.3,0,5.9-0.1,9-0.1c3.9,0,9.3,1.4,9.3,7.2c0,2.9-2,5.1-4.6,6.3c-0.1,0-0.1,0.1,0,0.2c3.8,0.9,7.1,3.3,7.1,7.6
			c0,4.3-2.7,7-6.6,8.7c-2.4,1-5.3,1.4-8.3,1.4c-2.3,0-8.4-0.3-11.8-0.2c-0.4-0.1,0.3-1.7,0.6-2c0.8,0,1.4-0.1,2.3-0.4
			c1.2-0.3,1.3-0.7,1.5-2.5c0.1-1.6,0.1-7.1,0.1-11c0-5.4,0-9.1,0-10.9c0-1.4-0.5-1.8-1.5-2.1c-0.8-0.1-2-0.3-3-0.4
			C458.5,210.9,459.2,209.4,459.5,209.2L459.5,209.2z M433.7,237c1.1,0.8,3.2,1.2,5.1,1.2c2.4,0,4.8-0.4,7.2-2.5
			c2.4-2.1,4-5.5,4-10.7c0-5.1-1.9-9.2-5.9-11.6c-2.2-1.4-5.1-2-8.4-2c-1,0-1.9,0-2.5,0.3c-0.1,0.1-0.4,0.5-0.4,0.7
			c-0.1,0.9-0.1,7.8-0.1,11.8c0,4.2,0,10,0.1,10.6C432.7,235.6,433,236.6,433.7,237L433.7,237z M423.6,209.2c0.8,0,4.1,0.1,5.7,0.1
			c2.8,0,4.8-0.1,10.1-0.1c4.5,0,8.2,1.2,10.9,3.5c3.3,2.8,5,6.7,5,11.4c0,6.7-3.1,10.6-6.2,12.9c-3.1,2.3-7.1,3.6-12.8,3.6
			c-3,0-8.3-0.1-12.6-0.1h0c-0.2-0.4,0.4-2,0.7-2c1.2-0.1,1.5-0.2,2.1-0.4c0.9-0.4,1.1-0.8,1.3-2.5c0.1-3.1,0.1-6.8,0.1-11
			c0-3,0-8.9,0-10.7c-0.1-1.6-0.8-2-2.1-2.2c-0.7-0.1-1.6-0.3-2.8-0.4C422.5,210.9,423.3,209.5,423.6,209.2L423.6,209.2z"/>
		<path class="st18" d="M369.5,238.8c-1.1-0.1-1.9-0.3-2.9-0.8c-0.1-0.1-0.4-0.5-0.4-0.7c-0.1-1.6-0.1-6-0.1-9c0-2.4-0.4-4.5-1.4-6
			c-1.2-1.7-2.9-2.7-5.2-2.7c-2,0-4.6,1.3-6.8,3.2c0,0-0.4,0.4-0.4-0.1c0-0.5,0.1-1.5,0.1-2.1c0-0.6-0.3-0.9-0.3-0.9
			c-1.4,0.7-5.5,1.7-6.9,1.8c-1.1,0.2-1.3,1.3-0.2,1.6h0c1.2,0.4,2,0.8,2.6,1.2c0.4,0.4,0.4,0.8,0.4,1.3c0,3.4,0,8.5-0.1,11.3
			c0,1.1-0.4,1.5-1.2,1.7l0.1,0c-0.6,0.1-1.1,0.3-1.9,0.4c-0.3,0.3-0.3,1.7,0,2c0.5,0,3.1-0.1,5.2-0.1c2.9,0,4.5,0.1,5.2,0.1
			c0.3-0.4,0.4-1.7,0.2-2c-0.8,0-1.5-0.1-2.1-0.3c-0.8-0.2-1-0.6-1.1-1.5c-0.1-2.4-0.1-7.4-0.1-10.8c0-0.9,0.3-1.4,0.5-1.7
			c1-0.9,2.7-1.5,4.2-1.5c1.4,0,2.4,0.4,3.1,1c1,0.8,1.3,2,1.4,2.8c0.2,1.9,0.1,5.7,0.1,9c0,1.8-0.1,2.2-0.8,2.5
			c-0.3,0.1-1.1,0.3-2.1,0.4c-0.3,0.3-0.2,1.7,0,2c1.3,0,2.8-0.1,5.1-0.1c2.8,0,4.6,0.1,5.3,0.1
			C369.6,240.4,369.7,239.1,369.5,238.8L369.5,238.8z M381.9,221.7c-2.4,0-3.8,1.8-3.8,4.7c0,2.9,1.3,6.3,5,6.3
			c0.6,0,1.8-0.3,2.3-0.9c0.8-0.8,1.4-2.4,1.4-4.1C386.7,223.9,384.9,221.7,381.9,221.7L381.9,221.7z M381.5,241.5
			c-0.9,0-1.5,0.3-1.9,0.5c-1.9,1.2-2.7,2.4-2.7,3.8c0,1.3,0.5,2.3,1.6,3.2c1.3,1.1,3.1,1.7,5.4,1.7c4.6,0,6.6-2.5,6.6-4.9
			c0-1.7-0.8-2.8-2.6-3.4C386.5,241.7,384.3,241.5,381.5,241.5L381.5,241.5z M381.9,253.1c-2.7,0-4.7-0.6-6.4-1.9
			c-1.7-1.3-2.4-3.1-2.4-4.4c0-0.4,0.1-1.3,0.9-2.2c0.5-0.5,1.6-1.6,4.1-3.3c0.1,0,0.1-0.1,0.1-0.2c0-0.1-0.1-0.2-0.2-0.2
			c-2.1-0.8-2.7-2.1-2.9-2.8v-0.1c0-0.3-0.1-0.5,0.3-0.8c0.3-0.2,0.8-0.5,1.3-0.8c0.8-0.4,1.6-0.9,2.1-1.3c0.1-0.1,0.1-0.2,0.1-0.3
			s-0.1-0.2-0.2-0.2c-3.1-1-4.7-3.4-4.7-6.8c0-2.3,1-4.3,2.9-5.6c1.3-1,4.4-2.2,6.4-2.2h0.1c2.1,0,3.3,0.5,4.9,1.1
			c0.9,0.3,1.7,0.4,2.9,0.4c1.7,0,2.5-0.5,3.1-1.2c0,0.1,0.1,0.3,0.2,0.9c0,0.6-0.1,1.4-0.6,2.1c-0.4,0.5-1.2,0.8-2,0.8h-0.2
			c-0.8-0.1-1.2-0.2-1.2-0.2l-0.2,0.1c0,0.1,0,0.2,0,0.3l0,0.1c0.1,0.4,0.3,1.6,0.3,1.9c0,3.7-1.5,5.3-3,6.5c-1.5,1.1-3.3,1.8-5.2,2
			c0,0-0.2,0-0.6,0c-0.2,0-0.5,0-0.6,0h0c-0.4,0.1-1.3,0.5-1.3,1.3c0,0.7,0.4,1.5,2.3,1.6c0.4,0,0.8,0,1.3,0.1
			c2.5,0.2,5.7,0.4,7.2,0.9c2.1,0.8,3.4,2.6,3.4,4.8c0,3.3-2.4,6.4-6.3,8.3C385.9,252.6,384,253.1,381.9,253.1L381.9,253.1z
			 M407.3,221.9c-0.9,0-1.8,0.2-2.4,0.7c-1.7,1.1-2.6,3.2-2.6,6.3c0,5.9,2.9,10,7.2,10c1.3,0,2.2-0.4,3.1-1.1c1.3-1.1,2-3.2,2-6.2
			C414.5,225.8,411.6,221.9,407.3,221.9L407.3,221.9z M408.1,241.1c-7.6,0-10.3-5.6-10.3-10.8c0-3.7,1.5-6.5,4.4-8.5
			c2.1-1.3,4.6-2,6.8-2c5.8,0,9.9,4.2,9.9,10.1c0,4.1-1.6,7.3-4.7,9.3C412.8,240.1,410.2,241.1,408.1,241.1L408.1,241.1L408.1,241.1
			z M328.5,221.9c-0.9,0-1.8,0.2-2.4,0.7c-1.7,1.1-2.6,3.2-2.6,6.3c0,5.9,2.9,10,7.2,10c1.3,0,2.2-0.4,3.1-1.1c1.3-1.1,2-3.2,2-6.2
			C335.6,225.8,332.8,221.9,328.5,221.9L328.5,221.9z M329.3,241.1c-7.6,0-10.3-5.6-10.3-10.8c0-3.7,1.5-6.5,4.4-8.5
			c2.1-1.3,4.6-2,6.8-2c5.8,0,9.9,4.2,9.9,10.1c0,4.1-1.6,7.3-4.7,9.3C334,240.1,331.4,241.1,329.3,241.1L329.3,241.1z M278.2,240.6
			c-0.1-0.1-0.2-0.5-0.1-1c0-0.4,0.1-0.6,0.1-0.7c0.9-0.1,1.4-0.3,2-0.4c0.9-0.2,1.3-0.7,1.3-1.8c0.1-2.7,0.1-7.8,0.1-11.3v-0.1
			c0-0.4,0-0.9-0.5-1.3c-0.7-0.4-1.6-0.8-2.7-1.2c-0.4-0.1-0.7-0.4-0.6-0.6c0-0.3,0.3-0.6,0.8-0.7c1.5-0.1,5.3-1.1,6.8-1.7
			c0.1,0.1,0.2,0.4,0.2,0.7l0,0.5c0,0.5-0.1,1.1-0.1,1.7c0,0.2,0.2,0.3,0.4,0.3c0.1,0,0.2,0,0.3-0.1c2.9-2.2,5.5-3,6.8-3
			c2.2,0,3.9,1,5.2,3.2c0.1,0.1,0.2,0.2,0.3,0.2c0.1,0,0.2,0,0.3-0.1c2.6-2,5.3-3.2,7-3.2c4.2,0,6.6,3.1,6.6,8.3c0,1.5,0,3.4,0,5.1
			c0,1.6,0,3,0,4c0,0.2,0.3,0.9,0.8,1.1c0.6,0.3,1.5,0.4,2.6,0.6h0c0.1,0.3-0.1,1.5-0.3,1.7c-0.3,0-0.7,0-1.1,0
			c-1.1-0.1-2.3-0.1-3.4-0.1c-2.8,0-4.2,0-5.6,0.1c-0.1-0.4-0.1-1.4,0-1.7c0.8-0.1,1.2-0.3,1.7-0.4c0.9-0.3,1.1-0.7,1.2-1.8
			c0-0.8,0.2-8.1-0.1-9.8c-0.3-1.8-1.6-3.9-4.6-3.9c-1.1,0-2.9,0.4-4.6,1.7c-0.1,0.1-0.2,0.3-0.2,0.4v0c0.2,0.9,0.2,2,0.2,3.7v2.9
			c0,2,0,3.9,0,5.3c0,1,0.6,1.2,1.1,1.4c0.3,0,0.4,0.1,0.7,0.1c0.4,0.1,0.8,0.2,1.4,0.3c0.1,0.2,0.1,0.8,0,1.3
			c0,0.3-0.1,0.4-0.2,0.4c-1.5,0-3.1-0.1-5.4-0.1c-0.7,0-1.8,0-2.8,0c-0.8,0-1.6,0-2,0c0-0.1-0.1-0.4-0.1-0.9c0-0.4,0.1-0.7,0.2-0.8
			c0.2,0,0.4-0.1,0.6-0.1c0.5-0.1,1-0.2,1.4-0.3c0.8-0.2,1-0.6,1.1-1.6c0.1-2.2,0.3-8.6,0-10.2c-0.5-2.6-2-3.9-4.4-3.9
			c-1.4,0-3.1,0.7-4.6,1.7c-0.2,0.2-0.4,0.6-0.4,1v2.6c0,3.2,0,7.2,0,9c0,0.5,0.2,1.2,1.3,1.4c0.2,0,0.6,0.1,1,0.2l0.8,0.1
			c0.1,0.3,0,1.3-0.1,1.7c-0.4,0-1,0-1.6,0c-0.9,0-2.1-0.1-3.5-0.1c-1.6,0-2.7,0-3.6,0.1C279.2,240.6,278.7,240.6,278.2,240.6
			L278.2,240.6z"/>
		<path class="st18" d="M254.7,251.3l-1.8-0.6c0,0,0.2-9.3-3.1-10c-2.2-2.6,0.4-110,8.4-0.4c0,0-2.8,1.4-3.3,3.8
			C254.3,246.4,254.7,251.3,254.7,251.3L254.7,251.3z"/>
		<path class="st19" d="M254.7,251.3l-1.8-0.6c0,0,0.2-9.3-3.1-10c-2.2-2.6,0.4-110,8.4-0.4c0,0-2.8,1.4-3.3,3.8
			C254.3,246.4,254.7,251.3,254.7,251.3L254.7,251.3z"/>
		<path class="st18" d="M255.7,242.3c0,0,16-10.5,12.3-32.5c-3.6-16-12.2-21.2-13.1-23.2c-1-1.4-2-3.9-2-3.9l0.7,44.4
			C253.5,227.1,252.1,240.7,255.7,242.3"/>
		<path class="st20" d="M255.7,242.3c0,0,16-10.5,12.3-32.5c-3.6-16-12.2-21.2-13.1-23.2c-1-1.4-2-3.9-2-3.9l0.7,44.4
			C253.5,227.1,252.1,240.7,255.7,242.3"/>
		<path class="st18" d="M251.9,242.9c0,0-15.1-10.3-14.2-28.4c0.8-18.1,11.5-27,13.5-28.6c1.3-1.4,1.4-2,1.5-3.4
			c0.9,2,0.8,30.1,0.9,33.4C254.1,228.6,252.9,240.5,251.9,242.9z"/>
		<path class="st21" d="M251.9,242.9c0,0-15.1-10.3-14.2-28.4c0.8-18.1,11.5-27,13.5-28.6c1.3-1.4,1.4-2,1.5-3.4
			c0.9,2,0.8,30.1,0.9,33.4C254.1,228.6,252.9,240.5,251.9,242.9z"/>
	</g>
	<g class="st0">
		<g>
			<path class="st16" d="M1472.5,393c0.5-0.1,0.9,0,1.3-0.1c3.1-0.1,5.7,1,7.9,3.1c1.9,1.8,3.1,4,4.3,6.3c1.4,3.3,2.3,6.7,2.8,10.2
				c0.7,4,0.8,7.9,0.7,12c0,0.2,0.1,0.3,0.1,0.5c0.5,0.1,1.1,0.1,1.6,0.2c5.1,0.5,10.1,1.3,14.9,3c2.8,1,5.5,2.3,8,4
				c1,0.8,2.1,1.6,3,2.6c2.9,3.2,3.7,6.8,2.3,11c-0.8,2.7-2.3,5.1-4.1,7.2c-2.3,2.9-5,5.4-8,7.5c-2.7,1.9-5.4,3.7-8.1,5.3
				c-0.2,0-0.3,0.2-0.6,0.3c0.3,0.8,0.7,1.7,1,2.5c1.7,3.9,3.1,8.1,4,12.4c0.7,3.3,1,6.5,0.5,9.8c-0.3,2.6-0.8,5-2.4,7.2
				c-1.3,2-3.1,3.2-5.3,4c-0.6,0.3-1.3,0.4-1.7,0.7c-0.2,0-0.2,0-0.3,0.1c-0.2,0-0.5-0.1-0.7,0c-1,0-2.2,0.1-3.2,0.2
				c-3.4,0-6.7-0.8-10-2c-4.4-1.5-8.7-3.7-12.8-6c-0.2-0.1-0.4-0.3-0.8-0.4c-0.1,0.2-0.3,0.4-0.6,0.6c-2.9,4-6,8-9.8,11.2
				c-2.7,2.5-5.6,4.4-8.9,5.8c-1.7,0.7-3.5,1.3-5.5,1.3c-3.4,0.2-6.2-1.1-8.7-3.7c-1.5-1.6-2.6-3.4-3.5-5.3
				c-1.4-3.1-2.2-6.4-2.7-9.7c-0.6-3.8-0.8-7.7-0.8-11.7c0.1-0.5,0-1,0-1.5c-0.2-0.1-0.5-0.1-0.7,0c-2.6-0.1-5.3-0.6-7.9-1.1
				c-4.1-0.8-8-1.9-11.8-3.8c-2.5-1.2-4.9-2.7-6.7-4.8c-2.9-3.2-4.2-6.8-3-11c0.6-2.2,1.7-4.1,2.9-5.9c2.1-3,4.7-5.5,7.5-7.6
				c3.2-2.6,6.9-4.9,10.6-6.9c0.2,0,0.3-0.2,0.5-0.3c0-0.2-0.1-0.3-0.3-0.5c-1.6-3.4-3-7.1-4.2-10.8c-1.1-3.5-1.7-7-1.8-10.8
				c0-2.4,0.2-4.7,0.9-6.9c0.9-2.9,2.9-5.1,5.7-6.5c2.2-1,4.5-1.3,6.9-1.3c3.1,0,6.2,0.8,9.3,1.6c5.1,1.5,9.8,3.9,14.3,6.6
				c0.2,0.1,0.4,0.3,0.6,0.4c0.1-0.2,0.3-0.4,0.4-0.4c0.9-1.2,1.8-2.6,2.8-3.9c2.8-3.7,5.9-6.9,9.6-9.8c2.2-1.7,4.5-3.2,7.2-4.1
				c0.5-0.1,0.8-0.3,1.3-0.4C1471.2,393.3,1471.8,393.2,1472.5,393z M1462.5,473.2c3.2-0.9,6.8-1.8,10.6-2.8
				c0.3-0.1,0.5-0.3,0.7-0.7c2.7-6.7,5-13.8,6.7-20.8c0.1-0.4,0-0.7-0.2-1.1c-1.4-1.8-2.8-3.4-4.2-5.1c-3.2-3.8-6.7-7.3-10.2-10.9
				c-0.4-0.4-0.8-0.5-1.3-0.4c-2,0.3-4,0.7-6,0.9c-2.5,0.5-4.8,1-7.2,1.5c-2.6,0.6-5.1,1.2-7.6,2c-1,0.2-1,0.2-1.3,1.1
				c-2.6,6.5-4.8,13.2-6.6,20.1c-0.2,0.7-0.1,1.1,0.3,1.6c4.4,5.6,9,10.8,14.1,15.7c0.9,0.8,0.9,0.8,1.9,0.6
				C1455.4,474.5,1458.7,473.8,1462.5,473.2z M1427.2,476.4c0-0.2,0.1-0.4,0.1-0.5c0.6-5.4,1.4-10.6,2.5-15.8c0.1-0.5,0-0.9-0.3-1.3
				c-3.1-4.1-5.9-8.5-8.6-13.1c0-0.2-0.2-0.3-0.3-0.6c-0.2,0-0.3,0.1-0.3,0.1c-4,2.2-7.9,4.6-11.4,7.6c-2,1.8-4,3.8-5.4,6.1
				c-0.8,1.2-1.5,2.7-1.7,4.1c-0.2,1.4,0.1,2.7,0.8,3.9c0.7,1,1.6,1.9,2.5,2.7c2.3,1.8,4.7,2.9,7.3,3.8c4.5,1.6,9.3,2.5,14,2.9
				C1426.5,476.4,1426.8,476.3,1427.2,476.4z M1432.1,481.9c0,1.7,0,3.3,0,5c0,2.6,0.4,5.1,0.7,7.6c0.5,3,1.3,6.1,2.7,8.7
				c0.6,1.4,1.6,2.6,2.7,3.7c1.3,1.1,2.6,1.5,4.3,1.5c1.3-0.1,2.8-0.6,4.1-1c2.2-1,4.3-2.5,6.2-4.1c3.8-3.2,6.9-7,9.8-11.2
				c0.1-0.2,0.1-0.4,0.3-0.4c-0.2-0.1-0.2-0.1-0.2-0.3c-4.4-3.2-8.6-6.6-12.5-10.2c-0.4-0.3-0.8-0.4-1.1-0.4
				c-1.8,0.2-3.5,0.4-5.4,0.6c-2.9,0.3-5.6,0.3-8.5,0.4C1434,481.8,1433.1,481.8,1432.1,481.9z M1469.9,490c0.2,0.1,0.4,0.3,0.6,0.4
				c2.4,1.4,4.7,2.8,7.4,3.9c3.2,1.4,6.4,2.6,9.8,3.2c2.1,0.4,4.4,0.4,6.5,0c1.6-0.3,3-1.3,3.8-3c0.5-1,0.8-2,1-3.3
				c0.3-2.5,0.2-4.8-0.1-7.2c-0.3-2.2-0.9-4.3-1.6-6.5c-1-2.9-2-5.6-3.3-8.4c0-0.2-0.2-0.3-0.3-0.5c-0.2,0-0.5,0.1-0.6,0.3
				c-1.6,0.7-3.1,1.4-4.7,2c-3.3,1.4-6.7,2.4-10.1,3.5c-0.7,0.1-0.9,0.5-1.1,1.1c-1.9,4.7-4.1,9.1-6.6,13.6
				C1470.2,489.4,1470.1,489.6,1469.9,490z M1446.6,416.5c-0.2-0.1-0.4-0.3-0.6-0.2c-2.8-1.6-5.5-3.1-8.5-4.4
				c-3.2-1.4-6.5-2.4-9.9-2.9c-1.9-0.3-3.8-0.2-5.6,0.2c-2,0.4-3.4,1.6-4,3.6c-0.3,0.9-0.6,2-0.6,2.9c-0.4,3,0.1,6.2,0.7,9.1
				c0.8,3.6,2,7,3.5,10.2c0.4,1,0.9,1.9,1.3,2.8c0.2,0,0.2,0,0.3-0.1c2.2-1,4.4-2,6.6-2.8c2.7-1.1,5.4-2,8.3-3
				c0.7-0.1,0.9-0.5,1.2-0.9c2.1-4.7,4.4-9.3,7-13.8C1446.3,416.9,1446.4,416.7,1446.6,416.5z M1453.8,415c0.2,0.1,0.4,0.3,0.4,0.4
				c2.3,1.8,4.5,3.3,6.6,5.1c2.1,1.6,3.8,3.3,5.7,5.1c0.2,0.3,0.4,0.4,0.8,0.4c1.8-0.2,3.7-0.4,5.6-0.5c3.4-0.4,6.6-0.4,10-0.4
				c0.3-0.1,0.7,0,1,0c0.1-0.5,0-0.9,0.1-1.4c0-4.6-0.2-9.2-1.3-13.6c-0.5-2.1-1.2-4.2-2.2-6.2c-0.8-1.5-1.6-2.9-2.9-4.2
				c-1.1-1-2.2-1.4-3.7-1.3c-1.2,0.1-2.2,0.3-3.3,0.7c-2.2,0.8-4.2,2.3-6.1,3.7c-3.4,2.8-6.1,5.9-8.7,9.2
				C1455.3,413,1454.6,414,1453.8,415z M1489.2,430.5c0,0.2-0.1,0.4-0.1,0.5c-0.4,5.2-1.4,10.6-2.7,15.7c-0.1,0.4,0,0.7,0.2,1
				c3.3,4.3,6.3,8.8,9,13.4c0,0.2,0.2,0.3,0.3,0.5c0.3-0.2,0.8-0.3,1.1-0.6c4-2.2,7.7-4.7,11-8c1.7-1.6,3.4-3.5,4.7-5.5
				c0.8-1.2,1.4-2.5,1.7-4c0.3-1.6,0-3.3-1-4.6c-0.7-0.7-1.1-1.3-2-2c-2.1-1.8-4.5-2.8-7.1-3.6c-4.4-1.5-8.9-2.4-13.5-2.8
				C1490.2,430.6,1489.7,430.6,1489.2,430.5z M1491.1,463.9c-0.7-1.6-5.6-9.3-6.4-9.8c-1.6,4.8-3,9.4-4.5,14.2
				C1483.9,467,1487.5,465.5,1491.1,463.9z M1444.1,475.9c-3.5-3.5-6.7-7.2-9.9-11.1c-0.7,3.9-1.4,7.9-1.6,11.8
				C1436.5,476.7,1440.2,476.4,1444.1,475.9z M1470.8,476.6c-0.3,0.1-0.5,0.1-0.8,0.2c-1.5,0.3-2.9,0.8-4.4,1.1
				c-3,0.6-5.7,1.2-8.7,1.7c-0.2,0-0.5,0.1-0.8,0.2c3.1,2.6,6,5.1,9.3,7.3C1467.5,483.7,1469.2,480.4,1470.8,476.6z M1451,419.5
				c-0.9,1.2-5.2,9.3-5.4,10.2c4.7-1.2,9.5-2.2,14.5-3.1C1457.1,424.2,1454.2,421.8,1451,419.5z M1472.3,430.8
				c3.3,3.4,6.5,7,9.5,10.7c0,0.2,0.2,0.1,0.2,0.3l0,0c0,0,0,0,0.2,0c0.7-3.8,1.3-7.5,1.7-11.3
				C1479.9,430.2,1476.1,430.4,1472.3,430.8z M1425.3,442.6c1.9,3.4,4,6.7,6.2,9.8c0.7-2.4,1.4-4.8,2.1-7.1c0.7-2.4,1.6-4.6,2.5-7
				C1432.4,439.6,1428.9,441,1425.3,442.6z"/>
			<path class="st16" d="M1455.8,442.2c5.5-1.3,11.9,2.1,13.3,8.7c1.4,6.4-2.8,12.1-8.7,13.3c-5.7,1.2-12-2.3-13.3-8.7
				C1445.7,449,1450,443.3,1455.8,442.2z"/>
		</g>
		<g>
			<path class="st16" d="M1348.6,566.7l3.1,14.6l-4.6,1l-7.2-33.8l11.6-2.4c3.7-0.8,6.7-0.6,9,0.7c2.3,1.2,3.8,3.4,4.4,6.5
				c0.4,1.7,0.2,3.3-0.4,4.8c-0.6,1.5-1.7,2.8-3.3,3.9c2,0.2,3.5,0.9,4.6,2.1c1.1,1.2,1.9,2.8,2.3,4.8l0.7,3.2
				c0.2,1.1,0.5,2,0.9,2.8c0.4,0.8,1,1.4,1.6,1.8l0.1,0.6l-4.7,1c-0.7-0.4-1.3-1.1-1.7-2.1c-0.4-1-0.7-2-0.9-3.1l-0.7-3.1
				c-0.4-1.8-1.2-3.2-2.5-4.1c-1.3-0.9-2.9-1.1-4.6-0.8L1348.6,566.7z M1347.9,563.1l6.5-1.4c2.6-0.5,4.3-1.4,5.3-2.7
				c0.9-1.2,1.2-2.8,0.8-4.9c-0.4-1.9-1.3-3.3-2.6-4.1c-1.3-0.8-3.2-1-5.5-0.5l-7,1.5L1347.9,563.1z"/>
			<path class="st16" d="M1387.3,574.3c-3.6,0.8-6.7,0.2-9.2-1.7c-2.5-1.9-4.2-4.7-5-8.5l-0.2-1c-0.8-3.6-0.4-6.8,1.2-9.6
				c1.6-2.8,3.9-4.5,6.9-5.2c3.4-0.7,6.1-0.2,8.2,1.5c2.1,1.7,3.5,4.3,4.3,7.8l0.5,2.4l-16.1,3.4l0,0.1c0.5,2.5,1.5,4.5,3,5.8
				c1.4,1.3,3.3,1.8,5.6,1.3c1.5-0.3,2.9-0.8,3.9-1.5c1.1-0.7,1.9-1.5,2.6-2.5l2.4,2.6c-0.7,1.1-1.7,2-3.1,2.9
				C1391.1,573.2,1389.3,573.9,1387.3,574.3z M1381.8,552c-1.6,0.3-2.8,1.2-3.6,2.7c-0.8,1.5-1.1,3.2-0.9,5.1l0.1,0.1l11.3-2.4
				l-0.1-0.4c-0.4-1.8-1.2-3.2-2.3-4.2C1385.2,551.9,1383.7,551.6,1381.8,552z"/>
			<path class="st16" d="M1417.1,567.5c-0.3-0.7-0.6-1.4-0.8-1.9c-0.2-0.6-0.4-1.1-0.5-1.7c-0.6,1.4-1.5,2.6-2.7,3.7
				c-1.2,1.1-2.6,1.8-4.2,2.2c-2.6,0.6-4.7,0.3-6.4-0.7c-1.7-1-2.7-2.7-3.2-5.1c-0.5-2.4,0.1-4.5,1.7-6.2c1.7-1.8,4.1-3,7.5-3.7
				l5-1.1l-0.5-2.5c-0.3-1.5-1-2.5-2.1-3.2c-1.1-0.7-2.4-0.8-4.1-0.5c-1.5,0.3-2.6,0.9-3.4,1.9c-0.8,0.9-1,1.9-0.8,3l-4.3,1
				l-0.1-0.1c-0.5-1.8,0-3.7,1.5-5.6c1.5-1.9,3.7-3.2,6.6-3.8c2.8-0.6,5.3-0.4,7.3,0.7c2,1.1,3.3,3,3.9,5.7l2.6,12.1
				c0.2,0.9,0.4,1.8,0.7,2.6c0.3,0.8,0.6,1.6,1,2.4L1417.1,567.5z M1408.8,565.8c1.7-0.4,3.1-1.1,4.2-2.2c1.1-1.1,1.8-2.3,2-3.5
				l-0.9-4.1l-5.1,1.1c-1.8,0.4-3.2,1.2-4.1,2.3c-0.9,1.2-1.2,2.4-1,3.6c0.2,1.1,0.8,1.9,1.6,2.4
				C1406.3,566,1407.4,566.1,1408.8,565.8z"/>
			<path class="st16" d="M1437.1,560.1c1.4-0.3,2.5-1,3.4-2.2c0.9-1.2,1.1-2.4,0.8-3.8l4.1-0.9l0.1,0.1c0.5,2.2,0,4.3-1.6,6.4
				c-1.6,2.1-3.6,3.4-6.2,3.9c-3.5,0.7-6.5,0.1-8.9-1.9c-2.4-2-4-4.8-4.8-8.3l-0.2-1c-0.8-3.5-0.4-6.7,1-9.5
				c1.4-2.8,3.9-4.6,7.4-5.3c2.8-0.6,5.3-0.2,7.4,1.1c2.2,1.4,3.5,3.3,3.9,5.8l0,0.1l-4.2,0.9c-0.3-1.5-1.1-2.7-2.3-3.6
				c-1.2-0.9-2.6-1.1-4.1-0.8c-2.2,0.5-3.7,1.7-4.4,3.7c-0.7,2-0.7,4.2-0.2,6.7l0.2,1c0.5,2.5,1.5,4.5,2.9,6.1
				C1433,560,1434.8,560.5,1437.1,560.1z"/>
			<path class="st16" d="M1452.4,527.5l1.3,6.1l4.8-1l0.7,3.4l-4.8,1l3.2,15.2c0.2,1.2,0.7,2,1.3,2.3c0.6,0.4,1.3,0.5,2.1,0.3
				c0.3-0.1,0.6-0.2,0.9-0.3c0.3-0.1,0.6-0.3,0.8-0.4l1.3,3c-0.3,0.3-0.7,0.7-1.4,1c-0.6,0.3-1.3,0.5-1.9,0.7
				c-1.9,0.4-3.5,0.1-4.8-0.7c-1.3-0.9-2.3-2.5-2.8-4.9l-3.2-15.2l-4,0.8l-0.7-3.4l4-0.8l-1.3-6.1L1452.4,527.5z"/>
			<path class="st16" d="M1506.7,548.5l-4.6,1l-21.7-22.4l-0.1,0.1l5.5,25.8l-4.6,1l-7.2-33.8l4.6-1l21.7,22.3l0.1-0.1l-5.5-25.7
				l4.6-1L1506.7,548.5z"/>
			<path class="st16" d="M1529.4,543.7c-0.3-0.7-0.6-1.4-0.8-1.9c-0.2-0.6-0.4-1.1-0.5-1.7c-0.6,1.4-1.5,2.6-2.7,3.7
				c-1.2,1.1-2.6,1.8-4.2,2.2c-2.6,0.6-4.7,0.3-6.4-0.7c-1.7-1-2.7-2.7-3.2-5.1c-0.5-2.4,0.1-4.5,1.7-6.2c1.7-1.8,4.1-3,7.5-3.7
				l5-1.1l-0.5-2.5c-0.3-1.5-1-2.5-2.1-3.2c-1.1-0.7-2.4-0.8-4.1-0.5c-1.5,0.3-2.6,0.9-3.4,1.9c-0.8,0.9-1,1.9-0.8,3l-4.3,1
				l-0.1-0.1c-0.5-1.8,0-3.7,1.5-5.6c1.5-1.9,3.7-3.2,6.6-3.8c2.8-0.6,5.3-0.4,7.3,0.7c2,1.1,3.3,3,3.9,5.7l2.6,12.1
				c0.2,0.9,0.4,1.8,0.7,2.6c0.3,0.8,0.6,1.6,1,2.4L1529.4,543.7z M1521.1,542c1.7-0.4,3.1-1.1,4.2-2.2c1.1-1.1,1.8-2.3,2-3.5
				l-0.9-4.1l-5.1,1.1c-1.8,0.4-3.2,1.2-4.1,2.3c-0.9,1.2-1.2,2.4-1,3.6c0.2,1.1,0.8,1.9,1.6,2.4S1519.7,542.3,1521.1,542z"/>
			<path class="st16" d="M1539.9,508.9l1.3,6.1l4.8-1l0.7,3.4l-4.8,1l3.2,15.2c0.2,1.2,0.7,2,1.3,2.3c0.6,0.4,1.3,0.5,2.1,0.3
				c0.3-0.1,0.6-0.2,0.9-0.3c0.3-0.1,0.6-0.3,0.8-0.4l1.3,3c-0.3,0.3-0.7,0.7-1.4,1c-0.6,0.3-1.3,0.5-1.9,0.7
				c-1.9,0.4-3.5,0.1-4.8-0.7c-1.3-0.9-2.3-2.5-2.8-4.9l-3.2-15.2l-4,0.8l-0.7-3.4l4-0.8l-1.3-6.1L1539.9,508.9z"/>
			<path class="st16" d="M1554.4,505.5l-4.6,1l-1-4.7l4.6-1L1554.4,505.5z M1561.1,537l-4.6,1l-5.3-25.1l4.6-1L1561.1,537z"/>
			<path class="st16" d="M1574.9,526.4l0.8,1.7l0.1,0l0.1-1.9l2-18.9l4.7-1l-3.9,27.1l-3.5,0.7l-14.7-23.1l4.7-1L1574.9,526.4z"/>
			<path class="st16" d="M1602.2,528.8c-3.6,0.8-6.7,0.2-9.2-1.7c-2.5-1.9-4.2-4.7-5-8.5l-0.2-1c-0.8-3.6-0.4-6.8,1.2-9.6
				c1.6-2.8,3.9-4.5,6.9-5.2c3.4-0.7,6.1-0.2,8.2,1.5c2.1,1.7,3.5,4.3,4.3,7.8l0.5,2.4l-16.1,3.4l0,0.1c0.5,2.5,1.5,4.5,3,5.8
				c1.4,1.3,3.3,1.8,5.6,1.3c1.5-0.3,2.9-0.8,3.9-1.5c1.1-0.7,1.9-1.5,2.6-2.5l2.4,2.6c-0.7,1.1-1.7,2-3.1,2.9
				C1606,527.7,1604.3,528.4,1602.2,528.8z M1596.7,506.5c-1.6,0.3-2.8,1.2-3.6,2.7c-0.8,1.5-1.1,3.2-0.9,5.1l0.1,0.1l11.3-2.4
				l-0.1-0.4c-0.4-1.8-1.2-3.2-2.3-4.2C1600.1,506.4,1598.6,506.1,1596.7,506.5z"/>
		</g>
	</g>
	<g class="st0">
		<path class="st22" d="M699.9,143.9c-3.2-1.7-6.5-3.2-9.4-5.1c-0.7-0.4-1-1.8-0.8-2.9c0.4-11.4-1.6-22.2-6.6-32.4
			c-7.7-14.9-20.4-21-38.1-18.5c-14.6,2-24.5,10.4-31.7,22.3c-14.9,24.3-16.9,50.4-8.6,77.5c0.7,2,1.9,2.6,3.8,2.9
			c6.8,1.6,11.2,8,10.8,14.4c-0.5,6.7-5.7,12-12.6,12.5c-5.3,0.6-9.8-1.7-12.7-6.1c-3.2-4.7-3-9.6-0.1-14.5c1.2-1.9,1.3-3.6,0.6-5.9
			c-6.4-20.1-7.8-40.3-2.4-60.8c4.8-17.1,13-32.4,27.5-43.7c16.8-13,40.4-15.2,56.8-4.3c14.7,9.8,22,24,24,41.1
			c0.8,7,0.5,14,0.4,21.1C700.4,142.6,700,143.1,699.9,143.9z"/>
		<path class="st22" d="M575.6,148.4c0.4,3.6,0.7,7.2,0.6,10.5c0.1,0.8-1.3,2.2-2.2,2.8c-9.3,5.8-17.5,12.6-22.8,22.5
			c-11.3,21.2,0.6,46.3,23.8,53.1c29.6,8.9,70.7-8.1,87.5-29.5c1.4-1.6,1.7-2.9,0.7-5c-2.7-5.7-1.2-11.7,3.7-15.9
			c4-3.6,10.9-4.1,15.8-1.2c5.4,3,7.6,8.6,6.4,14.6s-5.8,9.8-12,11c-1.7,0.2-3.8,1.4-4.9,2.6c-22.2,26.4-50.5,38.3-84.5,36.7
			c-11.3-0.6-21.9-3.8-31.3-10c-15.9-10.5-21.9-25.7-19.6-44.3C539.9,172.9,557.2,155.9,575.6,148.4z"/>
		<path class="st22" d="M641,254.7c3.9-1.9,7.3-4,10.9-5.5c0.9-0.4,2.4,0.2,3.4,0.7c10.2,6.1,20.9,10.2,33.1,9.3
			c19.1-1.1,37.8-18.7,33.6-42.7c-3.1-18.6-13.1-33.2-27.3-45c-12.2-10.1-25.9-16.6-41.3-20.2c-3.7-0.7-6.6-1-10,2.1
			c-5.1,5.3-14.6,3.6-19.2-2.2s-3.6-14.6,2.2-19.2c5.8-4.6,15.5-4,19.2,2.2c2.6,4.6,6.6,5.4,11,6.6c32,7.7,56.7,24.9,71.2,55.1
			c7.7,16.3,8.7,33.1,0.5,49.8c-6.4,12.9-18.3,19.3-31.7,22.3C676,272.3,658,266.6,641,254.7z"/>
		<path class="st22" d="M527.9,307c-4.2-0.8-7.6-1.5-11.6-2.3c3.4-17.1,6.7-33.9,10.2-51.2c9.1,2.4,18.9,2.4,27.3,7.1
			c4.9,2.9,7.9,7,7.5,13.2c-0.5,6.5-3.6,11.3-9.9,13.9c-0.6,0.2-1.2,0.3-1.5,0.5c-0.6,0.2-0.9,0.4-0.9,0.4c3.1,8,6.1,16,9.6,24.6
			c-4.5-0.9-8.5-1.4-12.3-2.7c-1.1-0.2-2-2-2.6-3.5c-1.8-4.5-3.1-9.1-4.9-13.8c-0.4-0.9-0.4-2-1.2-2.4c-1.5-0.8-3.2-1.7-5-2.1
			c-0.5-0.1-1.5,1.9-1.7,3.2C529.7,296.7,529,301.8,527.9,307z M534.9,272.1c-1.7,8.7-1,9.3,6.3,9.4c0.5,0.1,0.8-0.1,1.4,0
			c4.2-0.5,7.1-4.1,6.9-8.5c-0.2-4.4-3.9-7.6-11-7.7c-4.3-0.3-1.9,4-3.4,5.9C534.8,271.3,534.9,271.8,534.9,272.1z"/>
		<path class="st22" d="M628.3,326.7c-6.8-0.3-7.8-0.7-9.5-5.7c-1.5,0.8-3,1.6-4.8,2.1c-7.9,2.5-15.3-1.4-17.2-9.7
			c-1.7-7.7-0.3-14.8,4.2-21.3c5.6-7.6,14.8-8.5,22.1-2.7c0.2,0.3,0.5,0.4,1.3,0.5c1.2-6,2.4-11.8,3.6-17.9
			c3.7,0.7,7.1,1.4,10.5,2.1C635.2,292.1,631.7,309.4,628.3,326.7z M621.5,306c0.3-1.6,0.6-3.2,0.9-4.5c0.8-3.9-0.5-5.8-4.1-6.8
			c-3.4-0.9-6.6,0.3-7.8,3.6c-1.3,3.8-2.4,8-2.4,12.1c-0.2,3.8,2.4,5.7,5.9,5.8c3.8,0.2,6.1-1.8,6.8-5.2
			C620.8,309.4,621.1,307.8,621.5,306z"/>
		<path class="st22" d="M667.7,334.6c-6.6,0.1-8-0.8-9.4-4.9c-2.8,0.5-5.5,1.6-8.3,1.9c-8,0.3-13.7-5.2-13.2-13
			c0.3-4.3,1.5-8.7,2-13c0.9-4.5,1.7-8.7,2.7-13.4c3.7,0.7,7.1,1.4,10.8,2.1c-0.4,2.1-0.8,4.2-1.3,6.3c-1.1,5.5-2.2,11-3.3,16.5
			c-0.8,3.9,1,6.2,4.4,6.9c4,0.5,6.5-1.2,7.2-4.6c1.5-7.4,3-15,4.5-22.8c3.7,0.7,6.8,1.4,10.5,2.1
			C672.4,310.7,670,322.7,667.7,334.6z"/>
		<path class="st22" d="M570.3,298.5c-0.6,7.2,3.5,11.3,10.1,10.8c0.8-0.1,1.4-0.3,2.3-0.4c6-1.3,6.2-1.2,8.8,5
			c-6.3,4.2-13.1,4.2-19.8,2.1s-10.9-6.8-12-13.8c-1.2-7.6,0.5-14.6,6.9-19.6c5.9-4.8,12.7-4.8,19.5-1.9c7.8,3.5,11.3,11.8,8.6,20
			c-0.7,2-2.1,2.3-3.9,1.9c-5.5-1.1-11-2.2-16.5-3.3C572.9,299.1,571.6,298.8,570.3,298.5z M571.8,292.3c4.5,0.9,8.9,1.8,13.4,2.7
			c1-3.9-0.5-6.9-3.9-7.9C577,285.7,573.6,287.4,571.8,292.3z"/>
		<path class="st22" d="M678,299.2c3.9,0.8,7.4,1.2,10.5,2.1c1.1,0.2,2.4,1.8,2.7,3c1.5,3.3,2.5,6.8,4.1,10.9
			c2.4-2.5,4.5-4.6,6.3-6.9c2.2-2.8,4.6-3.7,7.9-2.5c1.8,0.6,3.9,0.8,6.6,1.3c-2.7,2.7-5.1,5-7.4,7.3c-2.7,2.5-6.5,5-7.3,7.8
			c-0.6,2.9,1.9,6.7,3.2,9.9c1.4,3.8,2.9,7.4,4.5,11.5c-3.9-0.8-7.4-1.2-10.8-2.1c-1.1-0.2-2.1-1.8-2.7-3c-1.5-3.6-2.6-7.3-4.3-11.5
			c-2.5,2.8-4.8,5-6.7,7.7c-2.3,3.1-4.9,4.2-8.5,2.9c-1.8-0.6-3.9-0.8-6.3-1.3c5.1-5,9.6-9.8,14.1-14.4c1.7-1.6,1.9-2.9,1-5
			C683,310.9,680.6,305.5,678,299.2z"/>
	</g>
	<g class="st0">
		<g>
			<path class="st23" d="M1138.5,150.8c1.7-1.3,3.3-3.2,5.2-3.8c2.4-0.7,3.5-2.1,4.7-4c3.7-6,9.2-10.1,15.3-13.4
				c12-6.6,25-9.8,38.4-11.2c15.7-1.6,31.3-0.9,46.7,3.4c0.4,0.1,0.7,0.2,1.1,0.3c1.1,0.4,1.8,1.1,1.4,2.3c-0.4,1.3-1.4,1.5-2.6,1.3
				c-3.2-0.7-6.4-1.6-9.7-2.2c-21.3-3.8-42.3-2.6-62.8,4.6c-7.5,2.6-14.7,6.2-20.4,11.9c-2,2-3.7,4.4-5.6,6.7c1.2,0.9,2,1.3,2.8,2
				c3.6,3.1,4,8.2,1.2,12.4c-2.4,3.5-7.6,4.5-11.6,2.7c-3.9-1.8-6.1-7.6-4.4-11.6c0.2-0.4,0.1-0.8,0.2-1.2
				C1138.4,151.1,1138.4,151,1138.5,150.8z"/>
			<path class="st23" d="M1251.7,86.6c1.4,1.8,3.2,3.5,3.3,6c0,1.5,0,3.2-0.4,4.6c-0.3,1.4-0.3,2.4,0.4,3.7
				c4.1,7.3,4.7,15.2,4.3,23.3c-0.6,11.5-3.7,22.5-8.1,33.1c-4.2,10.1-9.3,19.7-16,28.4c-3.5,4.5-7.4,8.7-11.2,13
				c-0.9,1-2,1.9-3.2,0.6c-1.2-1.2-0.4-2.3,0.5-3.3c8.7-8.8,15.9-18.7,21.5-29.7c6.5-12.8,11.4-26.2,12.6-40.7
				c0.6-7,0.3-14-2.5-20.6c-0.2-0.4-0.3-0.8-0.5-1.2c-0.3-0.6-0.6-1.1-1-1.8c-0.5,0.2-1.1,0.4-1.6,0.6c-3.6,1.6-8,0.7-10.5-2
				c-2.8-3-3.3-7.5-1.3-11c1.9-3.4,6.1-5.2,10-4.5c0.5,0.1,1,0.1,1.4,0.2C1250.1,85.7,1250.9,86.2,1251.7,86.6z"/>
			<g>
				<path class="st23" d="M1298.3,336.6c-1.4,1.2-2.1,0.8-2.3-1c-0.9-12.6-1.8-25.1-2.7-37.7c0-0.6-0.1-1.1-0.3-1.7
					c-0.2,0.3-0.3,0.6-0.5,0.9c-5,9.2-10,18.5-15,27.7c-0.3,0.6-0.7,1.1-1.4,1.1c-0.7,0-1.1-0.8-0.8-1.7c0.1-0.3,0.3-0.5,0.4-0.8
					c5.5-10.1,11-20.3,16.5-30.4c0.4-0.8,0.8-1.5,1.7-1.4c0.8,0.1,1.2,0.6,1.3,1.8c0.6,8.5,1.2,17,1.8,25.5
					c0.3,4.1,0.6,8.3,0.9,12.4c0,0.2,0.1,0.4,0.1,0.8c0.3-0.5,0.4-0.8,0.6-1.1c4.8-8.8,9.6-17.6,14.3-26.4c0.1-0.2,0.3-0.5,0.4-0.7
					c0.5-0.8,1-1.1,1.6-0.9c0.6,0.2,0.7,0.8,0.4,1.7c0,0.1,0,0.2,0,0.3C1309.8,315.5,1304.1,326.1,1298.3,336.6z"/>
				<path class="st23" d="M1222.2,277.8c0.2,3.3,0.4,6.4,0.6,9.6c0.1,2.4,0.3,4.8,0.4,7.2c0,0.6-0.2,1.2-0.7,1.5
					c-0.5,0.4-1,0.4-1.3,0c-0.2-0.3-0.3-0.7-0.4-1.1c-0.4-5.8-0.7-11.5-1.1-17.3c0-0.3-0.2-0.7-0.4-0.9c-2.8-1.6-5.6-3.1-8.4-4.6
					c-0.1,0-0.1,0-0.3-0.1c-0.1,0.3-0.3,0.6-0.5,0.8c-2,3.8-4.1,7.5-6.1,11.3c-0.2,0.3-0.3,0.6-0.5,0.9c-0.4,0.6-1,0.8-1.5,0.5
					c-0.6-0.3-0.7-0.9-0.4-1.6c0.1-0.3,0.3-0.6,0.5-0.9c5.4-10,10.9-20.1,16.3-30.1c0.9-1.6,1.3-1.8,2.6-1.1c3.6,2,7.2,3.9,10.8,5.9
					c2.2,1.3,3.9,3.3,4.8,6c1.8,5.5-2.5,13.5-8.8,14.4c-1.6,0.2-3.2,0.1-4.7-0.3C1222.9,278,1222.6,278,1222.2,277.8z M1220.2,254.7
					c-2.8,5.1-5.5,10.2-8.3,15.2c0.2,0.1,0.3,0.2,0.4,0.3c2.9,1.6,5.8,3.2,8.7,4.7c1.5,0.8,3.2,1.3,5,1.3c4.7,0.1,9.1-5.2,8.4-10.3
					c-0.4-2.8-2-4.5-4.1-5.7c-3.1-1.8-6.3-3.5-9.4-5.2C1220.8,255,1220.6,254.9,1220.2,254.7z"/>
				<path class="st23" d="M1266.9,276.1c7.3,3.9,9.1,13.7,5.4,22.6c-2.2,5.2-5.6,9.2-10.2,11.9c-4.5,2.5-8.9,2.9-13.1,1.1
					c-4-1.7-6.7-4.7-8-9.3c-1.4-5.3-0.4-10.7,2.3-16c4.2-8.2,12.6-13.1,19.9-11.5C1264.5,275.2,1265.7,275.7,1266.9,276.1z
					 M1245.6,287.2c-1.9,3.4-2.9,7.1-2.8,10.9c0.2,8.9,8,14.4,16,11.3c5.9-2.3,9.8-7.1,11.9-13.6c2.7-8.3-0.4-16.2-7.2-18.3
					C1257.2,275.6,1249.5,279.7,1245.6,287.2z"/>
				<path class="st23" d="M1058.7,167c-2.4,4.5-4.8,8.9-7.3,13.4c0.3,0.1,0.5,0.3,0.8,0.4c4.5,2.4,9,4.9,13.5,7.3
					c0.2,0.1,0.5,0.3,0.7,0.4c0.5,0.3,0.6,0.9,0.3,1.5c-0.3,0.6-0.9,0.9-1.5,0.7c-0.2-0.1-0.4-0.2-0.6-0.3c-4.5-2.5-9-4.9-13.6-7.4
					c-0.3-0.1-0.5-0.3-0.8-0.4c-2.5,4.5-4.9,9-7.4,13.7c0.2,0.1,0.5,0.3,0.7,0.4c5.1,2.8,10.3,5.6,15.4,8.4c0.3,0.1,0.5,0.3,0.8,0.4
					c0.5,0.4,0.6,0.9,0.2,1.6c-0.3,0.6-0.8,0.8-1.4,0.7c-0.2-0.1-0.4-0.2-0.6-0.3c-5.7-3.1-11.5-6.2-17.2-9.3
					c-0.9-0.5-1-1.1-0.4-2.2c5.5-10.2,11.1-20.5,16.7-30.7c0.6-1.1,1.2-1.4,2.1-0.9c5.7,3.1,11.5,6.2,17.2,9.3
					c0.2,0.1,0.4,0.2,0.5,0.4c0.1,0.4,0.3,1,0.1,1.3c-0.2,0.4-0.7,0.7-1.1,0.8c-0.3,0.1-0.7-0.2-1-0.3c-5.1-2.8-10.3-5.6-15.4-8.3
					C1059.3,167.3,1059,167.1,1058.7,167z"/>
				<path class="st23" d="M1121.4,201c-2.4,4.5-4.8,8.9-7.3,13.4c0.3,0.2,0.5,0.3,0.8,0.4c4.5,2.5,9.1,4.9,13.6,7.4
					c1,0.5,1.3,1.1,0.8,1.9c-0.4,0.8-1.1,0.9-2.1,0.3c-4.5-2.5-9-4.9-13.6-7.4c-0.3-0.1-0.5-0.3-0.8-0.5c-2.5,4.5-4.9,9-7.4,13.7
					c0.3,0.1,0.5,0.3,0.8,0.4c5.2,2.8,10.4,5.6,15.6,8.5c1,0.5,1.3,1.1,0.9,1.9c-0.4,0.8-1.1,0.9-2.1,0.3
					c-5.7-3.1-11.4-6.2-17.1-9.3c-0.9-0.5-1.1-1.1-0.4-2.3c5.5-10.2,11.1-20.4,16.6-30.6c0.6-1.1,1.2-1.4,2.1-0.9
					c5.8,3.1,11.5,6.2,17.3,9.4c0.8,0.4,0.9,1.1,0.5,1.8c-0.4,0.7-1,0.9-1.8,0.4c-5.2-2.8-10.4-5.6-15.6-8.5
					C1122,201.3,1121.7,201.2,1121.4,201z"/>
				<path class="st23" d="M1166.1,221.6c3.5,1.8,5.8,5.2,7,9.6c0.2,0.6,0.3,1.2-0.2,1.8c-0.7,0.8-1.7,0.7-2.1-0.3
					c-0.7-1.8-1.2-3.8-2.2-5.3c-5-7.7-15.9-6.5-22.2,2.3c-3.3,4.7-5,9.7-4.4,15.1c0.6,4.8,2.9,8,6.8,9.8c3.1,1.5,6.4,1.3,9.9,0
					c0.2-0.1,0.5-0.2,0.7-0.3c0.8-0.3,1.3,0,1.4,0.7c0.1,0.7-0.3,1.4-1,1.7c-1.2,0.4-2.4,0.8-3.6,1.1c-3.8,0.8-7.2,0.1-10.3-1.9
					c-6.4-4-8.3-12.9-4.8-21.6c3.2-8,10-13.8,17.2-14.4C1160.9,219.6,1163.5,220.2,1166.1,221.6z"/>
				<path class="st23" d="M1194.3,240.6c-1.6-0.9-3-1.7-4.5-2.5c-1.3-0.7-2.7-1.5-4-2.2c-0.5-0.3-0.9-0.7-0.6-1.5
					c0.2-0.7,0.7-1,1.3-0.9c0.3,0.1,0.6,0.2,0.8,0.3c6.2,3.4,12.4,6.7,18.6,10.1c0.1,0.1,0.2,0.1,0.3,0.2c0.7,0.4,0.9,1.1,0.5,1.7
					c-0.4,0.7-1,0.9-1.7,0.5c-2.5-1.3-4.9-2.7-7.4-4c-0.4-0.2-0.8-0.4-1.3-0.7c-0.2,0.4-0.4,0.7-0.5,1c-5.3,9.7-10.5,19.4-15.8,29.1
					c-0.6,1-1.2,1.4-1.8,1.1c-0.6-0.3-0.7-0.8-0.5-1.5c0.1-0.4,0.3-0.7,0.5-1.1c5.2-9.5,10.3-19,15.5-28.5
					C1193.9,241.4,1194.1,241.1,1194.3,240.6z"/>
				<path class="st23" d="M1075.1,213.8c0.3,0.2,0.6,0.3,0.8,0.5c4.6,2.5,9.2,5,13.8,7.5c0.3,0.1,0.5,0.3,0.8,0.4
					c0.5,0.3,0.6,0.8,0.3,1.5c-0.3,0.7-0.8,0.8-1.4,0.8c-0.2,0-0.4-0.2-0.6-0.3c-5.2-2.8-10.4-5.7-15.6-8.5c-1-0.5-1.1-1.1-0.4-2.3
					c5.6-10.3,11.2-20.6,16.7-30.8c0.5-1,1.2-1.4,1.8-1c0.6,0.3,0.7,1.1,0.1,2.2c-5.3,9.7-10.5,19.4-15.8,29.1
					C1075.5,213.1,1075.4,213.4,1075.1,213.8z"/>
			</g>
			<path class="st23" d="M1239,211c0.5-6.6,5.7-10.1,10.9-9.3c3.3,0.5,6.7,3.3,7.5,6.8c0.9,3.7-0.1,6.9-3.1,9.4
				c-2.7,2.3-6.9,2.8-9.8,1.2c-1.1-0.6-2.5-1.3-3.1-2.4c-1-1.8-2.3-2-4.1-2c-6.8-0.3-12.8-3.1-18.5-6.5
				c-10.3-6.1-18.6-14.3-25.9-23.6c-10.8-13.7-18.8-28.8-23.4-45.7c-0.1-0.4-0.2-0.9-0.3-1.3c-0.2-1.2,0.2-2.1,1.4-2.3
				c1.2-0.3,1.9,0.3,2.3,1.5c1.1,3.6,2.1,7.3,3.5,10.9c7.9,20.7,20,38.5,37.4,52.5c5.9,4.7,12.4,8.7,20.1,10.2
				c0.8,0.2,1.6,0.3,2.4,0.4C1237.1,210.9,1237.9,211,1239,211z"/>
			<path class="st23" d="M1208.2,97.1c2.8,2,6.1,4.3,9.4,6.7c1.1,0.8,1.5,1.8,0.7,2.9c-0.9,1.1-2,0.8-3,0.1
				c-3.7-2.5-7.3-5.2-11.2-7.2c-3.4-1.8-7.1-3.1-10.9-3.9c-10.4-2.2-18.4,2.8-21.1,13.1c-0.9,3.4-1,7-1.5,10.5c-0.1,0.5,0,1,0,1.5
				c0,1.2-0.5,2.2-1.9,2.2c-1.4,0-2-1-1.9-2.1c0.4-4.5,0.6-9,1.7-13.3c2.6-10.2,10.2-16.1,20.5-16.1c3.8,0,7.7,1.2,11.5,2.3
				C1202.9,94.4,1205.2,95.8,1208.2,97.1z"/>
			<path class="st23" d="M1280.4,161.7c-2.5,4.2-5.6,7.6-9.3,10.5c-4.9,3.7-10.3,6.6-16,8.8c-1.2,0.5-2.5,0.8-3.1-0.7
				c-0.6-1.5,0.4-2.3,1.7-2.9c6.4-2.7,12.6-5.8,17.7-10.6c3.2-2.9,5.8-6.3,7-10.5c1.9-6.6-0.4-12.2-5-16.9c-2.7-2.7-6-4.8-9.1-7.1
				c-1.1-0.8-2-1.5-1.1-2.9c0.8-1.4,1.9-1.1,3.1-0.4c5.3,3.2,10.2,6.9,13.5,12.3C1283.9,148.1,1283.8,154.9,1280.4,161.7z"/>
			<path class="st23" d="M1181.7,214.3c-6.8-4.1-10.1-9.7-11.8-16.4c-1.9-7.7-1.7-15.4-0.5-23.1c0.2-1.4,0.7-2.4,2.3-2.1
				c1.5,0.2,1.5,1.4,1.5,2.6c-0.2,5.6-0.6,11.2-0.4,16.7c0.1,4.1,1.4,8,3.4,11.6c4.1,7.3,11.4,10.4,19.7,8.1
				c3.5-0.9,6.8-2.6,10.1-3.9c0.4-0.2,0.8-0.4,1.2-0.6c1-0.5,2-0.6,2.7,0.5c0.7,1.2,0.2,2.2-0.8,2.8c-6.9,4-14.2,6.7-22.3,5.3
				C1184.7,215.6,1182.9,214.7,1181.7,214.3z"/>
			<path class="st23" d="M1208,150.2c1.9-3.5,5.5-4.6,8.9-2.8c3.3,1.8,4.6,5.7,2.9,9c-1.7,3.3-6,4.5-9.4,2.7
				C1207.5,157.4,1206.4,153.2,1208,150.2z"/>
		</g>
	</g>
	<g class="st0">
		<path class="st11" d="M788.2,98.2c-23.2-32.3-16-77.1,15.9-100C839-27,884.3-15.5,905.5,16c20,29.8,15.8,73.6-17.6,97.9
			C856,137.2,811.1,130.1,788.2,98.2z M796.8,92.1c20.8,29.5,63.9,32.7,89.8,9.9c23.8-20.8,27.2-60.1,7.1-84.6
			c-23-28.3-61.7-27.7-84.6-10.5C780.3,29.1,778.5,68,796.8,92.1z"/>
		<path class="st11" d="M871.5,134.8c2.6-1.9,5.1-3.7,7.8-5.7c6.8,9.4,13.6,18.7,20.8,28.6c0.2-6.7,0.4-12.5,0.2-18.2
			c-0.2-2.8,0.9-4.6,3.3-5.9c2-1.3,3.9-2.8,6.6-4.8c-0.9,7.8-1.6,14.6-2.2,21.8c8.9,3,18,6,27.6,9.4c-3.4,2.5-6.1,4.6-9,6.4
			c-0.8,0.6-2.4,0.2-3.5-0.2c-5.7-2-11-4.2-16.9-6.5c-2.5,7.5,5,10.7,6.9,16.4c-2.3,1.7-4.8,3.5-7.4,5.4
			C894.2,166,882.9,150.5,871.5,134.8z"/>
		<path class="st11" d="M1001,88.3c-7.5-10.3-5.8-22.2,4.2-29.5c9.5-6.9,21.1-4.8,28.2,5c7.4,10.2,5.6,22.2-4.2,29.3
			C1019.9,100,1008.1,98,1001,88.3z M1008.7,82.1c2.5,2,4.6,4,7.1,5.4c3.2,1.9,6.4,1.6,9.5-0.6c2.9-2.1,3.8-5.2,3.2-8.6
			c-1.1-6.1-4.4-10.9-10.1-13.7c-6.2-3.1-13.2,1.6-12.4,8.4C1006.2,75.9,1007.7,79,1008.7,82.1z"/>
		<path class="st11" d="M830,212.2c-7.4-10.2-5.6-22,4.3-29.2c9.5-6.9,21.1-4.8,28.2,5c7.5,10.3,5.7,22.3-4.3,29.4
			C848.5,224.2,836.9,222.1,830,212.2z M854.6,193.7c-2.9-1.9-5.3-4.4-8.2-5.6c-5.7-2.4-11.8,2.3-11.6,8.4c0.2,6.1,5.2,13.2,11,15.4
			c6.3,2.3,12.5-2.2,11.7-8.7C857.2,200.2,855.6,197.2,854.6,193.7z"/>
		<path class="st11" d="M953.1,126.2c-7.2,5.2-14.2,10.3-21.1,15.3c4.7,7.3,11.6,5.5,23.7-6.1c1.6,1.4,3.1,2.8,5.1,4.5
			c-5.4,7.1-11.2,13-20,14.5c-12.9,2.2-25.7-12.5-22.8-26.1c1.1-5.4,4.2-9.6,9-12.2c8.8-4.9,18.7-1.8,24.5,7.7
			C952.1,124.2,952.4,125,953.1,126.2z M941.4,125.7c-3.7-4.9-8.2-5.8-12.2-2.9c-4,2.9-4.6,8.4-1.6,12.9
			C932.2,132.4,936.7,129.1,941.4,125.7z"/>
		<path class="st11" d="M949.5,109.9c-1.5,0.9-2.7,1.8-4.3,2.7c-1.4-1.9-2.7-3.7-4.2-5.8c1.3-1.1,2.6-2.3,4.3-3.6
			c-1.3-1.8-2.7-3.5-3.8-5.5c-0.5-0.9-0.4-2.6,0.2-3.5c1.3-2,3-3.7,5-5.9c2.3,3.2,4.3,5.9,6.6,9.1c2.6-1.9,5.1-3.7,7.6-5.5
			c1.6,2.2,2.9,4,4.4,6.1c-2.5,1.8-4.8,3.5-7.3,5.3c4.3,5.9,8.1,12,12.7,17.2c2.9,3.4,5.9,0.3,9.1-2.2c1.3,1.8,2.6,3.6,3.9,5.4
			c0.2,0.3-0.1,1.3-0.5,1.9c-5.6,6.2-14.1,10.4-21.4,0c-3.6-5.2-7.4-10.2-11.1-15.3C950.3,110.4,950,110.4,949.5,109.9z"/>
		<path class="st11" d="M815.5,244.4c-0.8-2.3-1.5-4.4-2.3-6.3c3-1.1,5.7-2.3,8.3-3.3c1.1-0.6,2.4-1.3,2.9-2.3
			c0.7-1.6,1.7-4,1.1-5.2c-0.7-1.2-3.2-2.1-4.9-2.1c-2.6,0-4.9,1-7.5,1.5c-6.1,1.1-10.3-0.5-13-5.1c-2.5-4.3-1.7-9.9,2-14.3
			c3.6-4.1,8-6.6,13.6-7.6c0.7,2.2,1.6,4.3,2.4,6.2c-2.5,1.2-5.2,2.1-7.5,3.6c-2.2,1.4-4,3.1-2.8,6c1.1,2.7,3.6,2.4,6,1.9
			c2.5-0.6,5-1.3,7.4-1.6c4.9-0.8,9.1,0.7,11.8,4.9c2.8,4.5,2.6,9.1-0.4,13.3C829.1,239.4,822.3,243.6,815.5,244.4z"/>
		<path class="st11" d="M882,159.7c-6.5,2.9-12.5,5.9-12,13.9c0.5,5.9,3.7,10.3,9.4,12.3c7.4,2.4,11.9-2.4,16.4-7.5
			c1.8,1.6,3.4,3.2,5.1,4.7c-3.5,8.5-15.3,14.5-23.9,12.8c-9.2-1.9-16.8-11.8-16.7-21.5c0.1-9.7,8.5-19.2,18.9-21.1
			C880.1,155,881,157.1,882,159.7z"/>
		<path class="st11" d="M977.2,80.6c2.6-1.9,5.1-3.7,7.7-5.6c7.8,10.7,15.5,21.3,23.3,32.1c-2.5,1.8-5,3.6-7.7,5.6
			C992.9,102.2,985.1,91.4,977.2,80.6z"/>
		<path class="st11" d="M993.4,111.3c2.2,3,1.5,6.9-1.5,8.9s-6.8,1.1-8.8-2c-2-3-1.4-6.6,1.5-8.7
			C987.6,107.4,991.2,108.3,993.4,111.3z"/>
		<path class="st11" d="M974.9,69.6c-2.8,2-5.7,1.4-7.6-1.2c-1.7-2.6-1.2-5.7,1.6-7.7c2.6-1.9,5.8-1.3,7.7,1.3
			C978.4,64.6,977.7,67.8,974.9,69.6z"/>
		<path class="st11" d="M846.7,105.3c-0.6-14.1-1.2-28.3-1.8-42.4c0-0.9,0.7-2.2,1.5-2.8c4.9-3.7,9.8-7.1,14.7-10.7
			c0.3,0.2,0.6,0.2,0.9,0.4c-4.8,18.6-9.7,37.1-14.4,55.7C847.4,105.4,847,105.5,846.7,105.3z"/>
		<path class="st11" d="M830.2,62.2c4.7-18.4,9.6-36.8,14.4-55.2c0.2,0,0.5,0.1,0.7,0.1c0.1,1,0.3,1.9,0.4,2.9
			c0.7,12.8,1.1,25.5,1.7,38.3c0.2,2-0.5,3.1-2.1,4.3c-4.9,3.4-9.5,6.9-14.3,10.4C830.6,62.5,830.4,62.3,830.2,62.2z"/>
	</g>
	<g class="st0">
		<path class="st24" d="M435.7,72.8h14.6v73.3c0,9.9-2.6,17.7-7.9,23.6c-5.2,5.8-12,8.8-20.2,8.8c-8.9,0-15.9-2.6-21.1-7.8
			c-5.2-5.2-7.7-12.7-7.5-22.6l0.2-0.4h13.9c0,6.7,1.3,11.7,3.8,14.9c2.6,3.2,6.1,4.9,10.6,4.9c4,0,7.2-1.9,9.7-5.8
			c2.5-3.8,3.8-9,3.8-15.6V72.8z"/>
		<path class="st24" d="M517.5,150.8c0-4.8-1.4-8.7-4.1-11.8c-2.7-3.1-7.5-5.9-14.4-8.4c-9.8-3.1-17.3-7-22.5-11.8
			c-5.2-4.8-7.9-11.2-7.9-19.2c0-8.2,2.9-15,8.7-20.3c5.8-5.3,13.2-8,22.3-8c9.6,0,17.4,3,23.2,8.9c5.8,5.9,8.6,13.3,8.4,22.2
			l-0.1,0.4h-13.9c0-6.1-1.6-11-4.9-14.8c-3.2-3.8-7.5-5.7-12.8-5.7c-5.1,0-9.1,1.6-12,4.9c-2.8,3.2-4.3,7.3-4.3,12.2
			c0,4.5,1.5,8.3,4.5,11.2c3,3,8.1,5.7,15.2,8.4c9.5,3.1,16.7,7.2,21.7,12.2c5,5,7.4,11.5,7.4,19.5c0,8.5-2.9,15.2-8.8,20.3
			c-5.8,5-13.5,7.5-23,7.5c-9.2,0-17.1-2.7-23.9-8.2c-6.8-5.4-10-13.2-9.8-23.4l0.1-0.4h14c0,7.1,1.9,12.3,5.6,15.8
			c3.7,3.5,8.4,5.2,13.9,5.2c5.4,0,9.6-1.5,12.7-4.5C516,159.9,517.5,155.9,517.5,150.8z"/>
	</g>
	<g class="st0">
		<path class="st25" d="M223.1,49.3l98.2-98.2l95.6,95.6l-98.2,98.2L223.1,49.3z"/>
		<path class="st26" d="M214.2,49.3l104.5,104.5L425.8,46.7L321.3-57.8L214.2,49.3z M223.1,49.3l98.2-98.2l95.6,95.6l-98.2,98.2
			L223.1,49.3z"/>
		<path class="st26" d="M310.5,71.3l9.9,16.9c0.3,0.4,0.2,0.7-0.2,1.1l-6.6,6.6c-0.4,0.4-0.7,0.4-1.1-0.2l-31.7-57.1
			c-0.6-1-1.2-1.9-3.3-4.2c-0.3-0.3-0.3-0.6-0.1-0.8l9.4-9.4c0.3-0.3,0.5-0.4,1-0.1l62.4,34c0.4,0.3,0.6,0.6,0.2,0.9l-7.4,7.4
			c-0.4,0.4-0.7,0.5-1.1,0.3l-17.1-9.7L310.5,71.3L310.5,71.3z M315.7,51.7c-6.2-3.7-20-11.6-26.3-15.7l-0.1,0.1
			c4.3,6.2,10.8,17.4,15.8,26.2L315.7,51.7z M311,6.7c-2.9-2.9-2.5-6.6,0-9.1c2.7-2.7,6.4-2.7,9.1,0c2.9,2.9,2.6,6.5-0.1,9.2
			C317.4,9.4,313.9,9.7,311,6.7L311,6.7z M321.7,16.3c-0.4-0.4-0.4-0.7,0-1.1l7-7c0.4-0.4,0.7-0.4,1.1,0L365,43.5
			c0.4,0.4,0.4,0.6,0,1.1l-6.9,6.9c-0.4,0.4-0.8,0.4-1.2,0L321.7,16.3L321.7,16.3z"/>
	</g>
	<g class="st0">
		<path class="st11" d="M387.3,419.6h61.5v15.8h-38.5v11.8h35.7v15.1h-35.7V477h39.6v16.8h-62.6V419.6z"/>
		<path class="st11" d="M458.2,469.3l21.8-1.4c0.5,3.5,1.4,6.2,2.9,8.1c2.4,3,5.7,4.5,10.1,4.5c3.3,0,5.8-0.8,7.6-2.3
			c1.8-1.5,2.7-3.3,2.7-5.3c0-1.9-0.8-3.6-2.5-5.2c-1.7-1.5-5.6-3-11.7-4.3c-10.1-2.3-17.2-5.3-21.5-9c-4.3-3.7-6.5-8.5-6.5-14.3
			c0-3.8,1.1-7.4,3.3-10.8c2.2-3.4,5.5-6.1,10-8c4.4-1.9,10.5-2.9,18.3-2.9c9.5,0,16.7,1.8,21.7,5.3c5,3.5,7.9,9.1,8.9,16.8
			l-21.6,1.3c-0.6-3.3-1.8-5.8-3.6-7.3c-1.8-1.5-4.4-2.3-7.6-2.3c-2.7,0-4.7,0.6-6,1.7c-1.3,1.1-2,2.5-2,4.1c0,1.2,0.6,2.2,1.7,3.2
			c1.1,1,3.6,1.9,7.7,2.7c10,2.2,17.2,4.3,21.5,6.6c4.3,2.2,7.5,5,9.5,8.2c2,3.3,3,6.9,3,11c0,4.8-1.3,9.1-3.9,13.2
			c-2.6,4-6.3,7.1-11,9.1c-4.7,2.1-10.7,3.1-17.9,3.1c-12.6,0-21.4-2.4-26.2-7.3C461.6,482.9,458.8,476.8,458.2,469.3z"/>
		<path class="st11" d="M593.4,436.3l-20.5,2.5c-0.5-2.9-1.4-4.9-2.7-6.1c-1.3-1.2-2.8-1.8-4.7-1.8c-3.3,0-5.9,1.7-7.8,5.1
			c-1.3,2.4-2.3,7.6-3,15.6c2.5-2.5,5-4.3,7.6-5.5c2.6-1.2,5.6-1.8,9-1.8c6.6,0,12.2,2.4,16.8,7.1c4.6,4.7,6.9,10.7,6.9,18
			c0,4.9-1.2,9.4-3.5,13.4c-2.3,4-5.5,7.1-9.6,9.2c-4.1,2.1-9.2,3.1-15.4,3.1c-7.4,0-13.4-1.3-17.9-3.8c-4.5-2.5-8.1-6.6-10.8-12.1
			c-2.7-5.6-4-12.9-4-22c0-13.4,2.8-23.2,8.5-29.4c5.6-6.2,13.5-9.3,23.4-9.3c5.9,0,10.6,0.7,14,2c3.4,1.4,6.3,3.4,8.5,6
			C590.5,429,592.2,432.3,593.4,436.3z M555.5,469.4c0,4,1,7.2,3,9.4c2,2.3,4.5,3.4,7.4,3.4c2.7,0,5-1,6.8-3.1s2.7-5.1,2.7-9.2
			c0-4.2-0.9-7.4-2.8-9.6c-1.9-2.2-4.2-3.3-7-3.3c-2.9,0-5.3,1.1-7.2,3.2C556.4,462.4,555.5,465.4,555.5,469.4z"/>
	</g>
</g>
<g>
	<linearGradient id="SVGID_9_" gradientUnits="userSpaceOnUse" x1="960" y1="-0.5" x2="960" y2="559.5">
		<stop  offset="0" style="stop-color:#000000;stop-opacity:0"/>
		<stop  offset="1" style="stop-color:#000000"/>
	</linearGradient>
	<rect y="-0.5" class="st27" width="1920" height="560"/>
</g>
</svg>
