<?xml version="1.0" encoding="utf-8"?>
<!-- Generator: Adobe Illustrator 23.0.0, SVG Export Plug-In . SVG Version: 6.00 Build 0)  -->
<svg version="1.1" id="Capa_1" xmlns="http://www.w3.org/2000/svg" xmlns:xlink="http://www.w3.org/1999/xlink" x="0px" y="0px"
	 viewBox="0 0 300 300" style="enable-background:new 0 0 300 300;" xml:space="preserve">
<g>
	<path d="M82.8,274.2c-33-4-56.5-28.9-57.8-62.3c-1.5-40.4-2-80.9-0.1-121.2c1.9-40.1,29.1-65.2,69.7-66.4
		c36.9-1.1,73.9-1.1,110.8,0c40.5,1.2,67.7,26.3,69.6,66.4c1.9,40.9,1.6,82.1-0.2,123.1c-1.6,35.9-31,60.7-69.9,62.2
		C186.8,276.8,105.1,276.9,82.8,274.2z M252.2,90.8c-1.2-23.4-15.9-40.8-39.2-41.9c-40.3-2-80.9-2.7-121.2-0.9
		c-27.3,1.3-43.2,17.4-43.9,41.5c-1.2,40.4-1.2,80.9,0,121.3c0.6,22.4,16.2,39.4,38.5,40.4c40.4,2,80.9,2.9,121.2,0.9
		c30.2-1.5,43.5-17.7,45-47.8C253.5,186.4,253.2,110.5,252.2,90.8z"/>
	<path d="M150.1,215.2c-36.1,0-65.9-29.6-65.6-65.4c0.3-35.6,29.7-64.7,65.3-64.7c36.1,0,65.9,29.6,65.6,65.4
		C215.2,186.1,185.8,215.1,150.1,215.2z M150.7,108c-23.7-0.3-42.7,18.3-42.9,41.9c-0.2,23.1,18.5,42.1,41.5,42.4
		c23.7,0.3,42.7-18.3,42.9-41.9C192.3,127.3,173.7,108.2,150.7,108z"/>
	<path d="M217.7,67.5c8.4,0.1,15.2,6.8,15.3,15c0,8.3-7.8,15.9-16,15.5c-8.2-0.4-14.6-7.3-14.5-15.8
		C202.6,73.7,209.1,67.5,217.7,67.5z"/>
</g>
</svg>
