<?xml version="1.0" encoding="utf-8"?>
<!-- Generator: Adobe Illustrator 23.0.0, SVG Export Plug-In . SVG Version: 6.00 Build 0)  -->
<svg version="1.1" id="Capa_1" xmlns="http://www.w3.org/2000/svg" xmlns:xlink="http://www.w3.org/1999/xlink" x="0px" y="0px"
	 viewBox="0 0 300 300" style="enable-background:new 0 0 300 300;" xml:space="preserve">
<style type="text/css">
	.st0{fill:#0088F8;}
</style>
<g>
	<circle cx="150" cy="150" r="38.4"/>
	<g>
		<path class="st0" d="M206.9,162.6h25.6c-6.1,40.1-40.7,70.9-82.5,70.9c-46.1,0-83.5-37.3-83.5-83.5s37.3-83.5,83.5-83.5
			c41.8,0,76.4,30.8,82.5,70.9h-25.6c-5.7-26.2-29-45.7-56.9-45.7c-32.2,0-58.3,26-58.3,58.3s26,58.3,58.3,58.3
			C177.9,208.2,201.2,188.7,206.9,162.6z"/>
	</g>
	<path d="M150,23.7C80.3,23.7,23.7,80.3,23.7,150c0,69.8,56.6,126.3,126.3,126.3S276.3,219.8,276.3,150
		C276.3,80.3,219.8,23.7,150,23.7z M150,253.3C93,253.3,46.7,207,46.7,150S93,46.7,150,46.7S253.3,93,253.3,150
		S207.1,253.3,150,253.3z"/>
</g>
</svg>
