<?xml version="1.0" encoding="utf-8"?>
<!-- Generator: Adobe Illustrator 23.0.0, SVG Export Plug-In . SVG Version: 6.00 Build 0)  -->
<svg version="1.1" id="Capa_1" xmlns="http://www.w3.org/2000/svg" xmlns:xlink="http://www.w3.org/1999/xlink" x="0px" y="0px"
	 viewBox="0 0 1019 275" style="enable-background:new 0 0 1019 275;" xml:space="preserve">
<style type="text/css">
	.st0{fill:#0088F8;}
</style>
<g>
	<g>
		<path d="M323.3,116.1l20.5,5.6c-3.1,9.8-8.4,17-15.7,21.8s-16.6,7.1-27.8,7.1c-13.9,0-25.3-4.1-34.3-12.2
			c-9-8.1-13.4-19.2-13.4-33.3c0-14.9,4.5-26.5,13.5-34.7c9-8.2,20.8-12.4,35.5-12.4c12.8,0,23.2,3.2,31.2,9.7
			c4.8,3.8,8.3,9.3,10.7,16.5l-20.9,4.3c-1.2-4.6-3.8-8.3-7.8-11c-3.9-2.7-8.7-4-14.3-4c-7.8,0-14.1,2.4-18.9,7.1
			s-7.3,12.5-7.3,23.2c0,11.3,2.4,19.4,7.1,24.2c4.8,4.8,11,7.2,18.6,7.2c5.6,0,10.5-1.5,14.5-4.6
			C318.6,127.4,321.5,122.6,323.3,116.1z"/>
		<path d="M354.7,149V59.5h21.2v35.2h41.4V59.5h21.1V149h-21.1v-39.2h-41.4V149H354.7z"/>
		<path d="M453,149V59.5h44.5c11.2,0,19.3,0.8,24.4,2.4c5.1,1.6,9.1,4.5,12.2,8.6c3,4.1,4.6,8.8,4.6,14.1c0,6.7-2.3,12.3-6.9,16.6
			c-4.6,4.4-11.5,7.1-20.7,8.3c4.6,2.3,8.3,4.8,11.3,7.5c3,2.7,7,7.6,12,14.5l12.8,17.5h-25.3l-15.3-19.5c-5.4-7-9.1-11.4-11.1-13.2
			c-2-1.8-4.1-3.1-6.4-3.7c-2.2-0.7-5.8-1-10.6-1h-4.3V149H453z M474.2,97.3h15.6c10.1,0,16.5-0.4,19-1.1c2.5-0.7,4.5-2,5.9-3.8
			c1.4-1.8,2.1-4,2.1-6.7c0-3-0.9-5.4-2.8-7.3c-1.9-1.8-4.5-3-8-3.5c-1.7-0.2-6.9-0.3-15.4-0.3h-16.5V97.3z"/>
		<path d="M550.7,149V59.5h21.1V149H550.7z"/>
		<path d="M579.3,119.9l20.6-1.7c1.2,5.9,3.8,10.2,7.5,13c3.8,2.8,8.9,4.2,15.3,4.2c6.8,0,11.9-1.2,15.4-3.7
			c3.5-2.5,5.2-5.3,5.2-8.6c0-2.1-0.7-3.9-2.2-5.4c-1.5-1.5-4-2.8-7.6-3.9c-2.5-0.7-8.1-2-16.9-3.9c-11.3-2.4-19.3-5.4-23.9-8.9
			c-6.4-4.9-9.6-10.9-9.6-18c0-4.6,1.5-8.8,4.5-12.8c3-4,7.4-7,13.1-9.1c5.7-2.1,12.6-3.1,20.6-3.1c13.1,0,23,2.5,29.7,7.4
			s10.1,11.5,10.5,19.7l-21.1,0.8c-0.9-4.6-2.8-7.9-5.8-9.9c-3-2-7.4-3-13.4-3c-6.1,0-11,1.1-14.4,3.2c-2.2,1.4-3.4,3.2-3.4,5.6
			c0,2.1,1,3.9,3.1,5.4c2.7,1.9,9.1,3.9,19.4,6c10.3,2.1,17.9,4.2,22.8,6.4s8.8,5.3,11.6,9.1s4.2,8.6,4.2,14.3c0,5.1-1.7,9.9-5,14.4
			c-3.3,4.5-8,7.8-14.1,10c-6.1,2.2-13.7,3.3-22.8,3.3c-13.2,0-23.4-2.6-30.5-7.8C584.9,137.5,580.7,129.9,579.3,119.9z"/>
		<path d="M698.5,149V74.6h-31.1V59.5h83.2v15.1h-31V149H698.5z"/>
		<path d="M756.4,149V59.5h21.1V149H756.4z"/>
		<path d="M884.8,149h-23l-9.1-20.3h-41.9l-8.6,20.3h-22.4l40.8-89.6h22.4L884.8,149z M845.9,113.6l-14.4-33.2l-14.1,33.2H845.9z"/>
		<path d="M888.9,149V59.5h20.6l42.9,59.8V59.5H972V149h-21.2l-42.2-58.4V149H888.9z"/>
		<path d="M263.4,219.7v-49h7.1V214h26.5v5.8H263.4z"/>
		<path d="M300.5,219.7v-49h7.1V214h26.5v5.8H300.5z"/>
		<path d="M336.1,195.9c0-8.4,2.5-14.8,7.4-19.3c4.9-4.5,11-6.7,18.4-6.7c4.7,0,9.1,1,13,3c3.9,2,7,4.9,9.3,8.7
			c2.3,3.8,3.4,8.4,3.4,13.7c0,7.3-2.2,13.2-6.6,17.8c-4.9,5-11.2,7.6-19.1,7.6c-7.9,0-14.3-2.6-19.1-7.8
			C338.3,208.1,336.1,202.5,336.1,195.9z M343.5,195.9c0,6,1.8,10.7,5.3,14.1c3.6,3.3,7.9,5,13,5c5.2,0,9.6-1.7,13.1-5.1
			c3.5-3.4,5.3-8.3,5.3-14.9c0-4.2-0.9-8-2.7-11.3c-1.4-2.5-3.5-4.6-6.3-6.1c-2.8-1.5-5.9-2.3-9.2-2.3c-5.4,0-9.8,1.7-13.3,5
			C345.2,183.8,343.5,188.9,343.5,195.9z"/>
		<path d="M407.4,219.7l-20.9-49h7.7l14,35.6c1.1,2.8,2,5.4,2.8,8c0.8-2.7,1.8-5.4,2.9-8l14.5-35.6h7.2l-21,49H407.4z"/>
		<path d="M437.6,219.7v-49h38.8v5.8h-31.7v15h29.7v5.8h-29.7V214h33v5.8H437.6z"/>
		<path d="M482.9,219.7v-49h23.8c5,0,8.6,0.5,11,1.4c2.4,0.9,4.3,2.4,5.8,4.6c1.5,2.1,2.3,4.6,2.3,7.4c0,3.7-1.3,6.7-3.9,9
			c-2.6,2.3-6.3,3.8-11.2,4.4c2,0.9,3.5,1.8,4.6,2.7c2.1,1.9,4,4,5.6,6.3l9.4,13.3h-8.9l-7.2-10.2c-2.8-4-4.9-6.7-6.3-8.1
			c-1.4-1.4-2.8-2.3-4.1-2.8c-1.3-0.5-3.2-0.7-5.6-0.7H490v21.8H482.9z M490,192.3h15.3c3.3,0,5.9-0.3,7.6-0.9
			c1.7-0.6,3.1-1.5,4.1-2.8c1-1.3,1.5-2.8,1.5-4.5c0-2.5-1-4.4-2.9-5.8c-1.9-1.4-4.8-2.1-8.6-2.1h-17V192.3z"/>
		<path d="M526.6,219.7l20.7-49h7.6l22,49h-8.1l-6.2-14.9H540l-5.8,14.9H526.6z M542,199.6h18.3l-5.6-13.6c-1.7-4.2-3-7.6-3.8-10.2
			c-0.7,3.1-1.7,6.3-2.9,9.4L542,199.6z"/>
	</g>
	<g>
		<circle cx="134.1" cy="137" r="32.3"/>
		<g>
			<path class="st0" d="M181.9,147.6h21.5c-5.1,33.7-34.2,59.6-69.4,59.6c-38.8,0-70.2-31.4-70.2-70.2s31.4-70.2,70.2-70.2
				c35.2,0,64.3,25.9,69.4,59.6h-21.5c-4.8-22-24.4-38.4-47.9-38.4c-27.1,0-49,21.9-49,49s21.9,49,49,49
				C157.5,186,177.1,169.6,181.9,147.6z"/>
		</g>
		<path d="M134.1,30.8C75.4,30.8,27.8,78.4,27.8,137c0,58.7,47.6,106.2,106.2,106.2S240.3,195.7,240.3,137
			C240.3,78.4,192.8,30.8,134.1,30.8z M134.1,223.9c-48,0-86.9-38.9-86.9-86.9s38.9-86.9,86.9-86.9S221,89.1,221,137
			S182.1,223.9,134.1,223.9z"/>
	</g>
</g>
</svg>
