<?xml version="1.0" encoding="utf-8"?>
<!-- Generator: Adobe Illustrator 24.3.0, SVG Export Plug-In . SVG Version: 6.00 Build 0)  -->
<svg version="1.1" id="Capa_1" xmlns="http://www.w3.org/2000/svg" xmlns:xlink="http://www.w3.org/1999/xlink" x="0px" y="0px"
	 viewBox="0 0 300 300" style="enable-background:new 0 0 300 300;" xml:space="preserve">
<g>
	<path d="M279.7,133.7l-27.7-27.7v15.1l20.1,20.1l-8.4,8.4l8.4,8.4L259,171.3c0.4,1.3,0.6,2.7,0.6,4.2c-0.2,4.4-1.8,8.6-5.1,12.8
		c-4.9,6.3-11.4,10.4-19.5,12.1c-2.2,0.5-4.3,0.9-6.5,1.4l-46.5,46.5v15.1l113.6-113.6L279.7,133.7z"/>
	<path d="M58.6,192.3c-1.4-1.6-2.4-3.7-3-6.3c0,0,0,0,0,0l-27.8-27.8l8.4-8.4l-8.4-8.4l21-21v-11.2l12.5-12.5h11.3l69.1-69.1
		l8.4,8.4l8.4-8.4l69.1,69.1h15.1L165.9,20l0,0L150,4l0,0l0,0L4.3,149.7l46.6,46.6C53.3,194,55.8,192.7,58.6,192.3z"/>
	<path d="M98,243.4l19.9,19.9v-15.1l-10-10C104.4,239.9,101.1,241.6,98,243.4z"/>
	<path d="M127.6,273.6L150,296l22.5-22.4v-22.5h-44.8V273.6z M129.4,253l3.7,3.7v14.7l16.8,16.9l0,0v5.2l0,0l-20.5-20.6V253z"/>
	<path d="M81.3,123.7v-6.6l-1.7-1.7h-7.8l-1.7,1.7v25.7l1.7,1.6h7.8l1.7-1.6v-5h-4v-10.9h18.6v21l-6.9,6.9c-2.6-0.7-5.5-0.9-8.5-0.4
		l-0.3,0c-2.5,0.4-4.9,1.1-7.1,2h-9l-8.5-8.4v-36l8.5-8.5h23.4l8.5,8.5v11.8H81.3z"/>
	<path d="M245.2,117.4v-14h-55.8l-12.3,20.5l-12.3-20.5h-17.1v12h3.2v29.1h-5.2l-11.7-29.1h2.7v-12h-28.2v12h2.3l-11.7,29.1H96v12
		h20.3v-12h-1.7l0.8-2.3h14.1l0.8,2.3h-1.7v12h39.9l0-1.9l0.3,0v-10.1h-3.2v-13.7l11.6,19.2l11.6-19.2v13.7h-3.2c0,0,0,7.6,0,7.6
		l0,0.1v4.3h34.6c1.4-2.5,3.3-5.5,6.1-7.9c1.2-1,2.5-1.8,3.8-2.3c0.6-0.2,1.2-0.4,1.8-0.5c1.3-0.2,2.6-0.1,3.8,0.5
		c1.1,0.6,2,1.5,2.6,2.5c0.4-0.4,0.8-0.8,1.3-1.2c1.1-1,2.4-1.9,3.7-2.6c0.7-0.3,1.3-0.5,1.9-0.6v-2h-12v2.1H224v-8.6h2.2v2.1H238
		v-16.1h-11.9v2H224v-8.5h9.3v2H245.2z M119.1,131.9l3.3-8.4l3.4,8.4H119.1z M209.4,144.4h-6.1v-29.1h6.1V144.4z"/>
	<path d="M174.4,82.4v-5.2h-22.3v4.5h1.2v2.7h-3.9v-2.7h1.2v-4.5h-24.2v5.6h4.5v-1.2h1.2v10.9h-1.2V97h7.9v-4.5h-1.2V81.6h1.2v1.2
		h4.4v-1.2h0.8v10.9h-1.2V97h7.8v-4.5h-1.2v-3.3h3.9v3.3h-1.2V97h22.3v-5.3h-4.5v0.8h-3.5v-3.2h0.8v0.8h4.5v-6h-4.5v0.8h-0.8v-3.2
		h3.5v0.8H174.4z M161,92.5h-2.3V81.6h2.3V92.5z"/>
	<path d="M249.6,168.9c-3.1-0.1-5.5,1.3-7.8,3.4c1.6,0.9,2,2.2,1.8,3.8c-0.2,2.1-1.2,4-2.5,5.6c-0.9,1.1-1.9,2.4-3.5,1.8
		c-1.6-0.6-1.5-2.3-1.5-3.7c0.1-4.7,1.5-8.9,4.7-12.6c1.8-2,3.5-4.1,5-6.3c1.9-3,3-6.4,2.9-10c-0.1-2.4-1.7-3.4-3.8-2.4
		c-1,0.5-1.9,1.1-2.8,1.9c-3.2,3-5.4,6.8-7,10.9c-1.6,4.2-2.8,8.5-4.2,12.7c-0.3,0.8-0.5,1.6-0.8,2.4c-1.1,2.9-2.5,5.8-4.9,7.9
		c-0.4,0.3-0.8,0.6-1.3,0.5c-0.2-0.1-0.4-0.2-0.6-0.4c-0.7-0.7-0.7-1.8-0.8-2.7c-0.1-2.3,0.4-4.5,1.1-6.7c1-2.9,2.7-5.5,4.8-7.7
		c3.4-3.5,5.9-7.5,6.6-12.4c0.1-1,0.1-2.2,0-3.2c-0.3-1.9-1.7-2.7-3.5-1.9c-1,0.4-1.9,1-2.7,1.7c-2.4,2-4,4.5-5.5,7.2
		c-3.5,6.5-4.9,13.6-6.8,20.6c0,0,0,0.1,0,0.1c0,0.2-0.1,0.3-0.1,0.5c-0.4,1.2-0.9,2.4-1.4,3.6c-0.4,1.1-0.8,2.3-1.5,3.2
		c-0.2,0.2-0.4,0.4-0.6,0.6c-0.6,0.4-1.3,0.2-1.7-0.4c-0.7-1.1-0.4-2.7-0.3-3.9c0.1-1,0.2-1.9,0.4-2.9c1.1-5,2.4-10,3.7-15.2
		c-1.6,0.2-3.3,0.6-5.1,0.7c-1.2,0.1-1.9,0.4-1.9,1.7c0,0.5-0.2,1-0.3,1.6c-2-2.5-3.7-3.4-5.6-2.7c-1.6,0.6-3.3,1.4-4.6,2.6
		c-4.5,4.3-6.8,9.6-7.2,15.8c-0.2,2.9,0.2,5.6,1.9,8.1c1.8,2.5,4.8,3.2,7.1,1.3c1.6-1.3,2.8-3,4-4.7c0.6-0.7,0.9-1.7,1.3-2.4
		c0.4,1.4,0.6,2.8,1.1,4.1c0.1,0.3,0.3,0.7,0.5,1c0.5,0.7,1.4,1.2,2.3,1.2c1.1,0,2.2-0.5,3.1-1.1c2.2-1.4,3.5-3.6,5-5.7
		c0.2,0.5,0.4,1.2,0.7,1.8c1.2,2.6,3.3,3.4,5.9,2.1c1-0.5,2-1.2,2.8-2.1c1.6-1.8,3.2-3.7,4.7-5.5c-0.2,0.3,0,0.9,0.2,1.6
		c1.2,3.4,3.6,4.7,6.6,3.4c1.1-0.5,2.2-1.1,3-1.9c3.5-3.3,5.8-7.2,6.1-12.1c1.4-0.5,2.4,0.1,2.8,1.7c0.5,2.1,0.3,4.2-0.6,6.2
		c-2.4,5.6-6.5,9-12.5,10c-7,1.1-14.1,2-21.2,3.2c-16.3,2.7-32.5,5.3-48.7,8.2c-16.6,2.9-33.1,5.9-49.6,9.1
		c-15.8,3-31.5,6.2-47.3,9.3c-0.4,0.1-0.8,0.2-1.2,0.3c0.2,0.2,0.2,0.3,0.3,0.3c0.2,0.1,0.5,0.3,0.7,0.4
		c8.7,4.9,16.6,10.8,23.3,18.1c0.6,0.7,1,0.5,1.7,0.1c9-5.3,18.5-9.7,28.2-13.6c22.7-9.3,46.2-16.1,70-21.8
		c13.8-3.3,27.6-6,41.5-8.9c7-1.5,12.7-4.9,17-10.6c2.4-3.1,4-6.5,4.2-10.5C255.6,171.5,253.4,169.1,249.6,168.9z M239.5,163.8
		c0.2-0.6,0.4-1.2,0.7-1.8c0.5-1.4,1.1-2.9,1.6-4.3c0.5-1.4,1-2.9,1.8-4.2c0.4-0.6,0.8-1.4,1.5-1.7c0.2-0.1,0.5-0.1,0.6,0
		c0.2,0.1,0.2,0.4,0.3,0.6c0.3,1.6-0.1,3.1-0.6,4.6c-0.5,1.6-1.4,3-2.3,4.4c-1.1,1.5-2.4,2.9-3.6,4.3c-0.1-0.1-0.2-0.1-0.4-0.2
		C238.9,165.5,239.4,164,239.5,163.8z M225.7,166.5c0.1-0.2,0.1-0.5,0.2-0.7c0.1-0.5,0.2-0.9,0.3-1.4c0.7-2.7,1.6-5.3,2.7-7.8
		c0.4-0.8,0.8-1.5,1.2-2.2c0.3-0.4,1-1.7,1.5-1.5c0.1,0,0.2,0.1,0.2,0.2c0.6,0.8,0.5,2,0.3,3c-0.9,4.5-3.3,8.1-6.7,11.1
		C225.6,167.1,225.6,166.7,225.7,166.5z M203.6,184c-0.7,1.6-1.7,3-2.7,4.4c-0.4,0.6-1.5,1.1-2.1,0.9c-0.6-0.2-1.2-1.1-1.3-1.9
		c-0.2-1.4-0.3-2.9-0.1-4.3c0.5-3.7,1.5-7.2,3.5-10.4c0.5-0.8,1.1-1.5,1.7-2.1c1.5-1.3,2.8-0.9,3.3,1c0,0.3,0.1,0.6,0.1,0.9
		C206.3,176.6,205.2,180.4,203.6,184z"/>
	<path d="M87.1,214.4c-2.1,0.4-4.1,0.3-6.1-0.4c-3.2-1.2-5.1-4.7-4.3-8c0.4-1.7,1.4-2.9,3.2-3.4c1.7-0.4,3.1,0.3,3.7,2
		c0.3,0.8,0.5,1.4-0.6,2c-1.2,0.6-1.4,2.5-0.6,3.9c1,1.7,3.1,2.3,4.9,1.2c1.1-0.6,2.2-1.5,2.8-2.6c3.2-5.3,3.7-10.9,1.3-16.7
		c-1.5-3.6-4.6-5.4-8-5c-1.9,0.2-2.3,0.6-2.7,2.4c-1.6,7.6-3.6,15-7.6,21.7c-1.9,3.2-4.3,6.1-7.8,7.9c-5.8,3-12.5,0.9-14.9-4.5
		c-2.3-5.3-1.2-11.1,2.8-15.3c1.9-2,4.1-3.4,7-3.5c3.6-0.1,5.5,2.8,4.1,6.2c-5-1.6-8.9,1.9-9.8,5.7c-0.5,2.1-0.5,4.3,0.3,6.4
		c1.5,3.9,5.8,4.9,8.7,2c1.3-1.3,2.3-2.9,3.2-4.6c2.2-4.4,3.2-9.2,4.1-14c1-5.3,1.8-10.7,3-16c1-4.7,3-9,6.9-12.1
		c1.6-1.3,3.4-2.2,5.1-3.3c0.3-0.2,0.6-0.2,1.2-0.4c-3.9,6-4.5,12.7-5.8,19.5c2.7-1.3,4.7-3,6.3-5.1c2.5-3.4,3.7-7.2,3.1-11.3
		c-0.7-5.1-4.1-7.9-9.3-7.7c-8.5,0.3-16.8,9.8-15.8,18.3c0.2,1.4,0.8,2.8,1.5,4c0.3,0.6,1,1.4,1.7,1.5c1.6,0.4,1.5,1.5,1.3,2.6
		c-0.5,3.5-4,5-7,3c-2-1.4-3-3.5-3.5-5.8c-1.2-4.8-0.4-9.4,2.2-13.7c4.3-7.2,10.8-11.5,19-12.9c4.4-0.7,8.7,0,12.3,3
		c4.8,4,5.9,11.4,2.6,17.1c-1.5,2.7-3.7,4.8-6.6,6.5c0.8,0.2,1.4,0.3,2,0.5c4.5,1.6,6.9,4.9,8,9.4C101.2,203.6,95.4,213,87.1,214.4z
		"/>
	<path d="M189.8,172.8c-0.8-3.7-3.6-5-7.1-3.3c-2.1,1.1-3.7,2.8-5,4.7c-0.2,0.3-0.4,0.6-0.6,0.9c-0.1,0-0.2-0.1-0.3-0.1
		c1.2-6,2.4-12.1,3.6-18.2c-2.7,0.4-5.4,0.8-7.8,1.1c0,1.5,0.3,2.8,0,4.1c0,0.1,0,0.2,0,0.2c-0.5,3.2-1.1,6.4-1.7,9.5
		c-0.6,3.1-1.1,6.3-1.8,9.4c-0.6,3-1.6,5.8-3.1,8.4c-1.3,2.3-2.8,4.7-5.2,6.1c-1.2,0.7-2.6,1-3.9,0.4c-1.8-0.9-2.2-2.6-2.4-4.4
		c-0.1-1.1,0.1-1.7,1.4-1.9c4.9-1.1,8.4-4,10-8.7c0.5-1.5,0.7-3.3,0.5-4.9c-0.5-3.4-3.6-4.8-7.2-3.7c-3.1,1-5.4,3-7.2,5.6
		c-3.3,4.7-5.2,9.9-4,15.8c1,4.7,5.2,7.5,9.8,6.7c3.7-0.6,6.3-2.9,8.4-5.9c0.7-1,1.3-2.2,2.1-3.4c0.1,0.5,0.2,0.8,0.3,1.1
		c0.8,3.5,3.3,5.5,6.9,5.4c2.6,0,4.7-1.2,6.5-3c4.2-4,6.3-9.1,7.5-14.6C190.2,177.9,190.3,175.4,189.8,172.8z M158.3,178.5
		c0.7-1,1.6-2,2.5-2.9c0.9-0.8,1.5-0.5,1.6,0.8c0.4,3.5-3.2,9.5-6.4,10.8c-0.4,0.2-0.9,0.2-1.5,0.4
		C155,184.1,156.4,181.2,158.3,178.5z M182.5,184.8c-0.7,2.5-1.7,5-2.9,7.3c-0.4,0.8-1,1.5-1.6,2.2c-1.1,1.2-2.3,1-2.7-0.6
		c-0.4-1.6-0.6-3.3-0.5-4.9c0.3-4.2,1.5-8.2,3.7-11.9c0.4-0.7,0.9-1.3,1.4-1.9c0.6-0.5,1.4-1.1,2.2-0.7c0.5,0.3,0.8,0.7,0.9,1.2
		c0.1,0.3,0.2,0.6,0.2,1c0,0.2,0.1,0.4,0.1,0.5C183.6,179.7,183.1,182.3,182.5,184.8z"/>
	<path d="M144.8,184.6c-1-1.5-1.9-3-2.6-4.6c-0.9-1.9,0.5-3.6,2.7-3.4c-0.3-2.5-1.4-3.4-3.7-3.2c-2.5,0.2-4.4,1.6-6.1,3.3
		c-4,4.1-6.1,9.3-8.3,14.5c-0.9,2.3-1.9,4.6-2.9,6.9c-0.3,0.6-0.7,1.1-1.1,1.6c-0.2,0.3-0.7,0.6-0.9,0.5c-0.3-0.1-0.5-0.6-0.6-0.9
		c-0.1-0.3-0.1-0.7-0.1-1c0.3-2.6,0.5-5.3,1-7.9c0.7-4.2,1.6-8.3,2.4-12.4c-1.3,0.3-2.8,0.7-4.4,1.1c-2.5,0.6-2.5,0.6-2.8,3.1
		c-0.1,0.3-0.1,0.6-0.2,1.1c-0.2-0.3-0.4-0.4-0.5-0.6c-1.5-2-3.8-2.7-6.1-1.5c-1.3,0.6-2.4,1.5-3.4,2.5c-3.4,3.5-5.3,7.9-6.1,12.7
		c-0.5,2.9-0.7,5.8,0.3,8.7c1.8,5.2,6.4,6.2,10.1,2.2c1.5-1.6,2.6-3.6,3.8-5.2c0.1,0.5,0.2,1.3,0.5,2c1.1,2.9,2.9,3.6,5.4,1.7
		c1.5-1.1,2.8-2.6,4-4.1c3.1-4.1,4.5-9,6.4-13.7c1.3-3.1,2.5-6.3,4.8-8.9c0.3-0.3,0.7-0.6,1.1-0.9c0,1.2-0.1,2.3,0.1,3.3
		c0.5,2,1,4,1.7,6c1.4,4.1,1.3,8-0.7,11.8c-0.4,0.7-0.9,1.3-1.5,1.8c-1.4,1.2-3,0.8-3.7-0.9c-0.2-0.6-0.4-1.3-0.3-1.9
		c0.2-2.7,1.1-4.9,4-5.8c-1.3-1.5-2.8-1.8-4.6-1c-2.7,1.3-4.2,4.5-3.5,8c0.5,2.9,2.5,4.7,5.7,4.8c1.1,0,2.3-0.2,3.4-0.5
		C145.1,201.5,149.3,191.5,144.8,184.6z M115.3,193.6c-0.5,3.1-1.5,6.1-3.2,8.8c0,0.1-0.1,0.2-0.1,0.2c-0.7,0.9-1.3,2-2.7,1.9
		c-0.8-0.1-1.5-1.4-1.7-3.4c-0.2-5,0.9-10.1,3.7-14.8c0.6-1,1.4-2.4,2.9-2c1.5,0.4,1.6,2,1.6,3.2
		C115.7,189.5,115.6,191.6,115.3,193.6z"/>
</g>
</svg>
