<?xml version="1.0" encoding="utf-8"?>
<!-- Generator: Adobe Illustrator 24.3.0, SVG Export Plug-In . SVG Version: 6.00 Build 0)  -->
<svg version="1.1" id="Capa_1" xmlns="http://www.w3.org/2000/svg" xmlns:xlink="http://www.w3.org/1999/xlink" x="0px" y="0px"
	 viewBox="0 0 100 100" style="enable-background:new 0 0 100 100;" xml:space="preserve">
<style type="text/css">
	.st0{fill:#FFFFFF;}
</style>
<g>
	<path class="st0" d="M50.41,0c13.23,0.19,24.76,4.65,34.36,13.81c7.76,7.4,12.71,16.41,14.46,26.99
		c2.57,15.55-1.33,29.4-11.72,41.26c-7.63,8.7-17.29,14.02-28.7,15.97c-11.07,1.89-21.63,0.17-31.61-5.01
		c-0.36-0.19-0.68-0.22-1.08-0.12c-8.33,2.18-16.67,4.35-25,6.52c-0.71,0.19-0.72,0.19-0.52-0.53c2.21-8.06,4.42-16.11,6.65-24.16
		c0.14-0.5,0.08-0.88-0.17-1.34c-4.43-7.96-6.54-16.5-6.21-25.6C1.33,35.2,5.95,24.32,14.66,15.25C22.54,7.04,32.19,2.17,43.45,0.5
		C45.75,0.16,48.08,0.02,50.41,0z M50.45,8.38c-1.85,0.01-3.7,0.11-5.54,0.37c-11.04,1.61-20.14,6.73-26.99,15.53
		c-7.48,9.61-10.09,20.54-8,32.55c0.96,5.55,3.12,10.63,6.23,15.32c0.28,0.42,0.32,0.78,0.18,1.27c-1.27,4.54-2.51,9.09-3.76,13.63
		c-0.22,0.8-0.22,0.8,0.55,0.6c4.46-1.17,8.94-2.31,13.39-3.52c0.99-0.27,1.76-0.17,2.67,0.36c8.22,4.9,17.12,6.78,26.6,5.54
		c9.88-1.29,18.31-5.61,24.99-13.02c9.38-10.4,12.73-22.63,9.88-36.33C86.72,21.87,69.78,8.38,50.45,8.38z"/>
	<path class="st0" d="M34.2,26.62c0.4,0,0.8,0.03,1.19-0.01c1.08-0.09,1.79,0.42,2.26,1.33c0.73,1.42,1.25,2.92,1.88,4.39
		c0.81,1.9,1.59,3.82,2.41,5.72c0.32,0.75,0.3,1.44-0.04,2.18c-0.74,1.61-1.95,2.85-3.11,4.13c-0.92,1.01-1.01,1.49-0.32,2.64
		c3.82,6.37,9,11.2,15.91,14.07c0.39,0.16,0.76,0.35,1.14,0.51c1.01,0.43,1.63,0.31,2.35-0.51c1.34-1.53,2.66-3.07,3.84-4.72
		c0.73-1.02,1.27-1.22,2.46-0.81c1.9,0.66,3.67,1.63,5.49,2.49c1.47,0.7,2.93,1.43,4.4,2.14c1.44,0.69,1.61,1,1.52,2.6
		c-0.06,0.96-0.25,1.89-0.44,2.83c-0.4,1.94-1.51,3.37-3.05,4.55c-3.75,2.9-7.98,3.67-12.47,2.51c-6.6-1.71-12.69-4.52-17.96-8.95
		c-4.25-3.57-7.91-7.66-11.14-12.17c-1.88-2.62-3.56-5.34-4.51-8.43c-1.37-4.46-1.04-8.72,1.61-12.68c0.64-0.96,1.42-1.82,2.26-2.61
		c0.86-0.81,1.88-1.24,3.08-1.23c0.42,0,0.84,0,1.25,0C34.2,26.59,34.2,26.6,34.2,26.62z"/>
</g>
</svg>
