<?xml version="1.0" encoding="utf-8"?>
<!-- Generator: Adobe Illustrator 23.0.0, SVG Export Plug-In . SVG Version: 6.00 Build 0)  -->
<svg version="1.1" id="Capa_1" xmlns="http://www.w3.org/2000/svg" xmlns:xlink="http://www.w3.org/1999/xlink" x="0px" y="0px"
	 viewBox="0 0 300 300" style="enable-background:new 0 0 300 300;" xml:space="preserve">
<g>
	<path d="M125.2,268c0-1.3-0.1-2.5-0.1-3.8c0-33.2,0-66.5,0-99.7c0-3.7,0-3.7-3.6-3.7c-9.8,0-19.7-0.1-29.5,0
		c-2.3,0-3.1-0.4-3.1-2.9c0.1-12.6,0.1-25.3,0-37.9c0-2.2,0.6-2.9,2.9-2.9c10.1,0.1,20.2,0,30.3,0.1c2.4,0,3.1-0.7,3-3.1
		c-0.1-12.2-0.2-24.4,0.1-36.6c0.5-21.6,18.2-41.4,39.5-44.7c6.3-1,12.6-0.8,18.9-0.8c8.2,0,16.4,0.1,24.6-0.1
		c2.2,0,2.9,0.7,2.9,2.9c-0.1,11.2-0.1,22.4,0,33.6c0,2.5-0.8,3-3.1,3c-7.6-0.1-15.2-0.1-22.8,0c-9.9,0-16.3,5.9-16.6,15.7
		c-0.3,9.3,0,18.6-0.1,27.9c0,2.3,1.3,2.1,2.8,2.1c11.8,0,23.7,0,35.5,0c3.5,0,3.5,0,3,3.5c-1.7,12.6-3.4,25.2-5,37.8
		c-0.3,2.1-1.1,2.4-2.9,2.4c-9.9-0.1-19.9,0-29.8,0c-3.6,0-3.6,0-3.6,3.7c0,33.2,0,66.5,0,99.7c0,1.3-0.1,2.5-0.2,3.8
		C154,268,139.6,268,125.2,268z"/>
</g>
</svg>
