<?xml version="1.0" encoding="utf-8"?>
<!-- Generator: Adobe Illustrator 23.0.0, SVG Export Plug-In . SVG Version: 6.00 Build 0)  -->
<svg version="1.1" id="Capa_1" xmlns="http://www.w3.org/2000/svg" xmlns:xlink="http://www.w3.org/1999/xlink" x="0px" y="0px"
	 viewBox="0 0 300 300" style="enable-background:new 0 0 300 300;" xml:space="preserve">
<g>
	<path d="M173.9,210.2c5.6-1.1,10.9-1.9,16-3.2c15.5-3.9,28.5-11.5,35.6-26.4c7.5-15.7,9.2-32.3,4.9-49.2c-1.7-6.6-5-12.3-9.5-17.5
		c-1.2-1.4-1.5-2.5-0.9-4.4c3.1-10.1,2.2-20.1-1.5-29.9c-0.4-1-2-2-3.1-2c-6.2-0.1-12,1.9-17.4,4.5c-4.8,2.3-9.3,5.2-14,7.7
		c-1,0.5-2.5,0.9-3.6,0.6c-20.4-5-40.7-5-61,0c-1.3,0.3-3-0.2-4.2-0.9c-8.4-5.2-17-10-26.9-11.7c-0.3-0.1-0.6-0.1-0.9-0.2
		c-5.2-0.7-5.7-0.4-7.2,4.5c-2.8,9.4-3.3,18.7-0.4,28.2c0.2,0.8,0,2.1-0.5,2.7c-11.6,13.4-13.9,29.2-11.4,46
		c0.9,5.9,2.3,11.9,4.5,17.5c6.6,17,20,26,37,30.4c5.2,1.4,10.6,2.2,16.3,3.3c-4.3,4.6-6.5,10-7.6,15.9c-0.1,0.7-1.1,1.4-1.9,1.7
		c-13.8,5.3-27.3,3.1-35.8-11.1c-4-6.7-9.5-11.6-17.4-13.2c-2-0.4-4.1-0.3-6.1,0.1c-2.7,0.5-3.1,2.1-1.3,4.1c0.9,1,1.9,1.9,3,2.6
		c7,4.2,11.5,10.5,14.5,17.9c4.8,11.7,14,17.1,26,18c6,0.5,12-0.3,18.4-0.6c0,7.9,0.2,16.2-0.1,24.5c-0.2,4.2-4.6,6.2-9.5,4.6
		c-11-3.6-21.4-8.6-30.8-15.3C38,232.1,18.3,194.3,20.4,146.5C23.1,87,66.6,38.2,125.3,26.9c67.3-12.9,132.8,28.2,150.3,94.2
		c17,64.5-19.9,132.7-83.3,153.7c-6.4,2.1-10.2-0.5-10.1-7.4c0-10.8,0.1-21.6,0.1-32.4C182.3,226,180.7,217.4,173.9,210.2z"/>
</g>
</svg>
